<svg width="400" height="44" viewBox="0 0 400 44" fill="none" xmlns="http://www.w3.org/2000/svg">
<rect width="400" height="43.7207" fill="white"/>
<g clip-path="url(#clip0_745_169)">
<path d="M309.338 21.6797C309.922 21.6797 310.494 21.5063 310.98 21.1814C311.466 20.8565 311.845 20.3947 312.069 19.8545C312.293 19.3142 312.352 18.7197 312.237 18.1461C312.123 17.5726 311.842 17.0457 311.428 16.6322C311.015 16.2187 310.488 15.9371 309.914 15.823C309.341 15.709 308.746 15.7675 308.206 15.9913C307.666 16.2151 307.204 16.5941 306.879 17.0803C306.554 17.5665 306.381 18.1382 306.381 18.723C306.382 19.5069 306.693 20.2585 307.248 20.8128C307.802 21.3671 308.554 21.6789 309.338 21.6797ZM309.338 16.7518C309.727 16.7518 310.109 16.8674 310.433 17.084C310.757 17.3006 311.009 17.6085 311.159 17.9686C311.308 18.3288 311.347 18.7251 311.271 19.1075C311.195 19.4899 311.007 19.8411 310.731 20.1168C310.456 20.3924 310.105 20.5802 309.722 20.6562C309.34 20.7323 308.943 20.6933 308.583 20.5441C308.223 20.3949 307.915 20.1422 307.699 19.8181C307.482 19.4939 307.366 19.1128 307.366 18.723C307.366 18.2002 307.574 17.6988 307.944 17.3291C308.313 16.9595 308.815 16.7518 309.338 16.7518Z" fill="black"/>
<path d="M309.337 22.6653C308.162 22.6666 307.034 23.1343 306.203 23.9657C305.371 24.7972 304.904 25.9245 304.902 27.1004C304.902 27.2311 304.954 27.3564 305.047 27.4488C305.139 27.5412 305.264 27.5932 305.395 27.5932C305.526 27.5932 305.651 27.5412 305.744 27.4488C305.836 27.3564 305.888 27.2311 305.888 27.1004C305.888 26.1855 306.251 25.3081 306.898 24.6612C307.545 24.0143 308.423 23.6509 309.337 23.6509C310.252 23.6509 311.13 24.0143 311.777 24.6612C312.424 25.3081 312.787 26.1855 312.787 27.1004C312.787 27.2311 312.839 27.3564 312.931 27.4488C313.024 27.5412 313.149 27.5932 313.28 27.5932C313.41 27.5932 313.536 27.5412 313.628 27.4488C313.721 27.3564 313.773 27.2311 313.773 27.1004C313.771 25.9245 313.304 24.7972 312.472 23.9657C311.641 23.1343 310.513 22.6666 309.337 22.6653Z" fill="black"/>
</g>
<path d="M328.958 25.9187C331.319 25.9187 333.233 24.0049 333.233 21.644C333.233 19.2831 331.319 17.3693 328.958 17.3693C326.597 17.3693 324.684 19.2831 324.684 21.644C324.684 24.0049 326.597 25.9187 328.958 25.9187Z" stroke="black" stroke-width="1.22135" stroke-linecap="round" stroke-linejoin="round"/>
<path d="M334.301 26.9874L331.977 24.663" stroke="black" stroke-width="1.22135" stroke-linecap="round" stroke-linejoin="round"/>
<path d="M281.795 21.6797H293.622" stroke="black" stroke-width="1.57692" stroke-linecap="round" stroke-linejoin="round"/>
<path d="M281.795 17.9346H293.622" stroke="black" stroke-width="1.57692" stroke-linecap="round" stroke-linejoin="round"/>
<path d="M281.795 25.4249H293.622" stroke="black" stroke-width="1.57692" stroke-linecap="round" stroke-linejoin="round"/>
<line x1="318.853" y1="15.699" x2="318.853" y2="28.2645" stroke="#D5D5D5" stroke-width="0.78846"/>
<line x1="299.699" y1="15.699" x2="299.699" y2="28.2645" stroke="#D5D5D5" stroke-width="0.78846"/>
<rect x="343.772" y="14.8072" width="44.8561" height="14.7422" rx="7.37109" fill="#F0F3F8" stroke="black" stroke-width="0.6"/>
<path d="M352.632 21.6933C352.591 21.564 352.535 21.4482 352.466 21.346C352.397 21.2423 352.316 21.1542 352.221 21.0818C352.125 21.0079 352.017 20.9518 351.895 20.9134C351.774 20.8751 351.641 20.8559 351.496 20.8559C351.25 20.8559 351.029 20.9191 350.831 21.0455C350.634 21.172 350.478 21.3573 350.363 21.6016C350.249 21.8445 350.192 22.1421 350.192 22.4944C350.192 22.8481 350.25 23.1471 350.365 23.3914C350.48 23.6357 350.637 23.8211 350.838 23.9475C351.038 24.0739 351.266 24.1372 351.522 24.1372C351.759 24.1372 351.966 24.0889 352.142 23.9923C352.319 23.8957 352.456 23.7593 352.553 23.5832C352.651 23.4056 352.7 23.1968 352.7 22.9568L352.87 22.9887H351.622V22.4454H353.337V22.9418C353.337 23.3083 353.259 23.6265 353.103 23.8964C352.948 24.1649 352.733 24.3722 352.459 24.5185C352.186 24.6649 351.874 24.738 351.522 24.738C351.127 24.738 350.78 24.6471 350.482 24.4653C350.185 24.2835 349.953 24.0256 349.787 23.6918C349.621 23.3566 349.538 22.9589 349.538 22.4987C349.538 22.1506 349.586 21.8381 349.683 21.5612C349.779 21.2842 349.915 21.0491 350.09 20.8559C350.266 20.6613 350.473 20.5129 350.71 20.4106C350.949 20.3069 351.209 20.255 351.492 20.255C351.728 20.255 351.947 20.2899 352.15 20.3595C352.355 20.4291 352.537 20.5278 352.696 20.6556C352.856 20.7835 352.989 20.9354 353.094 21.1116C353.199 21.2863 353.27 21.4802 353.307 21.6933H352.632ZM355.532 24.7444C355.21 24.7444 354.932 24.6755 354.699 24.5377C354.468 24.3985 354.289 24.2032 354.162 23.9518C354.037 23.6989 353.975 23.4028 353.975 23.0633C353.975 22.7281 354.037 22.4326 354.162 22.1769C354.289 21.9212 354.465 21.7217 354.691 21.5782C354.918 21.4347 355.183 21.363 355.487 21.363C355.672 21.363 355.851 21.3935 356.024 21.4546C356.198 21.5157 356.353 21.6116 356.491 21.7423C356.629 21.8729 356.737 22.0427 356.817 22.2515C356.896 22.4589 356.936 22.711 356.936 23.0079V23.2337H354.335V22.7565H356.312C356.312 22.5889 356.278 22.4404 356.21 22.3112C356.142 22.1805 356.046 22.0775 355.922 22.0022C355.8 21.9269 355.656 21.8893 355.492 21.8893C355.313 21.8893 355.156 21.9333 355.023 22.0214C354.891 22.108 354.789 22.2217 354.716 22.3623C354.645 22.5015 354.61 22.6528 354.61 22.8161V23.189C354.61 23.4077 354.648 23.5938 354.725 23.7472C354.803 23.9006 354.911 24.0178 355.051 24.0988C355.19 24.1783 355.352 24.2181 355.539 24.2181C355.659 24.2181 355.769 24.2011 355.869 24.167C355.968 24.1315 356.054 24.0789 356.127 24.0093C356.199 23.9397 356.254 23.8538 356.293 23.7515L356.896 23.8602C356.847 24.0377 356.761 24.1933 356.636 24.3268C356.512 24.4589 356.357 24.5619 356.169 24.6357C355.983 24.7082 355.771 24.7444 355.532 24.7444ZM359.171 21.4056V21.917H357.383V21.4056H359.171ZM357.863 20.6215H358.5V23.7174C358.5 23.841 358.518 23.934 358.555 23.9965C358.592 24.0576 358.64 24.0995 358.698 24.1222C358.757 24.1435 358.822 24.1542 358.892 24.1542C358.943 24.1542 358.988 24.1506 359.026 24.1435C359.064 24.1364 359.094 24.1308 359.115 24.1265L359.23 24.6528C359.194 24.667 359.141 24.6812 359.073 24.6954C359.005 24.711 358.919 24.7195 358.817 24.721C358.65 24.7238 358.493 24.694 358.348 24.6315C358.203 24.569 358.086 24.4724 357.997 24.3417C357.907 24.211 357.863 24.047 357.863 23.8495V20.6215ZM363.895 21.461C363.872 21.2593 363.778 21.1031 363.613 20.9923C363.449 20.88 363.241 20.8239 362.991 20.8239C362.812 20.8239 362.657 20.8524 362.527 20.9092C362.396 20.9646 362.294 21.0413 362.222 21.1393C362.151 21.2359 362.115 21.346 362.115 21.4695C362.115 21.5732 362.14 21.6627 362.188 21.738C362.238 21.8133 362.302 21.8765 362.382 21.9276C362.463 21.9774 362.549 22.0193 362.642 22.0533C362.734 22.086 362.823 22.113 362.908 22.1343L363.334 22.2451C363.473 22.2792 363.616 22.3254 363.762 22.3836C363.909 22.4418 364.044 22.5185 364.169 22.6137C364.294 22.7089 364.395 22.8268 364.472 22.9674C364.55 23.108 364.589 23.2764 364.589 23.4724C364.589 23.7195 364.525 23.939 364.397 24.1308C364.271 24.3225 364.087 24.4738 363.846 24.5846C363.605 24.6954 363.315 24.7508 362.974 24.7508C362.647 24.7508 362.365 24.6989 362.126 24.5952C361.887 24.4916 361.701 24.3445 361.566 24.1542C361.431 23.9624 361.356 23.7352 361.342 23.4724H362.002C362.015 23.63 362.066 23.7614 362.156 23.8666C362.247 23.9702 362.363 24.0477 362.503 24.0988C362.645 24.1485 362.801 24.1734 362.97 24.1734C363.156 24.1734 363.321 24.1443 363.466 24.086C363.613 24.0264 363.728 23.944 363.811 23.8389C363.895 23.7323 363.937 23.608 363.937 23.466C363.937 23.3367 363.9 23.2309 363.826 23.1485C363.754 23.0661 363.655 22.9979 363.53 22.944C363.407 22.89 363.267 22.8424 363.11 22.8012L362.595 22.6606C362.245 22.5654 361.968 22.4255 361.764 22.2408C361.561 22.0562 361.459 21.8119 361.459 21.5079C361.459 21.2565 361.527 21.037 361.664 20.8495C361.8 20.662 361.985 20.5164 362.218 20.4127C362.451 20.3076 362.713 20.255 363.006 20.255C363.301 20.255 363.562 20.3069 363.788 20.4106C364.015 20.5143 364.194 20.657 364.325 20.8389C364.456 21.0193 364.524 21.2266 364.529 21.461H363.895ZM366.852 21.4056V21.917H365.065V21.4056H366.852ZM365.544 20.6215H366.181V23.7174C366.181 23.841 366.2 23.934 366.237 23.9965C366.274 24.0576 366.321 24.0995 366.379 24.1222C366.439 24.1435 366.504 24.1542 366.573 24.1542C366.624 24.1542 366.669 24.1506 366.708 24.1435C366.746 24.1364 366.776 24.1308 366.797 24.1265L366.912 24.6528C366.875 24.667 366.823 24.6812 366.754 24.6954C366.686 24.711 366.601 24.7195 366.499 24.721C366.331 24.7238 366.175 24.694 366.03 24.6315C365.885 24.569 365.768 24.4724 365.678 24.3417C365.589 24.211 365.544 24.047 365.544 23.8495V20.6215ZM368.51 24.7508C368.302 24.7508 368.115 24.7124 367.947 24.6357C367.779 24.5576 367.647 24.4447 367.549 24.297C367.452 24.1492 367.404 23.9681 367.404 23.7536C367.404 23.569 367.439 23.417 367.51 23.2977C367.581 23.1783 367.677 23.0839 367.798 23.0143C367.919 22.9447 368.054 22.8921 368.203 22.8566C368.352 22.8211 368.504 22.7941 368.659 22.7756C368.855 22.7529 369.014 22.7345 369.136 22.7202C369.258 22.7046 369.347 22.6798 369.402 22.6457C369.458 22.6116 369.485 22.5562 369.485 22.4795V22.4646C369.485 22.2785 369.433 22.1343 369.328 22.032C369.224 21.9298 369.069 21.8786 368.863 21.8786C368.649 21.8786 368.48 21.9262 368.356 22.0214C368.234 22.1151 368.15 22.2195 368.103 22.3346L367.504 22.1982C367.575 21.9994 367.679 21.8389 367.815 21.7167C367.953 21.5931 368.111 21.5036 368.29 21.4482C368.469 21.3914 368.657 21.363 368.855 21.363C368.985 21.363 369.124 21.3786 369.27 21.4099C369.418 21.4397 369.556 21.4951 369.684 21.5761C369.813 21.657 369.919 21.7728 370.001 21.9234C370.083 22.0725 370.125 22.2664 370.125 22.505V24.6783H369.502V24.2309H369.477C369.436 24.3133 369.374 24.3943 369.292 24.4738C369.209 24.5533 369.103 24.6194 368.974 24.672C368.845 24.7245 368.69 24.7508 368.51 24.7508ZM368.648 24.2394C368.824 24.2394 368.975 24.2046 369.1 24.135C369.226 24.0654 369.322 23.9745 369.387 23.8623C369.454 23.7487 369.488 23.6272 369.488 23.4979V23.0761C369.465 23.0988 369.421 23.1201 369.355 23.14C369.292 23.1585 369.218 23.1748 369.136 23.189C369.054 23.2018 368.973 23.2139 368.895 23.2252C368.817 23.2352 368.752 23.2437 368.699 23.2508C368.576 23.2664 368.463 23.2927 368.36 23.3296C368.26 23.3666 368.179 23.4198 368.118 23.4894C368.058 23.5576 368.028 23.6485 368.028 23.7622C368.028 23.9198 368.086 24.0391 368.203 24.1201C368.319 24.1997 368.468 24.2394 368.648 24.2394ZM370.973 24.6783V21.4056H371.589V21.9255H371.623C371.683 21.7494 371.788 21.6109 371.938 21.51C372.09 21.4077 372.262 21.3566 372.454 21.3566C372.494 21.3566 372.541 21.358 372.595 21.3609C372.65 21.3637 372.693 21.3673 372.725 21.3715V21.9809C372.699 21.9738 372.654 21.966 372.588 21.9575C372.523 21.9475 372.458 21.9425 372.392 21.9425C372.242 21.9425 372.107 21.9745 371.99 22.0384C371.873 22.1009 371.781 22.1883 371.713 22.3005C371.644 22.4113 371.61 22.5377 371.61 22.6798V24.6783H370.973ZM374.997 21.4056V21.917H373.209V21.4056H374.997ZM373.689 20.6215H374.326V23.7174C374.326 23.841 374.344 23.934 374.381 23.9965C374.418 24.0576 374.466 24.0995 374.524 24.1222C374.584 24.1435 374.648 24.1542 374.718 24.1542C374.769 24.1542 374.814 24.1506 374.852 24.1435C374.89 24.1364 374.92 24.1308 374.942 24.1265L375.057 24.6528C375.02 24.667 374.967 24.6812 374.899 24.6954C374.831 24.711 374.746 24.7195 374.643 24.721C374.476 24.7238 374.319 24.694 374.175 24.6315C374.03 24.569 373.912 24.4724 373.823 24.3417C373.733 24.211 373.689 24.047 373.689 23.8495V20.6215ZM377.077 24.7444C376.755 24.7444 376.477 24.6755 376.244 24.5377C376.012 24.3985 375.833 24.2032 375.707 23.9518C375.582 23.6989 375.52 23.4028 375.52 23.0633C375.52 22.7281 375.582 22.4326 375.707 22.1769C375.833 21.9212 376.01 21.7217 376.235 21.5782C376.463 21.4347 376.728 21.363 377.032 21.363C377.217 21.363 377.396 21.3935 377.569 21.4546C377.743 21.5157 377.898 21.6116 378.036 21.7423C378.174 21.8729 378.282 22.0427 378.362 22.2515C378.441 22.4589 378.481 22.711 378.481 23.0079V23.2337H375.88V22.7565H377.857C377.857 22.5889 377.823 22.4404 377.755 22.3112C377.686 22.1805 377.591 22.0775 377.467 22.0022C377.345 21.9269 377.201 21.8893 377.037 21.8893C376.858 21.8893 376.701 21.9333 376.568 22.0214C376.436 22.108 376.333 22.2217 376.261 22.3623C376.19 22.5015 376.154 22.6528 376.154 22.8161V23.189C376.154 23.4077 376.193 23.5938 376.27 23.7472C376.348 23.9006 376.456 24.0178 376.596 24.0988C376.735 24.1783 376.897 24.2181 377.083 24.2181C377.204 24.2181 377.314 24.2011 377.414 24.167C377.513 24.1315 377.599 24.0789 377.672 24.0093C377.744 23.9397 377.799 23.8538 377.838 23.7515L378.441 23.8602C378.392 24.0377 378.306 24.1933 378.181 24.3268C378.057 24.4589 377.902 24.5619 377.714 24.6357C377.528 24.7082 377.316 24.7444 377.077 24.7444ZM380.413 24.7423C380.149 24.7423 379.913 24.6748 379.706 24.5399C379.5 24.4035 379.338 24.2096 379.22 23.9582C379.104 23.7053 379.045 23.4021 379.045 23.0484C379.045 22.6947 379.104 22.3921 379.222 22.1407C379.341 21.8893 379.505 21.6968 379.712 21.5633C379.92 21.4298 380.155 21.363 380.417 21.363C380.621 21.363 380.784 21.3971 380.907 21.4653C381.032 21.532 381.129 21.6102 381.197 21.6997C381.267 21.7891 381.321 21.868 381.359 21.9362H381.398V20.3147H382.035V24.6783H381.412V24.1691H381.359C381.321 24.2387 381.265 24.3183 381.193 24.4077C381.122 24.4972 381.024 24.5754 380.899 24.6421C380.774 24.7089 380.612 24.7423 380.413 24.7423ZM380.554 24.1989C380.737 24.1989 380.892 24.1506 381.018 24.0541C381.146 23.956 381.243 23.8204 381.308 23.6471C381.375 23.4738 381.408 23.2721 381.408 23.042C381.408 22.8147 381.376 22.6158 381.31 22.4454C381.245 22.2749 381.149 22.1421 381.023 22.047C380.896 21.9518 380.74 21.9042 380.554 21.9042C380.362 21.9042 380.202 21.9539 380.074 22.0533C379.947 22.1528 379.85 22.2884 379.785 22.4603C379.721 22.6322 379.689 22.8261 379.689 23.042C379.689 23.2607 379.721 23.4575 379.787 23.6322C379.852 23.8069 379.949 23.9454 380.077 24.0477C380.206 24.1485 380.365 24.1989 380.554 24.1989Z" fill="black"/>
<path d="M215.033 21.1277C214.985 21.0794 214.928 21.0411 214.865 21.015C214.802 20.9888 214.735 20.9753 214.667 20.9753C214.599 20.9753 214.532 20.9888 214.469 21.015C214.406 21.0411 214.349 21.0794 214.301 21.1277L211.942 23.4868C211.894 23.535 211.838 23.5734 211.775 23.5995C211.712 23.6257 211.645 23.6391 211.577 23.6391C211.509 23.6391 211.441 23.6257 211.379 23.5995C211.316 23.5734 211.259 23.535 211.211 23.4868L208.852 21.1277C208.804 21.0794 208.747 21.0411 208.684 21.015C208.622 20.9888 208.554 20.9753 208.486 20.9753C208.418 20.9753 208.351 20.9888 208.288 21.015C208.225 21.0411 208.168 21.0794 208.12 21.1277C208.025 21.2242 207.971 21.3548 207.971 21.4908C207.971 21.6269 208.025 21.7575 208.12 21.854L210.485 24.2182C210.774 24.5075 211.167 24.6701 211.577 24.6701C211.986 24.6701 212.379 24.5075 212.669 24.2182L215.033 21.854C215.129 21.7575 215.183 21.6269 215.183 21.4908C215.183 21.3548 215.129 21.2242 215.033 21.1277Z" fill="#535353"/>
<path d="M184.079 22.6876V21.9246H187.572V22.6876H184.079ZM187.04 20.0346H187.866V24.9346H187.04V20.0346ZM183.75 20.0346H184.576V24.9346H183.75V20.0346ZM189.554 22.4846C189.554 22.8206 189.624 23.1216 189.764 23.3876C189.909 23.6489 190.107 23.8542 190.359 24.0036C190.611 24.1529 190.898 24.2276 191.22 24.2276C191.547 24.2276 191.834 24.1529 192.081 24.0036C192.333 23.8542 192.529 23.6489 192.669 23.3876C192.814 23.1216 192.886 22.8206 192.886 22.4846C192.886 22.1486 192.816 21.8499 192.676 21.5886C192.536 21.3226 192.34 21.1149 192.088 20.9656C191.841 20.8162 191.551 20.7416 191.22 20.7416C190.898 20.7416 190.611 20.8162 190.359 20.9656C190.107 21.1149 189.909 21.3226 189.764 21.5886C189.624 21.8499 189.554 22.1486 189.554 22.4846ZM188.679 22.4846C188.679 22.1159 188.742 21.7776 188.868 21.4696C188.994 21.1616 189.171 20.8956 189.4 20.6716C189.633 20.4429 189.904 20.2656 190.212 20.1396C190.525 20.0136 190.861 19.9506 191.22 19.9506C191.589 19.9506 191.927 20.0136 192.235 20.1396C192.543 20.2656 192.811 20.4429 193.04 20.6716C193.273 20.8956 193.453 21.1616 193.579 21.4696C193.705 21.7776 193.768 22.1159 193.768 22.4846C193.768 22.8486 193.705 23.1869 193.579 23.4996C193.453 23.8122 193.276 24.0829 193.047 24.3116C192.818 24.5402 192.548 24.7199 192.235 24.8506C191.927 24.9766 191.589 25.0396 191.22 25.0396C190.856 25.0396 190.518 24.9766 190.205 24.8506C189.892 24.7199 189.622 24.5402 189.393 24.3116C189.169 24.0829 188.994 23.8122 188.868 23.4996C188.742 23.1869 188.679 22.8486 188.679 22.4846ZM195.481 21.9526L195.145 24.9346H194.291L194.963 19.7896L196.972 23.1146L198.988 19.7896L199.66 24.9346H198.806L198.463 21.9526L196.972 24.4796L195.481 21.9526ZM200.975 24.9346V24.2066H203.446V24.9346H200.975ZM200.975 20.7626V20.0346H203.446V20.7626H200.975ZM200.975 22.6666V21.9526H203.306V22.6666H200.975ZM200.464 20.0346H201.276V24.9346H200.464V20.0346Z" fill="black"/>
<path d="M264.727 21.1277C264.679 21.0794 264.622 21.0411 264.56 21.015C264.497 20.9888 264.429 20.9753 264.361 20.9753C264.293 20.9753 264.226 20.9888 264.163 21.015C264.101 21.0411 264.044 21.0794 263.996 21.1277L261.637 23.4868C261.589 23.535 261.532 23.5734 261.469 23.5995C261.406 23.6257 261.339 23.6391 261.271 23.6391C261.203 23.6391 261.136 23.6257 261.073 23.5995C261.01 23.5734 260.953 23.535 260.905 23.4868L258.546 21.1277C258.498 21.0794 258.441 21.0411 258.379 21.015C258.316 20.9888 258.249 20.9753 258.181 20.9753C258.113 20.9753 258.045 20.9888 257.982 21.015C257.92 21.0411 257.863 21.0794 257.815 21.1277C257.719 21.2242 257.665 21.3548 257.665 21.4908C257.665 21.6269 257.719 21.7575 257.815 21.854L260.179 24.2182C260.469 24.5075 260.862 24.6701 261.271 24.6701C261.68 24.6701 262.073 24.5075 262.363 24.2182L264.727 21.854C264.823 21.7575 264.877 21.6269 264.877 21.4908C264.877 21.3548 264.823 21.2242 264.727 21.1277Z" fill="#535353"/>
<path d="M233.032 23.6746L233.186 22.9746H235.461L235.622 23.6746H233.032ZM234.313 21.4206L233.543 23.2196L233.529 23.4016L232.85 24.9346H231.919L234.313 19.7616L236.707 24.9346H235.776L235.111 23.4436L235.09 23.2406L234.313 21.4206ZM237.907 22.4076V22.0016H238.698C238.852 22.0016 238.988 21.9759 239.104 21.9246C239.221 21.8732 239.312 21.8009 239.377 21.7076C239.443 21.6096 239.475 21.4929 239.475 21.3576C239.475 21.1522 239.403 20.9936 239.258 20.8816C239.114 20.7696 238.927 20.7136 238.698 20.7136H238.103V24.2556H238.789C238.976 24.2556 239.142 24.2252 239.286 24.1646C239.431 24.1039 239.545 24.0129 239.629 23.8916C239.713 23.7702 239.755 23.6186 239.755 23.4366C239.755 23.3059 239.73 23.1916 239.678 23.0936C239.632 22.9909 239.564 22.9069 239.475 22.8416C239.391 22.7716 239.291 22.7226 239.174 22.6946C239.058 22.6619 238.929 22.6456 238.789 22.6456H237.907V22.1906H238.838C239.076 22.1906 239.3 22.2162 239.51 22.2676C239.72 22.3189 239.907 22.3982 240.07 22.5056C240.238 22.6129 240.369 22.7506 240.462 22.9186C240.556 23.0866 240.602 23.2872 240.602 23.5206C240.602 23.8426 240.525 24.1086 240.371 24.3186C240.222 24.5286 240.014 24.6849 239.748 24.7876C239.487 24.8856 239.184 24.9346 238.838 24.9346H237.277V20.0346H238.754C239.062 20.0346 239.333 20.0789 239.566 20.1676C239.804 20.2562 239.989 20.3916 240.119 20.5736C240.255 20.7556 240.322 20.9866 240.322 21.2666C240.322 21.5092 240.255 21.7169 240.119 21.8896C239.989 22.0576 239.804 22.1859 239.566 22.2746C239.333 22.3632 239.062 22.4076 238.754 22.4076H237.907ZM242.07 22.4846C242.07 22.8206 242.14 23.1216 242.28 23.3876C242.424 23.6489 242.623 23.8542 242.875 24.0036C243.127 24.1529 243.414 24.2276 243.736 24.2276C244.062 24.2276 244.349 24.1529 244.597 24.0036C244.849 23.8542 245.045 23.6489 245.185 23.3876C245.329 23.1216 245.402 22.8206 245.402 22.4846C245.402 22.1486 245.332 21.8499 245.192 21.5886C245.052 21.3226 244.856 21.1149 244.604 20.9656C244.356 20.8162 244.067 20.7416 243.736 20.7416C243.414 20.7416 243.127 20.8162 242.875 20.9656C242.623 21.1149 242.424 21.3226 242.28 21.5886C242.14 21.8499 242.07 22.1486 242.07 22.4846ZM241.195 22.4846C241.195 22.1159 241.258 21.7776 241.384 21.4696C241.51 21.1616 241.687 20.8956 241.916 20.6716C242.149 20.4429 242.42 20.2656 242.728 20.1396C243.04 20.0136 243.376 19.9506 243.736 19.9506C244.104 19.9506 244.443 20.0136 244.751 20.1396C245.059 20.2656 245.327 20.4429 245.556 20.6716C245.789 20.8956 245.969 21.1616 246.095 21.4696C246.221 21.7776 246.284 22.1159 246.284 22.4846C246.284 22.8486 246.221 23.1869 246.095 23.4996C245.969 23.8122 245.791 24.0829 245.563 24.3116C245.334 24.5402 245.063 24.7199 244.751 24.8506C244.443 24.9766 244.104 25.0396 243.736 25.0396C243.372 25.0396 243.033 24.9766 242.721 24.8506C242.408 24.7199 242.137 24.5402 241.909 24.3116C241.685 24.0829 241.51 23.8122 241.384 23.4996C241.258 23.1869 241.195 22.8486 241.195 22.4846ZM247.052 20.0346H247.878V23.2896C247.878 23.5929 247.957 23.8379 248.116 24.0246C248.279 24.2066 248.52 24.2976 248.837 24.2976C249.15 24.2976 249.388 24.2066 249.551 24.0246C249.714 23.8379 249.796 23.5929 249.796 23.2896V20.0346H250.622V23.3246C250.622 23.5952 250.578 23.8379 250.489 24.0526C250.405 24.2626 250.284 24.4422 250.125 24.5916C249.966 24.7409 249.777 24.8552 249.558 24.9346C249.339 25.0139 249.098 25.0536 248.837 25.0536C248.576 25.0536 248.335 25.0139 248.116 24.9346C247.897 24.8552 247.705 24.7409 247.542 24.5916C247.383 24.4422 247.262 24.2626 247.178 24.0526C247.094 23.8379 247.052 23.5952 247.052 23.3246V20.0346ZM251.191 20.7976V20.0346H254.607V20.7976H253.312V24.9346H252.479V20.7976H251.191Z" fill="black"/>
<path d="M79.3333 15.4547C80.5233 15.4547 81.544 15.6701 82.3954 16.101C83.2469 16.5318 83.8983 17.1525 84.3497 17.9629C84.801 18.7733 85.0267 19.7376 85.0267 20.8558C85.0267 21.9637 84.801 22.9228 84.3497 23.7333C83.8983 24.5334 83.2469 25.1489 82.3954 25.5798C81.544 26.0004 80.5233 26.2107 79.3333 26.2107H76.148V15.4547H79.3333ZM79.3333 25.3182C80.831 25.3182 81.9697 24.9284 82.7493 24.1487C83.5392 23.3588 83.9342 22.2612 83.9342 20.8558C83.9342 19.4401 83.5392 18.3373 82.7493 17.5474C81.9697 16.7472 80.831 16.3472 79.3333 16.3472H77.2252V25.3182H79.3333ZM90.6903 26.3338C89.9003 26.3338 89.1874 26.1594 88.5514 25.8106C87.9256 25.4516 87.4281 24.9489 87.0587 24.3026C86.6997 23.6461 86.5202 22.8818 86.5202 22.0098C86.5202 21.1379 86.7048 20.3787 87.0741 19.7325C87.4434 19.0759 87.9461 18.5733 88.5821 18.2245C89.2182 17.8654 89.9311 17.6859 90.721 17.6859C91.5109 17.6859 92.2239 17.8654 92.8599 18.2245C93.5062 18.5733 94.0089 19.0759 94.3679 19.7325C94.7372 20.3787 94.9219 21.1379 94.9219 22.0098C94.9219 22.8716 94.7372 23.6307 94.3679 24.2872C93.9986 24.9438 93.4908 25.4516 92.8445 25.8106C92.1983 26.1594 91.4802 26.3338 90.6903 26.3338ZM90.6903 25.3951C91.2442 25.3951 91.7571 25.272 92.229 25.0258C92.7009 24.7694 93.0805 24.3898 93.3677 23.8871C93.6652 23.3742 93.814 22.7485 93.814 22.0098C93.814 21.2712 93.6703 20.6506 93.3831 20.1479C93.0959 19.635 92.7163 19.2554 92.2444 19.0092C91.7725 18.7528 91.2596 18.6245 90.7056 18.6245C90.1517 18.6245 89.6388 18.7528 89.1669 19.0092C88.695 19.2554 88.3154 19.635 88.0282 20.1479C87.7512 20.6506 87.6127 21.2712 87.6127 22.0098C87.6127 22.7485 87.7512 23.3742 88.0282 23.8871C88.3154 24.3898 88.6898 24.7694 89.1515 25.0258C89.6234 25.272 90.1363 25.3951 90.6903 25.3951ZM96.393 22.0098C96.393 21.1379 96.5674 20.3787 96.9162 19.7325C97.2649 19.0759 97.7471 18.5733 98.3626 18.2245C98.9781 17.8654 99.6808 17.6859 100.471 17.6859C101.507 17.6859 102.358 17.9424 103.025 18.4553C103.702 18.9682 104.138 19.6658 104.333 20.548H103.179C103.035 19.9428 102.722 19.4709 102.24 19.1323C101.768 18.7836 101.179 18.6092 100.471 18.6092C99.9065 18.6092 99.3987 18.7374 98.9473 18.9938C98.496 19.2503 98.1369 19.635 97.8702 20.1479C97.6137 20.6506 97.4855 21.2712 97.4855 22.0098C97.4855 22.7485 97.6137 23.3742 97.8702 23.8871C98.1369 24.4001 98.496 24.7848 98.9473 25.0412C99.3987 25.2977 99.9065 25.4259 100.471 25.4259C101.179 25.4259 101.768 25.2567 102.24 24.9181C102.722 24.5693 103.035 24.0872 103.179 23.4717H104.333C104.138 24.3334 103.702 25.0258 103.025 25.549C102.348 26.0722 101.497 26.3338 100.471 26.3338C99.6808 26.3338 98.9781 26.1594 98.3626 25.8106C97.7471 25.4516 97.2649 24.9489 96.9162 24.3026C96.5674 23.6461 96.393 22.8818 96.393 22.0098ZM109.215 26.3338C108.251 26.3338 107.461 26.1132 106.846 25.6721C106.24 25.2207 105.902 24.6104 105.83 23.841H106.938C106.989 24.3129 107.21 24.6976 107.6 24.9951C108 25.2823 108.533 25.4259 109.2 25.4259C109.785 25.4259 110.241 25.2874 110.569 25.0105C110.908 24.7335 111.077 24.3898 111.077 23.9795C111.077 23.6922 110.985 23.4563 110.8 23.2716C110.616 23.087 110.38 22.9434 110.092 22.8408C109.815 22.7279 109.436 22.61 108.954 22.4869C108.328 22.3227 107.82 22.1586 107.43 21.9945C107.04 21.8303 106.707 21.5892 106.43 21.2712C106.163 20.943 106.03 20.507 106.03 19.9633C106.03 19.5529 106.153 19.1734 106.399 18.8246C106.646 18.4758 106.994 18.1988 107.446 17.9936C107.897 17.7885 108.41 17.6859 108.984 17.6859C109.887 17.6859 110.616 17.9167 111.17 18.3783C111.723 18.8297 112.021 19.4555 112.062 20.2556H110.985C110.954 19.7632 110.759 19.3683 110.4 19.0708C110.051 18.763 109.569 18.6092 108.954 18.6092C108.41 18.6092 107.969 18.7374 107.63 18.9938C107.292 19.2503 107.123 19.5683 107.123 19.9479C107.123 20.2762 107.22 20.548 107.415 20.7634C107.62 20.9686 107.871 21.1327 108.169 21.2558C108.466 21.3687 108.866 21.4969 109.369 21.6405C109.974 21.8047 110.457 21.9637 110.816 22.1176C111.175 22.2714 111.482 22.4971 111.739 22.7946C111.995 23.0921 112.129 23.4871 112.139 23.9795C112.139 24.4308 112.016 24.8361 111.77 25.1951C111.523 25.5439 111.18 25.8209 110.739 26.026C110.298 26.2312 109.79 26.3338 109.215 26.3338Z" fill="black"/>
<ellipse cx="21.4632" cy="20.8653" rx="10.6576" ry="10.6576" fill="black"/>
<path d="M7.08514 28.8604V12.5651H9.1104V28.8604H7.08514ZM10.2743 21.8068V19.9678H12.3927C14.0378 19.9368 14.8681 19.0211 14.8836 17.2209C14.8525 15.3741 13.9136 14.4429 12.0668 14.4274H10.2743V12.5651H12.4393C14.6896 12.6427 16.0786 13.5816 16.6062 15.3819C16.7614 15.894 16.839 16.4527 16.839 17.0579C16.8235 18.8582 16.2881 20.123 15.2328 20.8524C16.1329 21.3335 16.676 22.2103 16.8623 23.4829C16.8778 23.5916 16.8933 23.7002 16.9088 23.8088L17.3046 28.8604H15.3957L15.0465 24.7167C14.9224 23.382 14.5809 22.5285 14.0223 22.156C13.6498 21.9077 13.1454 21.7913 12.5091 21.8068H10.2743Z" fill="white"/>
<path d="M28.365 26.2107L25.9953 22.0252H24.9797V26.2107H22.8254V15.4701H26.857C27.6879 15.4701 28.3958 15.6188 28.9805 15.9163C29.5652 16.2035 30.0012 16.5985 30.2885 17.1012C30.586 17.5936 30.7347 18.1475 30.7347 18.763C30.7347 19.4709 30.5295 20.112 30.1192 20.6865C29.7089 21.2507 29.0985 21.6405 28.2881 21.856L30.8578 26.2107H28.365ZM24.9797 20.4095H26.7801C27.3648 20.4095 27.8008 20.271 28.088 19.9941C28.3753 19.7068 28.5189 19.3119 28.5189 18.8092C28.5189 18.3168 28.3753 17.9372 28.088 17.6705C27.8008 17.3935 27.3648 17.255 26.7801 17.255H24.9797V20.4095Z" fill="white"/>
<path d="M32.1292 21.9175C32.1292 21.0558 32.2985 20.2915 32.637 19.6247C32.9858 18.9579 33.4526 18.445 34.0373 18.086C34.6323 17.7269 35.294 17.5474 36.0223 17.5474C36.6583 17.5474 37.2123 17.6756 37.6842 17.9321C38.1663 18.1886 38.551 18.5117 38.8383 18.9015V17.6859H41.0079V26.2107H38.8383V24.9643C38.5613 25.3644 38.1766 25.6978 37.6842 25.9645C37.202 26.221 36.643 26.3492 36.0069 26.3492C35.2888 26.3492 34.6323 26.1645 34.0373 25.7952C33.4526 25.4259 32.9858 24.9079 32.637 24.2411C32.2985 23.564 32.1292 22.7895 32.1292 21.9175ZM38.8383 21.9483C38.8383 21.4251 38.7357 20.9789 38.5305 20.6096C38.3254 20.23 38.0484 19.9428 37.6996 19.7478C37.3508 19.5427 36.9764 19.4401 36.5763 19.4401C36.1762 19.4401 35.8069 19.5375 35.4684 19.7325C35.1298 19.9274 34.8529 20.2146 34.6374 20.5942C34.4323 20.9635 34.3297 21.4046 34.3297 21.9175C34.3297 22.4304 34.4323 22.8818 34.6374 23.2716C34.8529 23.6512 35.1298 23.9436 35.4684 24.1487C35.8172 24.3539 36.1865 24.4565 36.5763 24.4565C36.9764 24.4565 37.3508 24.359 37.6996 24.1641C38.0484 23.959 38.3254 23.6717 38.5305 23.3024C38.7357 22.9228 38.8383 22.4715 38.8383 21.9483ZM42.558 21.9175C42.558 21.0558 42.7273 20.2915 43.0658 19.6247C43.4146 18.9579 43.8865 18.445 44.4815 18.086C45.0765 17.7269 45.7381 17.5474 46.4665 17.5474C47.0205 17.5474 47.5488 17.6705 48.0514 17.9167C48.5541 18.1527 48.9542 18.4707 49.2517 18.8707V14.8238H51.4367V26.2107H49.2517V24.9489C48.985 25.3695 48.6105 25.708 48.1284 25.9645C47.6462 26.221 47.0871 26.3492 46.4511 26.3492C45.733 26.3492 45.0765 26.1645 44.4815 25.7952C43.8865 25.4259 43.4146 24.9079 43.0658 24.2411C42.7273 23.564 42.558 22.7895 42.558 21.9175ZM49.2671 21.9483C49.2671 21.4251 49.1645 20.9789 48.9593 20.6096C48.7541 20.23 48.4772 19.9428 48.1284 19.7478C47.7796 19.5427 47.4052 19.4401 47.0051 19.4401C46.605 19.4401 46.2357 19.5375 45.8972 19.7325C45.5586 19.9274 45.2816 20.2146 45.0662 20.5942C44.861 20.9635 44.7585 21.4046 44.7585 21.9175C44.7585 22.4304 44.861 22.8818 45.0662 23.2716C45.2816 23.6512 45.5586 23.9436 45.8972 24.1487C46.2459 24.3539 46.6152 24.4565 47.0051 24.4565C47.4052 24.4565 47.7796 24.359 48.1284 24.1641C48.4772 23.959 48.7541 23.6717 48.9593 23.3024C49.1645 22.9228 49.2671 22.4715 49.2671 21.9483ZM54.6333 16.6703C54.2537 16.6703 53.9357 16.5523 53.6793 16.3164C53.4331 16.0702 53.31 15.7676 53.31 15.4085C53.31 15.0495 53.4331 14.752 53.6793 14.516C53.9357 14.2698 54.2537 14.1467 54.6333 14.1467C55.0129 14.1467 55.3257 14.2698 55.5719 14.516C55.8284 14.752 55.9566 15.0495 55.9566 15.4085C55.9566 15.7676 55.8284 16.0702 55.5719 16.3164C55.3257 16.5523 55.0129 16.6703 54.6333 16.6703ZM55.6951 17.6859V26.2107H53.5408V17.6859H55.6951ZM65.8713 17.6859V26.2107H63.7016V25.1336C63.4246 25.5029 63.0604 25.7952 62.6091 26.0107C62.168 26.2158 61.6858 26.3184 61.1626 26.3184C60.4958 26.3184 59.906 26.1799 59.393 25.9029C58.8801 25.6157 58.4749 25.2002 58.1774 24.6565C57.8902 24.1026 57.7465 23.446 57.7465 22.6869V17.6859H59.9008V22.3791C59.9008 23.0562 60.0701 23.5794 60.4086 23.9487C60.7472 24.3077 61.2088 24.4873 61.7935 24.4873C62.3885 24.4873 62.8553 24.3077 63.1938 23.9487C63.5323 23.5794 63.7016 23.0562 63.7016 22.3791V17.6859H65.8713ZM71.259 26.3492C70.5614 26.3492 69.9357 26.2261 69.3817 25.9799C68.8278 25.7234 68.3866 25.3798 68.0584 24.9489C67.7404 24.518 67.566 24.041 67.5352 23.5178H69.7049C69.7459 23.8461 69.9049 24.118 70.1819 24.3334C70.4691 24.5488 70.823 24.6565 71.2436 24.6565C71.654 24.6565 71.972 24.5745 72.1977 24.4103C72.4336 24.2462 72.5516 24.0359 72.5516 23.7794C72.5516 23.5025 72.408 23.2973 72.1207 23.1639C71.8437 23.0203 71.3975 22.8664 70.782 22.7023C70.146 22.5484 69.6228 22.3894 69.2124 22.2253C68.8124 22.0611 68.4636 21.8098 68.1661 21.4713C67.8788 21.1327 67.7352 20.6762 67.7352 20.1018C67.7352 19.6299 67.8686 19.199 68.1353 18.8092C68.4123 18.4194 68.8021 18.1116 69.3048 17.8859C69.8177 17.6602 70.4178 17.5474 71.1051 17.5474C72.1207 17.5474 72.9311 17.8039 73.5364 18.3168C74.1416 18.8195 74.475 19.5016 74.5366 20.3634H72.4746C72.4439 20.0248 72.3002 19.7581 72.0438 19.5632C71.7976 19.358 71.4642 19.2554 71.0436 19.2554C70.6538 19.2554 70.3511 19.3273 70.1357 19.4709C69.9305 19.6145 69.828 19.8145 69.828 20.071C69.828 20.3582 69.9716 20.5788 70.2588 20.7327C70.546 20.8763 70.9923 21.025 71.5975 21.1789C72.2131 21.3328 72.7208 21.4918 73.1209 21.6559C73.521 21.8201 73.8647 22.0765 74.1519 22.4253C74.4494 22.7638 74.6033 23.2152 74.6135 23.7794C74.6135 24.2718 74.475 24.713 74.1981 25.1028C73.9313 25.4926 73.5415 25.8004 73.0286 26.026C72.5259 26.2415 71.9361 26.3492 71.259 26.3492Z" fill="black"/>
<defs>
<clipPath id="clip0_745_169">
<rect width="11.8269" height="11.8269" fill="white" transform="translate(304.424 15.7662)"/>
</clipPath>
</defs>
</svg>
