<svg width="401" height="44" viewBox="0 0 401 44" fill="none" xmlns="http://www.w3.org/2000/svg">
<rect width="400" height="43.7207" transform="translate(0.311523)" fill="white"/>
<path d="M309.648 21.6796C310.11 21.6796 310.562 21.5425 310.947 21.2856C311.331 21.0286 311.631 20.6635 311.808 20.2362C311.985 19.809 312.031 19.3388 311.941 18.8853C311.851 18.4317 311.628 18.0151 311.301 17.6881C310.974 17.3611 310.557 17.1384 310.104 17.0482C309.65 16.9579 309.18 17.0042 308.753 17.1812C308.326 17.3582 307.961 17.6579 307.704 18.0424C307.447 18.4269 307.31 18.879 307.31 19.3414C307.31 19.9614 307.557 20.5557 307.995 20.9941C308.433 21.4325 309.028 21.679 309.648 21.6796ZM309.648 17.7826C309.956 17.7826 310.257 17.8741 310.514 18.0453C310.77 18.2166 310.97 18.4601 311.088 18.7449C311.206 19.0297 311.237 19.3432 311.177 19.6455C311.116 19.9479 310.968 20.2257 310.75 20.4437C310.532 20.6617 310.254 20.8101 309.952 20.8703C309.649 20.9304 309.336 20.8996 309.051 20.7816C308.766 20.6636 308.523 20.4638 308.352 20.2075C308.18 19.9511 308.089 19.6497 308.089 19.3414C308.089 18.928 308.253 18.5315 308.546 18.2392C308.838 17.9469 309.234 17.7826 309.648 17.7826Z" fill="black"/>
<path d="M309.648 22.459C308.718 22.4601 307.827 22.8299 307.169 23.4874C306.512 24.145 306.142 25.0365 306.141 25.9663C306.141 26.0697 306.182 26.1688 306.255 26.2419C306.328 26.315 306.427 26.356 306.53 26.356C306.634 26.356 306.733 26.315 306.806 26.2419C306.879 26.1688 306.92 26.0697 306.92 25.9663C306.92 25.2429 307.207 24.549 307.719 24.0374C308.231 23.5258 308.924 23.2384 309.648 23.2384C310.371 23.2384 311.065 23.5258 311.577 24.0374C312.088 24.549 312.376 25.2429 312.376 25.9663C312.376 26.0697 312.417 26.1688 312.49 26.2419C312.563 26.315 312.662 26.356 312.766 26.356C312.869 26.356 312.968 26.315 313.041 26.2419C313.114 26.1688 313.155 26.0697 313.155 25.9663C313.154 25.0365 312.784 24.145 312.127 23.4874C311.469 22.8299 310.578 22.4601 309.648 22.459Z" fill="black"/>
<path d="M331.792 25.2833C333.751 25.2833 335.34 23.6946 335.34 21.7348C335.34 19.775 333.751 18.1863 331.792 18.1863C329.832 18.1863 328.243 19.775 328.243 21.7348C328.243 23.6946 329.832 25.2833 331.792 25.2833Z" stroke="black" stroke-width="1.01386" stroke-linecap="round" stroke-linejoin="round"/>
<path d="M336.227 26.1704L334.298 24.2409" stroke="black" stroke-width="1.01386" stroke-linecap="round" stroke-linejoin="round"/>
<path d="M282.106 21.6796H293.933" stroke="black" stroke-width="1.57692" stroke-linecap="round" stroke-linejoin="round"/>
<path d="M282.106 17.9344H293.933" stroke="black" stroke-width="1.57692" stroke-linecap="round" stroke-linejoin="round"/>
<path d="M282.106 25.4249H293.933" stroke="black" stroke-width="1.57692" stroke-linecap="round" stroke-linejoin="round"/>
<path d="M60.9772 27.3852V29.5244H51.9969V27.3852H60.9772ZM60.7321 19.1402L52.9105 29.5244H51.1724V27.7974L58.9494 17.4689H60.7321V19.1402ZM59.6959 17.4689V19.6082H51.3061V17.4689H59.6959Z" fill="#111111"/>
<path d="M46.0249 26.6832V17.4689H48.7212V29.5244H46.1809L46.0249 26.6832ZM46.4037 24.1763L47.3062 24.154C47.3062 24.9637 47.217 25.7102 47.0388 26.3935C46.8605 27.0695 46.5857 27.66 46.2143 28.1651C45.8429 28.6628 45.3675 29.0527 44.7881 29.335C44.2087 29.6098 43.5142 29.7472 42.7046 29.7472C42.1178 29.7472 41.5793 29.6618 41.089 29.491C40.5988 29.3201 40.1754 29.0564 39.8189 28.6999C39.4698 28.3434 39.1986 27.8791 39.0055 27.3072C38.8124 26.7352 38.7158 26.0519 38.7158 25.2571V17.4689H41.401V25.2794C41.401 25.7176 41.453 26.0853 41.557 26.3824C41.661 26.6721 41.8021 26.9061 41.9804 27.0843C42.1586 27.2626 42.3666 27.3889 42.6043 27.4632C42.842 27.5374 43.0946 27.5746 43.362 27.5746C44.127 27.5746 44.7287 27.426 45.1669 27.1289C45.6126 26.8244 45.9283 26.4158 46.114 25.9033C46.3071 25.3908 46.4037 24.8151 46.4037 24.1763Z" fill="#111111"/>
<path d="M31.8528 29.7473C30.9615 29.7473 30.1556 29.6025 29.4351 29.3128C28.722 29.0156 28.1129 28.6034 27.6078 28.076C27.1101 27.5486 26.7276 26.9284 26.4602 26.2153C26.1928 25.5023 26.0591 24.7335 26.0591 23.909V23.4633C26.0591 22.52 26.1965 21.6658 26.4713 20.9007C26.7462 20.1356 27.1287 19.482 27.6189 18.9397C28.1092 18.3901 28.6886 17.9704 29.3571 17.6807C30.0256 17.391 30.7498 17.2462 31.5297 17.2462C32.3914 17.2462 33.1453 17.391 33.7915 17.6807C34.4377 17.9704 34.9726 18.3789 35.3959 18.9063C35.8268 19.4262 36.1462 20.0465 36.3541 20.767C36.5695 21.4875 36.6773 22.2823 36.6773 23.1513V24.2989H27.3627V22.3714H34.0255V22.1597C34.0106 21.6769 33.9141 21.2238 33.7358 20.8004C33.565 20.377 33.3013 20.0353 32.9447 19.7754C32.5882 19.5154 32.1128 19.3854 31.5186 19.3854C31.0729 19.3854 30.6755 19.482 30.3264 19.6751C29.9847 19.8608 29.6987 20.1319 29.4685 20.4884C29.2382 20.845 29.0599 21.2758 28.9337 21.7809C28.8148 22.2786 28.7554 22.8394 28.7554 23.4633V23.909C28.7554 24.4364 28.826 24.9266 28.9671 25.3797C29.1157 25.8254 29.3311 26.2153 29.6133 26.5496C29.8956 26.8838 30.2373 27.1475 30.6384 27.3407C31.0395 27.5264 31.4963 27.6192 32.0088 27.6192C32.655 27.6192 33.2307 27.4892 33.7358 27.2292C34.2409 26.9693 34.6791 26.6016 35.0505 26.1262L36.4656 27.4966C36.2056 27.8755 35.8676 28.2394 35.4516 28.5885C35.0357 28.9302 34.5269 29.2088 33.9252 29.4242C33.331 29.6396 32.6402 29.7473 31.8528 29.7473Z" fill="#111111"/>
<path d="M23.7105 15.5832V29.5244H21.3072L15.0547 19.5377V29.5244H12.6514V15.5832H15.0547L21.3263 25.5891V15.5832H23.7105Z" fill="#111111"/>
<path d="M84.3661 22.6652C84.3661 28.4933 79.6415 33.218 73.8134 33.218C67.9853 33.218 63.2607 28.4933 63.2607 22.6652C63.2607 16.8372 67.9853 12.1125 73.8134 12.1125C79.6415 12.1125 84.3661 16.8372 84.3661 22.6652Z" fill="#111111"/>
<path d="M71.683 28.2171C71.395 28.2171 71.1682 28.1405 71.0028 27.9873C70.8373 27.8341 70.7178 27.586 70.6443 27.2428C70.6198 27.0835 70.6045 26.9027 70.5983 26.7005C70.5922 26.4983 70.5922 26.2685 70.5983 26.0111C70.6045 25.7537 70.6198 25.4719 70.6443 25.1655C70.7178 23.946 70.966 22.9135 71.3888 22.0678C71.8117 21.216 72.3999 20.5695 73.1537 20.1283C73.9074 19.681 74.8051 19.4573 75.8469 19.4573C76.8947 19.4573 77.7925 19.6687 78.5401 20.0916C79.2877 20.5144 79.8606 21.164 80.2589 22.0402C80.6573 22.9165 80.8564 24.0349 80.8564 25.3953C80.8564 25.6404 80.8503 25.8671 80.838 26.0754C80.8319 26.2838 80.8196 26.4738 80.8013 26.6453C80.7829 26.8169 80.7553 26.9732 80.7185 27.1141C80.6266 27.5063 80.4887 27.7882 80.3049 27.9598C80.1272 28.1314 79.8943 28.2171 79.6063 28.2171C79.3122 28.2171 79.0885 28.1681 78.9353 28.0701C78.7821 27.972 78.6718 27.825 78.6044 27.6289C78.537 27.4328 78.4911 27.1907 78.4665 26.9027C78.4482 26.4431 78.4298 26.0387 78.4114 25.6894C78.3991 25.334 78.3777 25.0184 78.3471 24.7426C78.3225 24.4608 78.2919 24.2003 78.2551 23.9613C78.2184 23.7162 78.1724 23.4711 78.1173 23.226C77.9763 22.6009 77.7404 22.126 77.4095 21.8013C77.0786 21.4765 76.5853 21.3141 75.9296 21.3141C75.2984 21.3141 74.7898 21.4887 74.4038 21.838C74.0238 22.1873 73.7297 22.6683 73.5213 23.2811C73.4294 23.5385 73.3528 23.8081 73.2915 24.09C73.2303 24.3719 73.1782 24.663 73.1353 24.9632C73.0985 25.2635 73.0648 25.5791 73.0342 25.91C73.0097 26.2409 72.9852 26.5871 72.9606 26.9487C72.93 27.2918 72.8565 27.5553 72.74 27.7392C72.6236 27.923 72.4765 28.0486 72.2988 28.116C72.1211 28.1834 71.9158 28.2171 71.683 28.2171Z" fill="white"/>
<path d="M67.9558 28.1344C67.5513 28.1344 67.2511 27.9873 67.055 27.6932C66.865 27.3991 66.77 27.0191 66.77 26.5534C66.77 26.3573 66.77 26.0816 66.77 25.7261C66.77 25.3707 66.7731 24.9632 66.7792 24.5036C66.7853 24.044 66.7915 23.5569 66.7976 23.0421C66.8099 22.5274 66.8221 22.0096 66.8344 21.4887C66.8527 20.9678 66.8742 20.4715 66.8987 19.9996C66.9232 19.5278 66.9508 19.108 66.9814 18.7404C67.0488 18.146 67.1683 17.7262 67.3399 17.4811C67.5115 17.236 67.7903 17.1134 68.1764 17.1134C68.5011 17.1134 68.7371 17.239 68.8841 17.4903C69.0312 17.7354 69.1262 18.0724 69.1691 18.5014C69.1813 18.7649 69.1936 19.0958 69.2059 19.4941C69.2181 19.8924 69.2273 20.3275 69.2334 20.7993C69.2396 21.2712 69.2426 21.7553 69.2426 22.2516C69.2487 22.7419 69.2518 23.2168 69.2518 23.6764C69.2518 24.1298 69.2518 24.5435 69.2518 24.9173C69.2518 25.2849 69.2487 25.5791 69.2426 25.7997C69.2426 26.3818 69.2028 26.8445 69.1231 27.1876C69.0435 27.5247 68.9117 27.7667 68.7279 27.9138C68.5502 28.0609 68.2928 28.1344 67.9558 28.1344Z" fill="white"/>
<rect x="301.184" y="13.8649" width="16.9288" height="15.991" rx="2.7" stroke="black" stroke-width="0.6"/>
<rect x="323.237" y="13.8649" width="16.9288" height="15.991" rx="2.7" stroke="black" stroke-width="0.6"/>
<rect x="344.083" y="13.8649" width="44.8561" height="14.7422" rx="7.37109" fill="#F0F3F8" stroke="black" stroke-width="0.6"/>
<path d="M352.944 20.7509C352.903 20.6217 352.847 20.5059 352.778 20.4036C352.709 20.2999 352.628 20.2119 352.533 20.1394C352.437 20.0656 352.329 20.0095 352.207 19.9711C352.086 19.9328 351.953 19.9136 351.808 19.9136C351.562 19.9136 351.341 19.9768 351.143 20.1032C350.946 20.2296 350.79 20.415 350.675 20.6593C350.561 20.9022 350.504 21.1998 350.504 21.5521C350.504 21.9058 350.562 22.2048 350.677 22.4491C350.792 22.6934 350.949 22.8788 351.15 23.0052C351.35 23.1316 351.578 23.1948 351.834 23.1948C352.071 23.1948 352.278 23.1465 352.454 23.0499C352.631 22.9534 352.768 22.817 352.865 22.6409C352.963 22.4633 353.012 22.2545 353.012 22.0144L353.182 22.0464H351.934V21.5031H353.649V21.9995C353.649 22.366 353.571 22.6842 353.415 22.9541C353.26 23.2225 353.045 23.4299 352.771 23.5762C352.498 23.7225 352.186 23.7957 351.834 23.7957C351.439 23.7957 351.092 23.7048 350.794 23.523C350.497 23.3411 350.265 23.0833 350.099 22.7495C349.933 22.4143 349.85 22.0166 349.85 21.5563C349.85 21.2083 349.898 20.8958 349.995 20.6188C350.091 20.3418 350.227 20.1068 350.402 19.9136C350.578 19.719 350.785 19.5705 351.022 19.4683C351.261 19.3646 351.521 19.3127 351.804 19.3127C352.04 19.3127 352.259 19.3475 352.462 19.4171C352.667 19.4867 352.849 19.5855 353.008 19.7133C353.168 19.8411 353.301 19.9931 353.406 20.1693C353.511 20.344 353.582 20.5379 353.619 20.7509H352.944ZM355.844 23.8021C355.522 23.8021 355.244 23.7332 355.011 23.5954C354.78 23.4562 354.601 23.2609 354.474 23.0095C354.349 22.7566 354.287 22.4605 354.287 22.121C354.287 21.7857 354.349 21.4903 354.474 21.2346C354.601 20.9789 354.777 20.7793 355.003 20.6359C355.23 20.4924 355.495 20.4207 355.799 20.4207C355.984 20.4207 356.163 20.4512 356.336 20.5123C356.51 20.5734 356.665 20.6693 356.803 20.7999C356.941 20.9306 357.049 21.1004 357.129 21.3092C357.208 21.5166 357.248 21.7687 357.248 22.0656V22.2914H354.647V21.8141H356.624C356.624 21.6465 356.59 21.4981 356.522 21.3688C356.454 21.2382 356.358 21.1352 356.234 21.0599C356.112 20.9846 355.968 20.947 355.804 20.947C355.625 20.947 355.468 20.991 355.335 21.0791C355.203 21.1657 355.101 21.2793 355.028 21.42C354.957 21.5592 354.922 21.7105 354.922 21.8738V22.2467C354.922 22.4654 354.96 22.6515 355.037 22.8049C355.115 22.9583 355.223 23.0755 355.363 23.1565C355.502 23.236 355.664 23.2758 355.851 23.2758C355.971 23.2758 356.081 23.2588 356.181 23.2247C356.28 23.1891 356.366 23.1366 356.439 23.067C356.511 22.9974 356.566 22.9114 356.605 22.8092L357.208 22.9178C357.159 23.0954 357.073 23.2509 356.948 23.3845C356.824 23.5166 356.669 23.6195 356.481 23.6934C356.295 23.7659 356.083 23.8021 355.844 23.8021ZM359.483 20.4633V20.9747H357.695V20.4633H359.483ZM358.175 19.6792H358.812V22.7751C358.812 22.8987 358.83 22.9917 358.867 23.0542C358.904 23.1153 358.952 23.1572 359.01 23.1799C359.069 23.2012 359.134 23.2119 359.204 23.2119C359.255 23.2119 359.3 23.2083 359.338 23.2012C359.376 23.1941 359.406 23.1884 359.427 23.1842L359.542 23.7105C359.506 23.7247 359.453 23.7389 359.385 23.7531C359.317 23.7687 359.231 23.7772 359.129 23.7786C358.962 23.7815 358.805 23.7516 358.66 23.6891C358.515 23.6266 358.398 23.5301 358.309 23.3994C358.219 23.2687 358.175 23.1046 358.175 22.9072V19.6792ZM364.207 20.5187C364.184 20.317 364.09 20.1607 363.925 20.0499C363.761 19.9377 363.553 19.8816 363.303 19.8816C363.124 19.8816 362.969 19.91 362.839 19.9668C362.708 20.0222 362.606 20.0989 362.534 20.197C362.463 20.2936 362.427 20.4036 362.427 20.5272C362.427 20.6309 362.452 20.7204 362.5 20.7957C362.55 20.871 362.614 20.9342 362.694 20.9853C362.775 21.035 362.861 21.0769 362.954 21.111C363.046 21.1437 363.135 21.1707 363.22 21.192L363.646 21.3028C363.785 21.3369 363.928 21.383 364.074 21.4413C364.221 21.4995 364.356 21.5762 364.481 21.6714C364.606 21.7666 364.707 21.8845 364.784 22.0251C364.862 22.1657 364.901 22.334 364.901 22.5301C364.901 22.7772 364.837 22.9967 364.709 23.1884C364.583 23.3802 364.399 23.5315 364.158 23.6423C363.917 23.7531 363.627 23.8085 363.286 23.8085C362.959 23.8085 362.677 23.7566 362.438 23.6529C362.199 23.5492 362.013 23.4022 361.878 23.2119C361.743 23.0201 361.668 22.7928 361.654 22.5301H362.314C362.327 22.6877 362.378 22.8191 362.468 22.9242C362.559 23.0279 362.675 23.1053 362.815 23.1565C362.957 23.2062 363.113 23.2311 363.282 23.2311C363.468 23.2311 363.633 23.2019 363.778 23.1437C363.925 23.084 364.04 23.0016 364.123 22.8965C364.207 22.79 364.249 22.6657 364.249 22.5237C364.249 22.3944 364.212 22.2886 364.138 22.2062C364.066 22.1238 363.967 22.0556 363.842 22.0016C363.719 21.9477 363.579 21.9001 363.422 21.8589L362.907 21.7183C362.557 21.6231 362.28 21.4832 362.076 21.2985C361.873 21.1139 361.771 20.8695 361.771 20.5656C361.771 20.3141 361.839 20.0947 361.976 19.9072C362.112 19.7197 362.297 19.5741 362.53 19.4704C362.763 19.3653 363.025 19.3127 363.318 19.3127C363.614 19.3127 363.874 19.3646 364.1 19.4683C364.327 19.572 364.506 19.7147 364.637 19.8965C364.768 20.0769 364.836 20.2843 364.841 20.5187H364.207ZM367.164 20.4633V20.9747H365.377V20.4633H367.164ZM365.856 19.6792H366.493V22.7751C366.493 22.8987 366.512 22.9917 366.549 23.0542C366.586 23.1153 366.633 23.1572 366.691 23.1799C366.751 23.2012 366.816 23.2119 366.885 23.2119C366.936 23.2119 366.981 23.2083 367.02 23.2012C367.058 23.1941 367.088 23.1884 367.109 23.1842L367.224 23.7105C367.187 23.7247 367.135 23.7389 367.066 23.7531C366.998 23.7687 366.913 23.7772 366.811 23.7786C366.643 23.7815 366.487 23.7516 366.342 23.6891C366.197 23.6266 366.08 23.5301 365.99 23.3994C365.901 23.2687 365.856 23.1046 365.856 22.9072V19.6792ZM368.822 23.8085C368.614 23.8085 368.427 23.7701 368.259 23.6934C368.091 23.6153 367.959 23.5024 367.861 23.3546C367.764 23.2069 367.716 23.0258 367.716 22.8113C367.716 22.6266 367.751 22.4747 367.822 22.3553C367.893 22.236 367.989 22.1416 368.11 22.072C368.231 22.0024 368.366 21.9498 368.515 21.9143C368.664 21.8788 368.816 21.8518 368.971 21.8333C369.167 21.8106 369.326 21.7921 369.448 21.7779C369.57 21.7623 369.659 21.7374 369.714 21.7034C369.77 21.6693 369.797 21.6139 369.797 21.5372V21.5222C369.797 21.3362 369.745 21.192 369.64 21.0897C369.536 20.9874 369.381 20.9363 369.175 20.9363C368.961 20.9363 368.792 20.9839 368.668 21.0791C368.546 21.1728 368.462 21.2772 368.415 21.3923L367.816 21.2559C367.887 21.057 367.991 20.8965 368.127 20.7744C368.265 20.6508 368.423 20.5613 368.602 20.5059C368.781 20.4491 368.969 20.4207 369.167 20.4207C369.297 20.4207 369.436 20.4363 369.582 20.4676C369.73 20.4974 369.868 20.5528 369.996 20.6337C370.125 20.7147 370.231 20.8305 370.313 20.9811C370.395 21.1302 370.437 21.3241 370.437 21.5627V23.736H369.814V23.2886H369.789C369.748 23.371 369.686 23.4519 369.604 23.5315C369.521 23.611 369.415 23.6771 369.286 23.7296C369.157 23.7822 369.002 23.8085 368.822 23.8085ZM368.96 23.2971C369.136 23.2971 369.287 23.2623 369.412 23.1927C369.538 23.1231 369.634 23.0322 369.699 22.92C369.766 22.8063 369.8 22.6849 369.8 22.5556V22.1338C369.777 22.1565 369.733 22.1778 369.667 22.1977C369.604 22.2161 369.53 22.2325 369.448 22.2467C369.366 22.2595 369.285 22.2715 369.207 22.2829C369.129 22.2928 369.064 22.3014 369.011 22.3085C368.888 22.3241 368.775 22.3504 368.672 22.3873C368.572 22.4242 368.491 22.4775 368.43 22.5471C368.37 22.6153 368.34 22.7062 368.34 22.8198C368.34 22.9775 368.398 23.0968 368.515 23.1778C368.631 23.2573 368.78 23.2971 368.96 23.2971ZM371.285 23.736V20.4633H371.901V20.9832H371.935C371.995 20.807 372.1 20.6686 372.25 20.5677C372.402 20.4654 372.574 20.4143 372.766 20.4143C372.806 20.4143 372.853 20.4157 372.907 20.4186C372.962 20.4214 373.005 20.4249 373.037 20.4292V21.0386C373.011 21.0315 372.966 21.0237 372.9 21.0151C372.835 21.0052 372.77 21.0002 372.704 21.0002C372.554 21.0002 372.419 21.0322 372.302 21.0961C372.185 21.1586 372.093 21.246 372.025 21.3582C371.956 21.469 371.922 21.5954 371.922 21.7374V23.736H371.285ZM375.309 20.4633V20.9747H373.521V20.4633H375.309ZM374.001 19.6792H374.638V22.7751C374.638 22.8987 374.656 22.9917 374.693 23.0542C374.73 23.1153 374.778 23.1572 374.836 23.1799C374.896 23.2012 374.96 23.2119 375.03 23.2119C375.081 23.2119 375.126 23.2083 375.164 23.2012C375.202 23.1941 375.232 23.1884 375.254 23.1842L375.369 23.7105C375.332 23.7247 375.279 23.7389 375.211 23.7531C375.143 23.7687 375.058 23.7772 374.955 23.7786C374.788 23.7815 374.631 23.7516 374.487 23.6891C374.342 23.6266 374.224 23.5301 374.135 23.3994C374.045 23.2687 374.001 23.1046 374.001 22.9072V19.6792ZM377.389 23.8021C377.067 23.8021 376.789 23.7332 376.556 23.5954C376.324 23.4562 376.145 23.2609 376.019 23.0095C375.894 22.7566 375.832 22.4605 375.832 22.121C375.832 21.7857 375.894 21.4903 376.019 21.2346C376.145 20.9789 376.322 20.7793 376.547 20.6359C376.775 20.4924 377.04 20.4207 377.344 20.4207C377.529 20.4207 377.708 20.4512 377.881 20.5123C378.055 20.5734 378.21 20.6693 378.348 20.7999C378.486 20.9306 378.594 21.1004 378.674 21.3092C378.753 21.5166 378.793 21.7687 378.793 22.0656V22.2914H376.192V21.8141H378.169C378.169 21.6465 378.135 21.4981 378.067 21.3688C377.998 21.2382 377.903 21.1352 377.779 21.0599C377.657 20.9846 377.513 20.947 377.349 20.947C377.17 20.947 377.013 20.991 376.88 21.0791C376.748 21.1657 376.645 21.2793 376.573 21.42C376.502 21.5592 376.466 21.7105 376.466 21.8738V22.2467C376.466 22.4654 376.505 22.6515 376.582 22.8049C376.66 22.9583 376.768 23.0755 376.908 23.1565C377.047 23.236 377.209 23.2758 377.395 23.2758C377.516 23.2758 377.626 23.2588 377.726 23.2247C377.825 23.1891 377.911 23.1366 377.984 23.067C378.056 22.9974 378.111 22.9114 378.15 22.8092L378.753 22.9178C378.704 23.0954 378.618 23.2509 378.493 23.3845C378.369 23.5166 378.214 23.6195 378.026 23.6934C377.84 23.7659 377.628 23.8021 377.389 23.8021ZM380.725 23.7999C380.461 23.7999 380.225 23.7325 380.018 23.5975C379.812 23.4612 379.65 23.2673 379.532 23.0159C379.416 22.763 379.357 22.4597 379.357 22.1061C379.357 21.7524 379.416 21.4498 379.534 21.1984C379.653 20.947 379.817 20.7545 380.024 20.621C380.232 20.4874 380.467 20.4207 380.729 20.4207C380.933 20.4207 381.096 20.4548 381.22 20.523C381.345 20.5897 381.441 20.6678 381.509 20.7573C381.579 20.8468 381.633 20.9257 381.671 20.9938H381.71V19.3724H382.347V23.736H381.724V23.2268H381.671C381.633 23.2964 381.577 23.3759 381.505 23.4654C381.434 23.5549 381.336 23.633 381.211 23.6998C381.086 23.7666 380.924 23.7999 380.725 23.7999ZM380.866 23.2566C381.049 23.2566 381.204 23.2083 381.33 23.1117C381.458 23.0137 381.555 22.8781 381.62 22.7048C381.687 22.5315 381.72 22.3298 381.72 22.0997C381.72 21.8724 381.688 21.6735 381.622 21.5031C381.557 21.3326 381.461 21.1998 381.335 21.1046C381.208 21.0095 381.052 20.9619 380.866 20.9619C380.674 20.9619 380.514 21.0116 380.386 21.111C380.259 21.2105 380.162 21.3461 380.097 21.518C380.033 21.6899 380.001 21.8838 380.001 22.0997C380.001 22.3184 380.033 22.5151 380.099 22.6899C380.164 22.8646 380.261 23.0031 380.389 23.1053C380.518 23.2062 380.677 23.2566 380.866 23.2566Z" fill="black"/>
<path d="M132.495 22.0304C132.447 21.9821 132.39 21.9438 132.327 21.9176C132.264 21.8915 132.197 21.878 132.129 21.878C132.061 21.878 131.994 21.8915 131.931 21.9176C131.868 21.9438 131.811 21.9821 131.763 22.0304L129.404 24.3894C129.356 24.4377 129.299 24.476 129.237 24.5022C129.174 24.5283 129.107 24.5418 129.039 24.5418C128.971 24.5418 128.903 24.5283 128.84 24.5022C128.778 24.476 128.721 24.4377 128.673 24.3894L126.314 22.0304C126.266 21.9821 126.209 21.9438 126.146 21.9176C126.083 21.8915 126.016 21.878 125.948 21.878C125.88 21.878 125.813 21.8915 125.75 21.9176C125.687 21.9438 125.63 21.9821 125.582 22.0304C125.486 22.1269 125.433 22.2574 125.433 22.3935C125.433 22.5296 125.486 22.6601 125.582 22.7566L127.947 25.1208C128.236 25.4102 128.629 25.5727 129.039 25.5727C129.448 25.5727 129.841 25.4102 130.131 25.1208L132.495 22.7566C132.591 22.6601 132.645 22.5296 132.645 22.3935C132.645 22.2574 132.591 22.1269 132.495 22.0304Z" fill="#535353"/>
<path d="M101.541 23.5902V22.8272H105.034V23.5902H101.541ZM104.502 20.9372H105.328V25.8372H104.502V20.9372ZM101.212 20.9372H102.038V25.8372H101.212V20.9372ZM107.016 23.3872C107.016 23.7232 107.086 24.0242 107.226 24.2902C107.371 24.5516 107.569 24.7569 107.821 24.9062C108.073 25.0556 108.36 25.1302 108.682 25.1302C109.009 25.1302 109.296 25.0556 109.543 24.9062C109.795 24.7569 109.991 24.5516 110.131 24.2902C110.276 24.0242 110.348 23.7232 110.348 23.3872C110.348 23.0512 110.278 22.7526 110.138 22.4912C109.998 22.2252 109.802 22.0176 109.55 21.8682C109.303 21.7189 109.013 21.6442 108.682 21.6442C108.36 21.6442 108.073 21.7189 107.821 21.8682C107.569 22.0176 107.371 22.2252 107.226 22.4912C107.086 22.7526 107.016 23.0512 107.016 23.3872ZM106.141 23.3872C106.141 23.0186 106.204 22.6802 106.33 22.3722C106.456 22.0642 106.633 21.7982 106.862 21.5742C107.095 21.3456 107.366 21.1682 107.674 21.0422C107.987 20.9162 108.323 20.8532 108.682 20.8532C109.051 20.8532 109.389 20.9162 109.697 21.0422C110.005 21.1682 110.273 21.3456 110.502 21.5742C110.735 21.7982 110.915 22.0642 111.041 22.3722C111.167 22.6802 111.23 23.0186 111.23 23.3872C111.23 23.7512 111.167 24.0896 111.041 24.4022C110.915 24.7149 110.738 24.9856 110.509 25.2142C110.28 25.4429 110.01 25.6226 109.697 25.7532C109.389 25.8792 109.051 25.9422 108.682 25.9422C108.318 25.9422 107.98 25.8792 107.667 25.7532C107.354 25.6226 107.084 25.4429 106.855 25.2142C106.631 24.9856 106.456 24.7149 106.33 24.4022C106.204 24.0896 106.141 23.7512 106.141 23.3872ZM112.943 22.8552L112.607 25.8372H111.753L112.425 20.6922L114.434 24.0172L116.45 20.6922L117.122 25.8372H116.268L115.925 22.8552L114.434 25.3822L112.943 22.8552ZM118.437 25.8372V25.1092H120.908V25.8372H118.437ZM118.437 21.6652V20.9372H120.908V21.6652H118.437ZM118.437 23.5692V22.8552H120.768V23.5692H118.437ZM117.926 20.9372H118.738V25.8372H117.926V20.9372Z" fill="black"/>
<path d="M182.189 22.0304C182.141 21.9821 182.084 21.9438 182.021 21.9176C181.959 21.8915 181.891 21.878 181.823 21.878C181.755 21.878 181.688 21.8915 181.625 21.9176C181.563 21.9438 181.506 21.9821 181.458 22.0304L179.099 24.3894C179.051 24.4377 178.994 24.476 178.931 24.5022C178.868 24.5283 178.801 24.5418 178.733 24.5418C178.665 24.5418 178.598 24.5283 178.535 24.5022C178.472 24.476 178.415 24.4377 178.367 24.3894L176.008 22.0304C175.96 21.9821 175.903 21.9438 175.841 21.9176C175.778 21.8915 175.71 21.878 175.642 21.878C175.574 21.878 175.507 21.8915 175.444 21.9176C175.382 21.9438 175.325 21.9821 175.277 22.0304C175.181 22.1269 175.127 22.2574 175.127 22.3935C175.127 22.5296 175.181 22.6601 175.277 22.7566L177.641 25.1208C177.931 25.4102 178.323 25.5727 178.733 25.5727C179.142 25.5727 179.535 25.4102 179.825 25.1208L182.189 22.7566C182.285 22.6601 182.339 22.5296 182.339 22.3935C182.339 22.2574 182.285 22.1269 182.189 22.0304Z" fill="#535353"/>
<path d="M150.494 24.5772L150.648 23.8772H152.923L153.084 24.5772H150.494ZM151.775 22.3232L151.005 24.1222L150.991 24.3042L150.312 25.8372H149.381L151.775 20.6642L154.169 25.8372H153.238L152.573 24.3462L152.552 24.1432L151.775 22.3232ZM155.369 23.3102V22.9042H156.16C156.314 22.9042 156.45 22.8786 156.566 22.8272C156.683 22.7759 156.774 22.7036 156.839 22.6102C156.905 22.5122 156.937 22.3956 156.937 22.2602C156.937 22.0549 156.865 21.8962 156.72 21.7842C156.576 21.6722 156.389 21.6162 156.16 21.6162H155.565V25.1582H156.251C156.438 25.1582 156.604 25.1279 156.748 25.0672C156.893 25.0066 157.007 24.9156 157.091 24.7942C157.175 24.6729 157.217 24.5212 157.217 24.3392C157.217 24.2086 157.192 24.0942 157.14 23.9962C157.094 23.8936 157.026 23.8096 156.937 23.7442C156.853 23.6742 156.753 23.6252 156.636 23.5972C156.52 23.5646 156.391 23.5482 156.251 23.5482H155.369V23.0932H156.3C156.538 23.0932 156.762 23.1189 156.972 23.1702C157.182 23.2216 157.369 23.3009 157.532 23.4082C157.7 23.5156 157.831 23.6532 157.924 23.8212C158.018 23.9892 158.064 24.1899 158.064 24.4232C158.064 24.7452 157.987 25.0112 157.833 25.2212C157.684 25.4312 157.476 25.5876 157.21 25.6902C156.949 25.7882 156.646 25.8372 156.3 25.8372H154.739V20.9372H156.216C156.524 20.9372 156.795 20.9816 157.028 21.0702C157.266 21.1589 157.451 21.2942 157.581 21.4762C157.717 21.6582 157.784 21.8892 157.784 22.1692C157.784 22.4119 157.717 22.6196 157.581 22.7922C157.451 22.9602 157.266 23.0886 157.028 23.1772C156.795 23.2659 156.524 23.3102 156.216 23.3102H155.369ZM159.532 23.3872C159.532 23.7232 159.602 24.0242 159.742 24.2902C159.886 24.5516 160.085 24.7569 160.337 24.9062C160.589 25.0556 160.876 25.1302 161.198 25.1302C161.524 25.1302 161.811 25.0556 162.059 24.9062C162.311 24.7569 162.507 24.5516 162.647 24.2902C162.791 24.0242 162.864 23.7232 162.864 23.3872C162.864 23.0512 162.794 22.7526 162.654 22.4912C162.514 22.2252 162.318 22.0176 162.066 21.8682C161.818 21.7189 161.529 21.6442 161.198 21.6442C160.876 21.6442 160.589 21.7189 160.337 21.8682C160.085 22.0176 159.886 22.2252 159.742 22.4912C159.602 22.7526 159.532 23.0512 159.532 23.3872ZM158.657 23.3872C158.657 23.0186 158.72 22.6802 158.846 22.3722C158.972 22.0642 159.149 21.7982 159.378 21.5742C159.611 21.3456 159.882 21.1682 160.19 21.0422C160.502 20.9162 160.838 20.8532 161.198 20.8532C161.566 20.8532 161.905 20.9162 162.213 21.0422C162.521 21.1682 162.789 21.3456 163.018 21.5742C163.251 21.7982 163.431 22.0642 163.557 22.3722C163.683 22.6802 163.746 23.0186 163.746 23.3872C163.746 23.7512 163.683 24.0896 163.557 24.4022C163.431 24.7149 163.253 24.9856 163.025 25.2142C162.796 25.4429 162.525 25.6226 162.213 25.7532C161.905 25.8792 161.566 25.9422 161.198 25.9422C160.834 25.9422 160.495 25.8792 160.183 25.7532C159.87 25.6226 159.599 25.4429 159.371 25.2142C159.147 24.9856 158.972 24.7149 158.846 24.4022C158.72 24.0896 158.657 23.7512 158.657 23.3872ZM164.514 20.9372H165.34V24.1922C165.34 24.4956 165.419 24.7406 165.578 24.9272C165.741 25.1092 165.982 25.2002 166.299 25.2002C166.612 25.2002 166.85 25.1092 167.013 24.9272C167.176 24.7406 167.258 24.4956 167.258 24.1922V20.9372H168.084V24.2272C168.084 24.4979 168.04 24.7406 167.951 24.9552C167.867 25.1652 167.746 25.3449 167.587 25.4942C167.428 25.6436 167.239 25.7579 167.02 25.8372C166.801 25.9166 166.56 25.9562 166.299 25.9562C166.038 25.9562 165.797 25.9166 165.578 25.8372C165.359 25.7579 165.167 25.6436 165.004 25.4942C164.845 25.3449 164.724 25.1652 164.64 24.9552C164.556 24.7406 164.514 24.4979 164.514 24.2272V20.9372ZM168.653 21.7002V20.9372H172.069V21.7002H170.774V25.8372H169.941V21.7002H168.653Z" fill="black"/>
</svg>
