<svg width="401" height="44" viewBox="0 0 401 44" fill="none" xmlns="http://www.w3.org/2000/svg">
<rect width="400" height="43.7207" transform="translate(0.311523)" fill="white"/>
<g clip-path="url(#clip0_560_330)">
<path d="M308.648 21.6797C309.232 21.6797 309.804 21.5063 310.29 21.1814C310.777 20.8565 311.156 20.3947 311.379 19.8545C311.603 19.3142 311.662 18.7197 311.548 18.1461C311.433 17.5726 311.152 17.0457 310.738 16.6322C310.325 16.2187 309.798 15.9371 309.224 15.823C308.651 15.709 308.056 15.7675 307.516 15.9913C306.976 16.2151 306.514 16.5941 306.189 17.0803C305.864 17.5665 305.691 18.1382 305.691 18.723C305.692 19.5069 306.003 20.2585 306.558 20.8128C307.112 21.3671 307.864 21.6789 308.648 21.6797ZM308.648 16.7518C309.037 16.7518 309.419 16.8674 309.743 17.084C310.067 17.3006 310.32 17.6085 310.469 17.9686C310.618 18.3288 310.657 18.7251 310.581 19.1075C310.505 19.4899 310.317 19.8411 310.041 20.1168C309.766 20.3924 309.415 20.5802 309.032 20.6562C308.65 20.7323 308.253 20.6933 307.893 20.5441C307.533 20.3949 307.225 20.1422 307.009 19.8181C306.792 19.4939 306.676 19.1128 306.676 18.723C306.676 18.2002 306.884 17.6988 307.254 17.3291C307.623 16.9595 308.125 16.7518 308.648 16.7518Z" fill="black"/>
<path d="M308.648 22.6653C307.472 22.6666 306.345 23.1343 305.513 23.9657C304.682 24.7972 304.214 25.9245 304.213 27.1004C304.213 27.2311 304.265 27.3564 304.357 27.4488C304.45 27.5412 304.575 27.5932 304.706 27.5932C304.836 27.5932 304.962 27.5412 305.054 27.4488C305.147 27.3564 305.198 27.2311 305.198 27.1004C305.198 26.1855 305.562 25.3081 306.209 24.6612C306.856 24.0143 307.733 23.6509 308.648 23.6509C309.563 23.6509 310.44 24.0143 311.087 24.6612C311.734 25.3081 312.097 26.1855 312.097 27.1004C312.097 27.2311 312.149 27.3564 312.242 27.4488C312.334 27.5412 312.46 27.5932 312.59 27.5932C312.721 27.5932 312.846 27.5412 312.939 27.4488C313.031 27.3564 313.083 27.2311 313.083 27.1004C313.082 25.9245 312.614 24.7972 311.783 23.9657C310.951 23.1343 309.824 22.6666 308.648 22.6653Z" fill="black"/>
</g>
<path d="M328.269 25.9188C330.63 25.9188 332.544 24.0049 332.544 21.6441C332.544 19.2832 330.63 17.3693 328.269 17.3693C325.908 17.3693 323.994 19.2832 323.994 21.6441C323.994 24.0049 325.908 25.9188 328.269 25.9188Z" stroke="black" stroke-width="1.22135" stroke-linecap="round" stroke-linejoin="round"/>
<path d="M333.612 26.9875L331.288 24.6631" stroke="black" stroke-width="1.22135" stroke-linecap="round" stroke-linejoin="round"/>
<path d="M281.106 21.6797H292.933" stroke="black" stroke-width="1.57692" stroke-linecap="round" stroke-linejoin="round"/>
<path d="M281.106 17.9345H292.933" stroke="black" stroke-width="1.57692" stroke-linecap="round" stroke-linejoin="round"/>
<path d="M281.106 25.4249H292.933" stroke="black" stroke-width="1.57692" stroke-linecap="round" stroke-linejoin="round"/>
<line x1="318.165" y1="15.699" x2="318.165" y2="28.2645" stroke="#D5D5D5" stroke-width="0.78846"/>
<line x1="299.01" y1="15.699" x2="299.01" y2="28.2645" stroke="#D5D5D5" stroke-width="0.78846"/>
<path d="M60.9772 27.3852V29.5244H51.9969V27.3852H60.9772ZM60.7321 19.1402L52.9105 29.5244H51.1724V27.7974L58.9494 17.4689H60.7321V19.1402ZM59.6959 17.4689V19.6082H51.3061V17.4689H59.6959Z" fill="#111111"/>
<path d="M46.0249 26.6832V17.4689H48.7212V29.5244H46.1809L46.0249 26.6832ZM46.4037 24.1763L47.3062 24.154C47.3062 24.9637 47.217 25.7102 47.0388 26.3935C46.8605 27.0695 46.5857 27.66 46.2143 28.1651C45.8429 28.6628 45.3675 29.0527 44.7881 29.335C44.2087 29.6098 43.5142 29.7472 42.7046 29.7472C42.1178 29.7472 41.5793 29.6618 41.089 29.491C40.5988 29.3201 40.1754 29.0564 39.8189 28.6999C39.4698 28.3434 39.1986 27.8791 39.0055 27.3072C38.8124 26.7352 38.7158 26.0519 38.7158 25.2571V17.4689H41.401V25.2794C41.401 25.7176 41.453 26.0853 41.557 26.3824C41.661 26.6721 41.8021 26.9061 41.9804 27.0843C42.1586 27.2626 42.3666 27.3889 42.6043 27.4632C42.842 27.5374 43.0946 27.5746 43.362 27.5746C44.127 27.5746 44.7287 27.426 45.1669 27.1289C45.6126 26.8244 45.9283 26.4158 46.114 25.9033C46.3071 25.3908 46.4037 24.8151 46.4037 24.1763Z" fill="#111111"/>
<path d="M31.8528 29.7473C30.9615 29.7473 30.1556 29.6025 29.4351 29.3128C28.722 29.0156 28.1129 28.6034 27.6078 28.076C27.1101 27.5486 26.7276 26.9284 26.4602 26.2153C26.1928 25.5023 26.0591 24.7335 26.0591 23.909V23.4633C26.0591 22.52 26.1965 21.6658 26.4713 20.9007C26.7462 20.1356 27.1287 19.482 27.6189 18.9397C28.1092 18.3901 28.6886 17.9704 29.3571 17.6807C30.0256 17.391 30.7498 17.2462 31.5297 17.2462C32.3914 17.2462 33.1453 17.391 33.7915 17.6807C34.4377 17.9704 34.9726 18.3789 35.3959 18.9063C35.8268 19.4262 36.1462 20.0465 36.3541 20.767C36.5695 21.4875 36.6773 22.2823 36.6773 23.1513V24.2989H27.3627V22.3714H34.0255V22.1597C34.0106 21.6769 33.9141 21.2238 33.7358 20.8004C33.565 20.377 33.3013 20.0353 32.9447 19.7754C32.5882 19.5154 32.1128 19.3854 31.5186 19.3854C31.0729 19.3854 30.6755 19.482 30.3264 19.6751C29.9847 19.8608 29.6987 20.1319 29.4685 20.4884C29.2382 20.845 29.0599 21.2758 28.9337 21.7809C28.8148 22.2786 28.7554 22.8394 28.7554 23.4633V23.909C28.7554 24.4364 28.826 24.9266 28.9671 25.3797C29.1157 25.8254 29.3311 26.2153 29.6133 26.5496C29.8956 26.8838 30.2373 27.1475 30.6384 27.3407C31.0395 27.5264 31.4963 27.6192 32.0088 27.6192C32.655 27.6192 33.2307 27.4892 33.7358 27.2292C34.2409 26.9693 34.6791 26.6016 35.0505 26.1262L36.4656 27.4966C36.2056 27.8755 35.8676 28.2394 35.4516 28.5885C35.0357 28.9302 34.5269 29.2088 33.9252 29.4242C33.331 29.6396 32.6402 29.7473 31.8528 29.7473Z" fill="#111111"/>
<path d="M23.7105 15.5832V29.5244H21.3072L15.0547 19.5377V29.5244H12.6514V15.5832H15.0547L21.3263 25.5891V15.5832H23.7105Z" fill="#111111"/>
<path d="M84.3661 22.6652C84.3661 28.4933 79.6415 33.218 73.8134 33.218C67.9853 33.218 63.2607 28.4933 63.2607 22.6652C63.2607 16.8372 67.9853 12.1125 73.8134 12.1125C79.6415 12.1125 84.3661 16.8372 84.3661 22.6652Z" fill="#111111"/>
<path d="M71.683 28.2171C71.395 28.2171 71.1682 28.1405 71.0028 27.9873C70.8373 27.8341 70.7178 27.586 70.6443 27.2428C70.6198 27.0835 70.6045 26.9027 70.5983 26.7005C70.5922 26.4983 70.5922 26.2685 70.5983 26.0111C70.6045 25.7537 70.6198 25.4719 70.6443 25.1655C70.7178 23.946 70.966 22.9135 71.3888 22.0678C71.8117 21.216 72.3999 20.5695 73.1537 20.1283C73.9074 19.681 74.8051 19.4573 75.8469 19.4573C76.8947 19.4573 77.7925 19.6687 78.5401 20.0916C79.2877 20.5144 79.8606 21.164 80.2589 22.0402C80.6573 22.9165 80.8564 24.0349 80.8564 25.3953C80.8564 25.6404 80.8503 25.8671 80.838 26.0754C80.8319 26.2838 80.8196 26.4738 80.8013 26.6453C80.7829 26.8169 80.7553 26.9732 80.7185 27.1141C80.6266 27.5063 80.4887 27.7882 80.3049 27.9598C80.1272 28.1314 79.8943 28.2171 79.6063 28.2171C79.3122 28.2171 79.0885 28.1681 78.9353 28.0701C78.7821 27.972 78.6718 27.825 78.6044 27.6289C78.537 27.4328 78.4911 27.1907 78.4665 26.9027C78.4482 26.4431 78.4298 26.0387 78.4114 25.6894C78.3991 25.334 78.3777 25.0184 78.3471 24.7426C78.3225 24.4608 78.2919 24.2003 78.2551 23.9613C78.2184 23.7162 78.1724 23.4711 78.1173 23.226C77.9763 22.6009 77.7404 22.126 77.4095 21.8013C77.0786 21.4765 76.5853 21.3141 75.9296 21.3141C75.2984 21.3141 74.7898 21.4887 74.4038 21.838C74.0238 22.1873 73.7297 22.6683 73.5213 23.2811C73.4294 23.5385 73.3528 23.8081 73.2915 24.09C73.2303 24.3719 73.1782 24.663 73.1353 24.9632C73.0985 25.2635 73.0648 25.5791 73.0342 25.91C73.0097 26.2409 72.9852 26.5871 72.9606 26.9487C72.93 27.2918 72.8565 27.5553 72.74 27.7392C72.6236 27.923 72.4765 28.0486 72.2988 28.116C72.1211 28.1834 71.9158 28.2171 71.683 28.2171Z" fill="white"/>
<path d="M67.9558 28.1344C67.5513 28.1344 67.2511 27.9873 67.055 27.6932C66.865 27.3991 66.77 27.0191 66.77 26.5534C66.77 26.3573 66.77 26.0816 66.77 25.7261C66.77 25.3707 66.7731 24.9632 66.7792 24.5036C66.7853 24.044 66.7915 23.5569 66.7976 23.0421C66.8099 22.5274 66.8221 22.0096 66.8344 21.4887C66.8527 20.9678 66.8742 20.4715 66.8987 19.9996C66.9232 19.5278 66.9508 19.108 66.9814 18.7404C67.0488 18.146 67.1683 17.7262 67.3399 17.4811C67.5115 17.236 67.7903 17.1134 68.1764 17.1134C68.5011 17.1134 68.7371 17.239 68.8841 17.4903C69.0312 17.7354 69.1262 18.0724 69.1691 18.5014C69.1813 18.7649 69.1936 19.0958 69.2059 19.4941C69.2181 19.8924 69.2273 20.3275 69.2334 20.7993C69.2396 21.2712 69.2426 21.7553 69.2426 22.2516C69.2487 22.7419 69.2518 23.2168 69.2518 23.6764C69.2518 24.1298 69.2518 24.5435 69.2518 24.9173C69.2518 25.2849 69.2487 25.5791 69.2426 25.7997C69.2426 26.3818 69.2028 26.8445 69.1231 27.1876C69.0435 27.5247 68.9117 27.7667 68.7279 27.9138C68.5502 28.0609 68.2928 28.1344 67.9558 28.1344Z" fill="white"/>
<path d="M214.344 21.1277C214.296 21.0794 214.239 21.0411 214.176 21.015C214.113 20.9888 214.046 20.9753 213.978 20.9753C213.91 20.9753 213.843 20.9888 213.78 21.015C213.717 21.0411 213.66 21.0794 213.612 21.1277L211.253 23.4868C211.206 23.535 211.149 23.5734 211.086 23.5995C211.023 23.6257 210.956 23.6391 210.888 23.6391C210.82 23.6391 210.752 23.6257 210.69 23.5995C210.627 23.5734 210.57 23.535 210.522 23.4868L208.163 21.1277C208.115 21.0794 208.058 21.0411 207.995 21.015C207.933 20.9888 207.865 20.9753 207.797 20.9753C207.729 20.9753 207.662 20.9888 207.599 21.015C207.536 21.0411 207.479 21.0794 207.432 21.1277C207.336 21.2242 207.282 21.3548 207.282 21.4908C207.282 21.6269 207.336 21.7575 207.432 21.854L209.796 24.2182C210.085 24.5075 210.478 24.6701 210.888 24.6701C211.297 24.6701 211.69 24.5075 211.98 24.2182L214.344 21.854C214.44 21.7575 214.494 21.6269 214.494 21.4908C214.494 21.3548 214.44 21.2242 214.344 21.1277Z" fill="#535353"/>
<path d="M183.39 22.6876V21.9246H186.883V22.6876H183.39ZM186.351 20.0346H187.177V24.9346H186.351V20.0346ZM183.061 20.0346H183.887V24.9346H183.061V20.0346ZM188.865 22.4846C188.865 22.8206 188.935 23.1216 189.075 23.3876C189.22 23.6489 189.418 23.8542 189.67 24.0036C189.922 24.1529 190.209 24.2276 190.531 24.2276C190.858 24.2276 191.145 24.1529 191.392 24.0036C191.644 23.8542 191.84 23.6489 191.98 23.3876C192.125 23.1216 192.197 22.8206 192.197 22.4846C192.197 22.1486 192.127 21.8499 191.987 21.5886C191.847 21.3226 191.651 21.1149 191.399 20.9656C191.152 20.8162 190.862 20.7416 190.531 20.7416C190.209 20.7416 189.922 20.8162 189.67 20.9656C189.418 21.1149 189.22 21.3226 189.075 21.5886C188.935 21.8499 188.865 22.1486 188.865 22.4846ZM187.99 22.4846C187.99 22.1159 188.053 21.7776 188.179 21.4696C188.305 21.1616 188.482 20.8956 188.711 20.6716C188.944 20.4429 189.215 20.2656 189.523 20.1396C189.836 20.0136 190.172 19.9506 190.531 19.9506C190.9 19.9506 191.238 20.0136 191.546 20.1396C191.854 20.2656 192.122 20.4429 192.351 20.6716C192.584 20.8956 192.764 21.1616 192.89 21.4696C193.016 21.7776 193.079 22.1159 193.079 22.4846C193.079 22.8486 193.016 23.1869 192.89 23.4996C192.764 23.8122 192.587 24.0829 192.358 24.3116C192.129 24.5402 191.859 24.7199 191.546 24.8506C191.238 24.9766 190.9 25.0396 190.531 25.0396C190.167 25.0396 189.829 24.9766 189.516 24.8506C189.203 24.7199 188.933 24.5402 188.704 24.3116C188.48 24.0829 188.305 23.8122 188.179 23.4996C188.053 23.1869 187.99 22.8486 187.99 22.4846ZM194.792 21.9526L194.456 24.9346H193.602L194.274 19.7896L196.283 23.1146L198.299 19.7896L198.971 24.9346H198.117L197.774 21.9526L196.283 24.4796L194.792 21.9526ZM200.286 24.9346V24.2066H202.757V24.9346H200.286ZM200.286 20.7626V20.0346H202.757V20.7626H200.286ZM200.286 22.6666V21.9526H202.617V22.6666H200.286ZM199.775 20.0346H200.587V24.9346H199.775V20.0346Z" fill="black"/>
<path d="M264.038 21.1277C263.99 21.0794 263.933 21.0411 263.871 21.015C263.808 20.9888 263.74 20.9753 263.673 20.9753C263.605 20.9753 263.537 20.9888 263.474 21.015C263.412 21.0411 263.355 21.0794 263.307 21.1277L260.948 23.4868C260.9 23.535 260.843 23.5734 260.78 23.5995C260.717 23.6257 260.65 23.6391 260.582 23.6391C260.514 23.6391 260.447 23.6257 260.384 23.5995C260.321 23.5734 260.264 23.535 260.216 23.4868L257.857 21.1277C257.809 21.0794 257.752 21.0411 257.69 21.015C257.627 20.9888 257.56 20.9753 257.492 20.9753C257.424 20.9753 257.356 20.9888 257.293 21.015C257.231 21.0411 257.174 21.0794 257.126 21.1277C257.03 21.2242 256.976 21.3548 256.976 21.4908C256.976 21.6269 257.03 21.7575 257.126 21.854L259.49 24.2182C259.78 24.5075 260.173 24.6701 260.582 24.6701C260.992 24.6701 261.384 24.5075 261.674 24.2182L264.038 21.854C264.134 21.7575 264.188 21.6269 264.188 21.4908C264.188 21.3548 264.134 21.2242 264.038 21.1277Z" fill="#535353"/>
<path d="M232.343 23.6746L232.497 22.9746H234.772L234.933 23.6746H232.343ZM233.624 21.4206L232.854 23.2196L232.84 23.4016L232.161 24.9346H231.23L233.624 19.7616L236.018 24.9346H235.087L234.422 23.4436L234.401 23.2406L233.624 21.4206ZM237.218 22.4076V22.0016H238.009C238.163 22.0016 238.299 21.9759 238.415 21.9246C238.532 21.8732 238.623 21.8009 238.688 21.7076C238.754 21.6096 238.786 21.4929 238.786 21.3576C238.786 21.1522 238.714 20.9936 238.569 20.8816C238.425 20.7696 238.238 20.7136 238.009 20.7136H237.414V24.2556H238.1C238.287 24.2556 238.453 24.2252 238.597 24.1646C238.742 24.1039 238.856 24.0129 238.94 23.8916C239.024 23.7702 239.066 23.6186 239.066 23.4366C239.066 23.3059 239.041 23.1916 238.989 23.0936C238.943 22.9909 238.875 22.9069 238.786 22.8416C238.702 22.7716 238.602 22.7226 238.485 22.6946C238.369 22.6619 238.24 22.6456 238.1 22.6456H237.218V22.1906H238.149C238.387 22.1906 238.611 22.2162 238.821 22.2676C239.031 22.3189 239.218 22.3982 239.381 22.5056C239.549 22.6129 239.68 22.7506 239.773 22.9186C239.867 23.0866 239.913 23.2872 239.913 23.5206C239.913 23.8426 239.836 24.1086 239.682 24.3186C239.533 24.5286 239.325 24.6849 239.059 24.7876C238.798 24.8856 238.495 24.9346 238.149 24.9346H236.588V20.0346H238.065C238.373 20.0346 238.644 20.0789 238.877 20.1676C239.115 20.2562 239.3 20.3916 239.43 20.5736C239.566 20.7556 239.633 20.9866 239.633 21.2666C239.633 21.5092 239.566 21.7169 239.43 21.8896C239.3 22.0576 239.115 22.1859 238.877 22.2746C238.644 22.3632 238.373 22.4076 238.065 22.4076H237.218ZM241.381 22.4846C241.381 22.8206 241.451 23.1216 241.591 23.3876C241.735 23.6489 241.934 23.8542 242.186 24.0036C242.438 24.1529 242.725 24.2276 243.047 24.2276C243.373 24.2276 243.66 24.1529 243.908 24.0036C244.16 23.8542 244.356 23.6489 244.496 23.3876C244.64 23.1216 244.713 22.8206 244.713 22.4846C244.713 22.1486 244.643 21.8499 244.503 21.5886C244.363 21.3226 244.167 21.1149 243.915 20.9656C243.667 20.8162 243.378 20.7416 243.047 20.7416C242.725 20.7416 242.438 20.8162 242.186 20.9656C241.934 21.1149 241.735 21.3226 241.591 21.5886C241.451 21.8499 241.381 22.1486 241.381 22.4846ZM240.506 22.4846C240.506 22.1159 240.569 21.7776 240.695 21.4696C240.821 21.1616 240.998 20.8956 241.227 20.6716C241.46 20.4429 241.731 20.2656 242.039 20.1396C242.351 20.0136 242.687 19.9506 243.047 19.9506C243.415 19.9506 243.754 20.0136 244.062 20.1396C244.37 20.2656 244.638 20.4429 244.867 20.6716C245.1 20.8956 245.28 21.1616 245.406 21.4696C245.532 21.7776 245.595 22.1159 245.595 22.4846C245.595 22.8486 245.532 23.1869 245.406 23.4996C245.28 23.8122 245.102 24.0829 244.874 24.3116C244.645 24.5402 244.374 24.7199 244.062 24.8506C243.754 24.9766 243.415 25.0396 243.047 25.0396C242.683 25.0396 242.344 24.9766 242.032 24.8506C241.719 24.7199 241.448 24.5402 241.22 24.3116C240.996 24.0829 240.821 23.8122 240.695 23.4996C240.569 23.1869 240.506 22.8486 240.506 22.4846ZM246.363 20.0346H247.189V23.2896C247.189 23.5929 247.268 23.8379 247.427 24.0246C247.59 24.2066 247.831 24.2976 248.148 24.2976C248.461 24.2976 248.699 24.2066 248.862 24.0246C249.025 23.8379 249.107 23.5929 249.107 23.2896V20.0346H249.933V23.3246C249.933 23.5952 249.889 23.8379 249.8 24.0526C249.716 24.2626 249.595 24.4422 249.436 24.5916C249.277 24.7409 249.088 24.8552 248.869 24.9346C248.65 25.0139 248.409 25.0536 248.148 25.0536C247.887 25.0536 247.646 25.0139 247.427 24.9346C247.208 24.8552 247.016 24.7409 246.853 24.5916C246.694 24.4422 246.573 24.2626 246.489 24.0526C246.405 23.8379 246.363 23.5952 246.363 23.3246V20.0346ZM250.502 20.7976V20.0346H253.918V20.7976H252.623V24.9346H251.79V20.7976H250.502Z" fill="black"/>
<rect x="342.834" y="17.3279" width="44.4561" height="14.3422" rx="7.17109" stroke="black"/>
<rect x="345.634" y="14.1279" width="44.8561" height="14.7422" rx="7.37109" fill="black" stroke="black" stroke-width="0.6"/>
<path d="M354.416 21.0289C354.381 20.9138 354.332 20.8108 354.269 20.7199C354.208 20.6276 354.134 20.5487 354.048 20.4834C353.962 20.4181 353.864 20.3691 353.754 20.3364C353.643 20.3023 353.522 20.2852 353.391 20.2852C353.157 20.2852 352.948 20.3442 352.765 20.4621C352.582 20.58 352.438 20.7533 352.332 20.982C352.229 21.2093 352.177 21.4862 352.177 21.8129C352.177 22.1425 352.229 22.4216 352.332 22.6503C352.436 22.879 352.58 23.053 352.765 23.1723C352.95 23.2902 353.164 23.3492 353.408 23.3492C353.63 23.3492 353.822 23.3066 353.984 23.2213C354.147 23.1361 354.273 23.0154 354.361 22.8591C354.449 22.7014 354.493 22.5168 354.493 22.3051L354.672 22.3328H353.487V21.7149H355.258V22.2391C355.258 22.6127 355.178 22.9358 355.019 23.2085C354.86 23.4813 354.641 23.6915 354.363 23.8392C354.085 23.9855 353.765 24.0587 353.404 24.0587C353.002 24.0587 352.649 23.9685 352.345 23.7881C352.043 23.6063 351.806 23.3485 351.636 23.0146C351.467 22.6794 351.382 22.2817 351.382 21.8215C351.382 21.4692 351.432 21.1546 351.531 20.8776C351.632 20.6006 351.773 20.3655 351.953 20.1723C352.134 19.9777 352.345 19.83 352.588 19.7291C352.831 19.6269 353.095 19.5757 353.381 19.5757C353.622 19.5757 353.847 19.6112 354.056 19.6823C354.265 19.7519 354.45 19.8513 354.612 19.9806C354.776 20.1098 354.91 20.2632 355.015 20.4408C355.12 20.6183 355.189 20.8144 355.222 21.0289H354.416ZM357.437 24.0629C357.109 24.0629 356.825 23.9948 356.587 23.8584C356.35 23.7206 356.167 23.526 356.039 23.2746C355.911 23.0218 355.847 22.7242 355.847 22.3818C355.847 22.0452 355.911 21.7497 356.039 21.4955C356.169 21.2398 356.349 21.0409 356.58 20.8989C356.812 20.7554 357.084 20.6837 357.396 20.6837C357.598 20.6837 357.789 20.7164 357.968 20.7817C358.148 20.8456 358.307 20.945 358.445 21.08C358.584 21.2149 358.693 21.3868 358.773 21.5956C358.852 21.803 358.892 22.0502 358.892 22.3371V22.5736H356.21V22.0537H358.153C358.151 21.906 358.119 21.7746 358.057 21.6595C357.994 21.5431 357.907 21.4514 357.795 21.3847C357.684 21.3179 357.555 21.2845 357.407 21.2845C357.249 21.2845 357.111 21.3229 356.992 21.3996C356.872 21.4749 356.779 21.5743 356.713 21.6979C356.647 21.82 356.614 21.9543 356.612 22.1006V22.5544C356.612 22.7448 356.647 22.9081 356.717 23.0445C356.786 23.1794 356.884 23.2831 357.009 23.3556C357.134 23.4266 357.28 23.4621 357.448 23.4621C357.56 23.4621 357.661 23.4465 357.752 23.4152C357.843 23.3825 357.922 23.335 357.989 23.2725C358.056 23.21 358.106 23.1325 358.14 23.0402L358.86 23.1212C358.815 23.3115 358.728 23.4777 358.6 23.6198C358.474 23.7604 358.312 23.8698 358.115 23.9479C357.917 24.0246 357.691 24.0629 357.437 24.0629ZM361.179 20.7263V21.3229H359.298V20.7263H361.179ZM359.762 19.9422H360.533V23.0146C360.533 23.1183 360.549 23.1979 360.58 23.2533C360.613 23.3073 360.656 23.3442 360.708 23.3641C360.761 23.384 360.819 23.3939 360.883 23.3939C360.931 23.3939 360.975 23.3904 361.015 23.3833C361.056 23.3762 361.087 23.3698 361.109 23.3641L361.239 23.9671C361.197 23.9813 361.138 23.9969 361.062 24.0139C360.987 24.031 360.894 24.0409 360.785 24.0438C360.592 24.0494 360.418 24.0203 360.263 23.9564C360.108 23.8911 359.985 23.7902 359.894 23.6539C359.805 23.5175 359.761 23.347 359.762 23.1425V19.9422ZM365.718 20.835C365.698 20.6489 365.614 20.504 365.466 20.4003C365.32 20.2966 365.13 20.2448 364.895 20.2448C364.731 20.2448 364.589 20.2696 364.471 20.3193C364.354 20.3691 364.263 20.4365 364.201 20.5218C364.138 20.607 364.106 20.7043 364.105 20.8137C364.105 20.9046 364.126 20.9834 364.167 21.0502C364.209 21.1169 364.267 21.1737 364.339 21.2206C364.412 21.2661 364.492 21.3044 364.58 21.3357C364.668 21.3669 364.757 21.3932 364.846 21.4145L365.256 21.5168C365.42 21.5551 365.579 21.607 365.731 21.6723C365.884 21.7377 366.021 21.82 366.142 21.9195C366.264 22.0189 366.361 22.1389 366.432 22.2796C366.503 22.4202 366.538 22.585 366.538 22.7739C366.538 23.0296 366.473 23.2547 366.342 23.4493C366.211 23.6425 366.023 23.7938 365.775 23.9031C365.53 24.0111 365.232 24.0651 364.883 24.0651C364.543 24.0651 364.248 24.0125 363.998 23.9074C363.75 23.8023 363.555 23.6489 363.415 23.4472C363.275 23.2455 363.2 22.9997 363.189 22.71H363.966C363.978 22.8619 364.025 22.9884 364.107 23.0892C364.189 23.1901 364.297 23.2654 364.429 23.3151C364.562 23.3648 364.711 23.3896 364.876 23.3896C365.048 23.3896 365.199 23.3641 365.328 23.3129C365.459 23.2604 365.561 23.1879 365.635 23.0956C365.709 23.0019 365.746 22.8925 365.748 22.7675C365.746 22.6539 365.713 22.5601 365.648 22.4862C365.582 22.411 365.491 22.3485 365.373 22.2987C365.256 22.2476 365.12 22.2021 364.964 22.1624L364.467 22.0345C364.108 21.9422 363.824 21.8023 363.615 21.6148C363.407 21.4259 363.304 21.1752 363.304 20.8627C363.304 20.6056 363.373 20.3804 363.513 20.1872C363.653 19.9941 363.844 19.8442 364.086 19.7377C364.327 19.6297 364.601 19.5757 364.906 19.5757C365.216 19.5757 365.487 19.6297 365.72 19.7377C365.954 19.8442 366.138 19.9926 366.272 20.183C366.405 20.3719 366.474 20.5892 366.479 20.835H365.718ZM368.843 20.7263V21.3229H366.962V20.7263H368.843ZM367.426 19.9422H368.197V23.0146C368.197 23.1183 368.213 23.1979 368.244 23.2533C368.277 23.3073 368.32 23.3442 368.372 23.3641C368.425 23.384 368.483 23.3939 368.547 23.3939C368.595 23.3939 368.639 23.3904 368.679 23.3833C368.72 23.3762 368.751 23.3698 368.773 23.3641L368.903 23.9671C368.862 23.9813 368.803 23.9969 368.726 24.0139C368.651 24.031 368.558 24.0409 368.449 24.0438C368.256 24.0494 368.082 24.0203 367.927 23.9564C367.772 23.8911 367.649 23.7902 367.558 23.6539C367.469 23.5175 367.425 23.347 367.426 23.1425V19.9422ZM370.43 24.0651C370.222 24.0651 370.036 24.0281 369.869 23.9543C369.705 23.879 369.574 23.7682 369.477 23.6219C369.382 23.4756 369.335 23.2952 369.335 23.0807C369.335 22.896 369.369 22.7433 369.437 22.6226C369.505 22.5019 369.598 22.4053 369.716 22.3328C369.834 22.2604 369.967 22.2057 370.115 22.1688C370.264 22.1304 370.418 22.1027 370.577 22.0857C370.769 22.0658 370.924 22.048 371.044 22.0324C371.163 22.0154 371.249 21.9898 371.303 21.9557C371.359 21.9202 371.387 21.8655 371.387 21.7916V21.7789C371.387 21.6183 371.339 21.4941 371.244 21.406C371.149 21.3179 371.012 21.2739 370.833 21.2739C370.644 21.2739 370.494 21.3151 370.383 21.3975C370.274 21.4798 370.2 21.5771 370.161 21.6894L369.441 21.5871C369.498 21.3882 369.592 21.222 369.722 21.0885C369.853 20.9536 370.013 20.8527 370.202 20.786C370.391 20.7178 370.6 20.6837 370.828 20.6837C370.986 20.6837 371.143 20.7021 371.299 20.7391C371.455 20.776 371.598 20.8371 371.727 20.9223C371.857 21.0061 371.96 21.1205 372.039 21.2654C372.118 21.4102 372.158 21.5914 372.158 21.8087V23.999H371.416V23.5494H371.391C371.344 23.6404 371.278 23.7256 371.193 23.8051C371.109 23.8833 371.003 23.9465 370.875 23.9948C370.749 24.0416 370.6 24.0651 370.43 24.0651ZM370.63 23.4983C370.785 23.4983 370.919 23.4678 371.033 23.4067C371.146 23.3442 371.234 23.2618 371.295 23.1595C371.357 23.0573 371.389 22.9458 371.389 22.825V22.4394C371.365 22.4593 371.323 22.4777 371.265 22.4948C371.208 22.5118 371.144 22.5267 371.073 22.5395C371.002 22.5523 370.932 22.5637 370.862 22.5736C370.793 22.5835 370.732 22.5921 370.681 22.5992C370.566 22.6148 370.463 22.6404 370.372 22.6759C370.281 22.7114 370.21 22.7611 370.157 22.825C370.105 22.8875 370.078 22.9685 370.078 23.0679C370.078 23.21 370.13 23.3172 370.234 23.3896C370.338 23.4621 370.47 23.4983 370.63 23.4983ZM372.933 23.999V20.7263H373.681V21.2718H373.715C373.775 21.0828 373.877 20.9372 374.022 20.835C374.169 20.7313 374.335 20.6794 374.523 20.6794C374.566 20.6794 374.613 20.6816 374.666 20.6858C374.72 20.6887 374.764 20.6936 374.8 20.7007V21.4102C374.767 21.3989 374.715 21.3889 374.644 21.3804C374.575 21.3705 374.507 21.3655 374.442 21.3655C374.301 21.3655 374.175 21.396 374.063 21.4571C373.952 21.5168 373.865 21.5999 373.801 21.7064C373.737 21.8129 373.705 21.9358 373.705 22.075V23.999H372.933ZM377.122 20.7263V21.3229H375.241V20.7263H377.122ZM375.705 19.9422H376.477V23.0146C376.477 23.1183 376.492 23.1979 376.524 23.2533C376.556 23.3073 376.599 23.3442 376.651 23.3641C376.704 23.384 376.762 23.3939 376.826 23.3939C376.874 23.3939 376.919 23.3904 376.958 23.3833C376.999 23.3762 377.031 23.3698 377.052 23.3641L377.182 23.9671C377.141 23.9813 377.082 23.9969 377.005 24.0139C376.93 24.031 376.838 24.0409 376.728 24.0438C376.535 24.0494 376.361 24.0203 376.206 23.9564C376.051 23.8911 375.928 23.7902 375.838 23.6539C375.748 23.5175 375.704 23.347 375.705 23.1425V19.9422ZM379.181 24.0629C378.853 24.0629 378.57 23.9948 378.331 23.8584C378.094 23.7206 377.911 23.526 377.783 23.2746C377.656 23.0218 377.592 22.7242 377.592 22.3818C377.592 22.0452 377.656 21.7497 377.783 21.4955C377.913 21.2398 378.093 21.0409 378.325 20.8989C378.556 20.7554 378.828 20.6837 379.141 20.6837C379.342 20.6837 379.533 20.7164 379.712 20.7817C379.892 20.8456 380.051 20.945 380.189 21.08C380.328 21.2149 380.438 21.3868 380.517 21.5956C380.597 21.803 380.636 22.0502 380.636 22.3371V22.5736H377.954V22.0537H379.897C379.896 21.906 379.864 21.7746 379.801 21.6595C379.739 21.5431 379.651 21.4514 379.539 21.3847C379.428 21.3179 379.299 21.2845 379.151 21.2845C378.994 21.2845 378.855 21.3229 378.736 21.3996C378.616 21.4749 378.523 21.5743 378.457 21.6979C378.391 21.82 378.358 21.9543 378.357 22.1006V22.5544C378.357 22.7448 378.391 22.9081 378.461 23.0445C378.531 23.1794 378.628 23.2831 378.753 23.3556C378.878 23.4266 379.024 23.4621 379.192 23.4621C379.304 23.4621 379.406 23.4465 379.496 23.4152C379.587 23.3825 379.666 23.335 379.733 23.2725C379.8 23.21 379.85 23.1325 379.884 23.0402L380.604 23.1212C380.559 23.3115 380.472 23.4777 380.344 23.6198C380.218 23.7604 380.056 23.8698 379.859 23.9479C379.661 24.0246 379.435 24.0629 379.181 24.0629ZM382.503 24.0566C382.246 24.0566 382.016 23.9905 381.813 23.8584C381.61 23.7263 381.449 23.5345 381.331 23.2831C381.214 23.0317 381.155 22.7263 381.155 22.3669C381.155 22.0033 381.214 21.6965 381.334 21.4465C381.454 21.195 381.617 21.0054 381.822 20.8776C382.026 20.7483 382.254 20.6837 382.506 20.6837C382.697 20.6837 382.855 20.7164 382.979 20.7817C383.102 20.8456 383.2 20.923 383.273 21.0139C383.345 21.1034 383.401 21.1879 383.441 21.2675H383.473V19.6354H384.246V23.999H383.488V23.4834H383.441C383.401 23.5629 383.344 23.6475 383.268 23.7369C383.193 23.825 383.094 23.9003 382.97 23.9628C382.846 24.0253 382.691 24.0566 382.503 24.0566ZM382.719 23.4237C382.882 23.4237 383.021 23.3797 383.136 23.2916C383.251 23.2021 383.339 23.0779 383.398 22.9188C383.458 22.7597 383.488 22.5743 383.488 22.3627C383.488 22.151 383.458 21.9671 383.398 21.8108C383.34 21.6546 383.253 21.5331 383.138 21.4465C383.025 21.3598 382.885 21.3165 382.719 21.3165C382.547 21.3165 382.403 21.3612 382.288 21.4507C382.173 21.5402 382.086 21.6638 382.028 21.8215C381.97 21.9791 381.941 22.1595 381.941 22.3627C381.941 22.5672 381.97 22.7497 382.028 22.9102C382.088 23.0693 382.175 23.195 382.29 23.2874C382.407 23.3783 382.55 23.4237 382.719 23.4237Z" fill="white"/>
<defs>
<clipPath id="clip0_560_330">
<rect width="11.8269" height="11.8269" fill="white" transform="translate(303.734 15.7662)"/>
</clipPath>
</defs>
</svg>
