<svg width="401" height="45" viewBox="0 0 401 45" fill="none" xmlns="http://www.w3.org/2000/svg">
<rect width="400" height="43.7207" transform="translate(0.311523 0.499878)" fill="white"/>
<rect x="324.237" y="14.3648" width="16.9288" height="15.991" rx="7.9955" fill="black" stroke="black" stroke-width="0.6"/>
<rect x="302.184" y="14.3648" width="16.9288" height="15.991" rx="7.9955" fill="black" stroke="black" stroke-width="0.6"/>
<path d="M310.648 22.1795C311.11 22.1795 311.562 22.0424 311.947 21.7855C312.331 21.5285 312.631 21.1634 312.808 20.7361C312.985 20.3089 313.031 19.8387 312.941 19.3852C312.851 18.9316 312.628 18.515 312.301 18.188C311.974 17.861 311.557 17.6383 311.104 17.548C310.65 17.4578 310.18 17.5041 309.753 17.6811C309.326 17.8581 308.961 18.1578 308.704 18.5423C308.447 18.9268 308.31 19.3789 308.31 19.8413C308.31 20.4613 308.557 21.0556 308.995 21.494C309.433 21.9323 310.028 22.1789 310.648 22.1795ZM310.648 18.2825C310.956 18.2825 311.257 18.3739 311.514 18.5452C311.77 18.7165 311.97 18.96 312.088 19.2448C312.206 19.5296 312.237 19.843 312.177 20.1454C312.116 20.4478 311.968 20.7255 311.75 20.9435C311.532 21.1616 311.254 21.31 310.952 21.3702C310.649 21.4303 310.336 21.3994 310.051 21.2815C309.766 21.1635 309.523 20.9637 309.352 20.7073C309.18 20.451 309.089 20.1496 309.089 19.8413C309.089 19.4279 309.253 19.0314 309.546 18.7391C309.838 18.4467 310.234 18.2825 310.648 18.2825Z" fill="white"/>
<path d="M310.648 22.9589C309.718 22.96 308.827 23.3298 308.169 23.9873C307.512 24.6448 307.142 25.5363 307.141 26.4662C307.141 26.5696 307.182 26.6687 307.255 26.7418C307.328 26.8149 307.427 26.8559 307.53 26.8559C307.634 26.8559 307.733 26.8149 307.806 26.7418C307.879 26.6687 307.92 26.5696 307.92 26.4662C307.92 25.7427 308.207 25.0489 308.719 24.5373C309.231 24.0257 309.924 23.7383 310.648 23.7383C311.371 23.7383 312.065 24.0257 312.577 24.5373C313.088 25.0489 313.376 25.7427 313.376 26.4662C313.376 26.5696 313.417 26.6687 313.49 26.7418C313.563 26.8149 313.662 26.8559 313.766 26.8559C313.869 26.8559 313.968 26.8149 314.041 26.7418C314.114 26.6687 314.155 26.5696 314.155 26.4662C314.154 25.5363 313.784 24.6448 313.127 23.9873C312.469 23.3298 311.578 22.96 310.648 22.9589Z" fill="white"/>
<path d="M332.792 25.7832C334.751 25.7832 336.34 24.1944 336.34 22.2347C336.34 20.2749 334.751 18.6862 332.792 18.6862C330.832 18.6862 329.243 20.2749 329.243 22.2347C329.243 24.1944 330.832 25.7832 332.792 25.7832Z" stroke="white" stroke-width="1.01386" stroke-linecap="round" stroke-linejoin="round"/>
<path d="M337.227 26.6703L335.298 24.7408" stroke="white" stroke-width="1.01386" stroke-linecap="round" stroke-linejoin="round"/>
<path d="M283.106 22.1795H294.933" stroke="black" stroke-width="1.57692" stroke-linecap="round" stroke-linejoin="round"/>
<path d="M283.106 18.4343H294.933" stroke="black" stroke-width="1.57692" stroke-linecap="round" stroke-linejoin="round"/>
<path d="M283.106 25.9247H294.933" stroke="black" stroke-width="1.57692" stroke-linecap="round" stroke-linejoin="round"/>
<path d="M60.9772 27.885V30.0243H51.9969V27.885H60.9772ZM60.7321 19.6401L52.9105 30.0243H51.1724V28.2973L58.9494 17.9688H60.7321V19.6401ZM59.6959 17.9688V20.108H51.3061V17.9688H59.6959Z" fill="#111111"/>
<path d="M46.0249 27.1831V17.9688H48.7212V30.0243H46.1809L46.0249 27.1831ZM46.4037 24.6762L47.3062 24.6539C47.3062 25.4636 47.217 26.2101 47.0388 26.8934C46.8605 27.5694 46.5857 28.1599 46.2143 28.665C45.8429 29.1626 45.3675 29.5526 44.7881 29.8349C44.2087 30.1097 43.5142 30.2471 42.7046 30.2471C42.1178 30.2471 41.5793 30.1617 41.089 29.9909C40.5988 29.82 40.1754 29.5563 39.8189 29.1998C39.4698 28.8432 39.1986 28.379 39.0055 27.8071C38.8124 27.2351 38.7158 26.5517 38.7158 25.757V17.9688H41.401V25.7792C41.401 26.2175 41.453 26.5852 41.557 26.8823C41.661 27.172 41.8021 27.4059 41.9804 27.5842C42.1586 27.7625 42.3666 27.8888 42.6043 27.963C42.842 28.0373 43.0946 28.0745 43.362 28.0745C44.127 28.0745 44.7287 27.9259 45.1669 27.6288C45.6126 27.3242 45.9283 26.9157 46.114 26.4032C46.3071 25.8907 46.4037 25.315 46.4037 24.6762Z" fill="#111111"/>
<path d="M31.8528 30.2472C30.9615 30.2472 30.1556 30.1023 29.4351 29.8126C28.722 29.5155 28.1129 29.1033 27.6078 28.5759C27.1101 28.0485 26.7276 27.4283 26.4602 26.7152C26.1928 26.0021 26.0591 25.2333 26.0591 24.4089V23.9632C26.0591 23.0198 26.1965 22.1656 26.4713 21.4006C26.7462 20.6355 27.1287 19.9818 27.6189 19.4396C28.1092 18.8899 28.6886 18.4703 29.3571 18.1806C30.0256 17.8909 30.7498 17.746 31.5297 17.746C32.3914 17.746 33.1453 17.8909 33.7915 18.1806C34.4377 18.4703 34.9726 18.8788 35.3959 19.4062C35.8268 19.9261 36.1462 20.5463 36.3541 21.2669C36.5695 21.9874 36.6773 22.7821 36.6773 23.6512V24.7988H27.3627V22.8713H34.0255V22.6596C34.0106 22.1768 33.9141 21.7237 33.7358 21.3003C33.565 20.8769 33.3013 20.5352 32.9447 20.2752C32.5882 20.0153 32.1128 19.8853 31.5186 19.8853C31.0729 19.8853 30.6755 19.9818 30.3264 20.175C29.9847 20.3607 29.6987 20.6318 29.4685 20.9883C29.2382 21.3448 29.0599 21.7757 28.9337 22.2808C28.8148 22.7784 28.7554 23.3392 28.7554 23.9632V24.4089C28.7554 24.9362 28.826 25.4265 28.9671 25.8796C29.1157 26.3252 29.3311 26.7152 29.6133 27.0495C29.8956 27.3837 30.2373 27.6474 30.6384 27.8405C31.0395 28.0262 31.4963 28.1191 32.0088 28.1191C32.655 28.1191 33.2307 27.9891 33.7358 27.7291C34.2409 27.4691 34.6791 27.1015 35.0505 26.6261L36.4656 27.9965C36.2056 28.3753 35.8676 28.7393 35.4516 29.0884C35.0357 29.4301 34.5269 29.7087 33.9252 29.9241C33.331 30.1395 32.6402 30.2472 31.8528 30.2472Z" fill="#111111"/>
<path d="M23.7105 16.0831V30.0243H21.3072L15.0547 20.0376V30.0243H12.6514V16.0831H15.0547L21.3263 26.089V16.0831H23.7105Z" fill="#111111"/>
<path d="M84.3661 23.1651C84.3661 28.9932 79.6415 33.7178 73.8134 33.7178C67.9853 33.7178 63.2607 28.9932 63.2607 23.1651C63.2607 17.337 67.9853 12.6124 73.8134 12.6124C79.6415 12.6124 84.3661 17.337 84.3661 23.1651Z" fill="#111111"/>
<path d="M71.683 28.717C71.395 28.717 71.1682 28.6404 71.0028 28.4872C70.8373 28.334 70.7178 28.0858 70.6443 27.7427C70.6198 27.5834 70.6045 27.4026 70.5983 27.2004C70.5922 26.9981 70.5922 26.7684 70.5983 26.511C70.6045 26.2536 70.6198 25.9717 70.6443 25.6653C70.7178 24.4459 70.966 23.4133 71.3888 22.5677C71.8117 21.7159 72.3999 21.0694 73.1537 20.6282C73.9074 20.1809 74.8051 19.9572 75.8469 19.9572C76.8947 19.9572 77.7925 20.1686 78.5401 20.5914C79.2877 21.0143 79.8606 21.6638 80.2589 22.5401C80.6573 23.4164 80.8564 24.5347 80.8564 25.8951C80.8564 26.1402 80.8503 26.367 80.838 26.5753C80.8319 26.7837 80.8196 26.9736 80.8013 27.1452C80.7829 27.3168 80.7553 27.4731 80.7185 27.614C80.6266 28.0062 80.4887 28.2881 80.3049 28.4596C80.1272 28.6312 79.8943 28.717 79.6063 28.717C79.3122 28.717 79.0885 28.668 78.9353 28.5699C78.7821 28.4719 78.6718 28.3248 78.6044 28.1287C78.537 27.9327 78.4911 27.6906 78.4665 27.4026C78.4482 26.943 78.4298 26.5386 78.4114 26.1893C78.3991 25.8339 78.3777 25.5183 78.3471 25.2425C78.3225 24.9606 78.2919 24.7002 78.2551 24.4612C78.2184 24.2161 78.1724 23.971 78.1173 23.7259C77.9763 23.1008 77.7404 22.6259 77.4095 22.3011C77.0786 21.9764 76.5853 21.814 75.9296 21.814C75.2984 21.814 74.7898 21.9886 74.4038 22.3379C74.0238 22.6872 73.7297 23.1682 73.5213 23.781C73.4294 24.0384 73.3528 24.308 73.2915 24.5899C73.2303 24.8718 73.1782 25.1628 73.1353 25.4631C73.0985 25.7634 73.0648 26.079 73.0342 26.4099C73.0097 26.7408 72.9852 27.087 72.9606 27.4485C72.93 27.7917 72.8565 28.0552 72.74 28.239C72.6236 28.4229 72.4765 28.5485 72.2988 28.6159C72.1211 28.6833 71.9158 28.717 71.683 28.717Z" fill="white"/>
<path d="M67.9558 28.6343C67.5513 28.6343 67.2511 28.4872 67.055 28.1931C66.865 27.8989 66.77 27.519 66.77 27.0533C66.77 26.8572 66.77 26.5814 66.77 26.226C66.77 25.8706 66.7731 25.4631 66.7792 25.0035C66.7853 24.5439 66.7915 24.0567 66.7976 23.542C66.8099 23.0273 66.8221 22.5095 66.8344 21.9886C66.8527 21.4677 66.8742 20.9714 66.8987 20.4995C66.9232 20.0277 66.9508 19.6079 66.9814 19.2402C67.0488 18.6458 67.1683 18.2261 67.3399 17.981C67.5115 17.7358 67.7903 17.6133 68.1764 17.6133C68.5011 17.6133 68.7371 17.7389 68.8841 17.9901C69.0312 18.2353 69.1262 18.5723 69.1691 19.0012C69.1813 19.2647 69.1936 19.5957 69.2059 19.994C69.2181 20.3923 69.2273 20.8274 69.2334 21.2992C69.2396 21.771 69.2426 22.2552 69.2426 22.7515C69.2487 23.2417 69.2518 23.7167 69.2518 24.1762C69.2518 24.6297 69.2518 25.0433 69.2518 25.4171C69.2518 25.7848 69.2487 26.0789 69.2426 26.2996C69.2426 26.8817 69.2028 27.3444 69.1231 27.6875C69.0435 28.0246 68.9117 28.2666 68.7279 28.4137C68.5502 28.5607 68.2928 28.6343 67.9558 28.6343Z" fill="white"/>
<rect x="345.083" y="14.9891" width="44.8561" height="14.7422" rx="7.37109" fill="black" stroke="black" stroke-width="0.6"/>
<path d="M353.865 21.8901C353.829 21.7751 353.78 21.6721 353.718 21.5812C353.657 21.4888 353.583 21.41 353.496 21.3447C353.411 21.2793 353.313 21.2303 353.202 21.1976C353.091 21.1636 352.971 21.1465 352.84 21.1465C352.606 21.1465 352.397 21.2055 352.214 21.3234C352.03 21.4413 351.886 21.6146 351.781 21.8432C351.677 22.0705 351.626 22.3475 351.626 22.6742C351.626 23.0038 351.677 23.2829 351.781 23.5116C351.885 23.7403 352.029 23.9143 352.214 24.0336C352.398 24.1515 352.613 24.2104 352.857 24.2104C353.079 24.2104 353.27 24.1678 353.432 24.0826C353.596 23.9974 353.721 23.8766 353.81 23.7204C353.898 23.5627 353.942 23.378 353.942 23.1664L354.121 23.1941H352.936V22.5762H354.707V23.1003C354.707 23.4739 354.627 23.7971 354.468 24.0698C354.309 24.3425 354.09 24.5528 353.812 24.7005C353.533 24.8468 353.214 24.9199 352.853 24.9199C352.451 24.9199 352.098 24.8298 351.794 24.6494C351.491 24.4675 351.255 24.2097 351.084 23.8759C350.915 23.5407 350.831 23.143 350.831 22.6827C350.831 22.3305 350.881 22.0158 350.98 21.7388C351.081 21.4619 351.221 21.2268 351.402 21.0336C351.582 20.839 351.794 20.6913 352.037 20.5904C352.28 20.4881 352.544 20.437 352.829 20.437C353.071 20.437 353.296 20.4725 353.505 20.5435C353.714 20.6131 353.899 20.7126 354.061 20.8418C354.224 20.9711 354.359 21.1245 354.464 21.3021C354.569 21.4796 354.638 21.6756 354.67 21.8901H353.865ZM356.886 24.9242C356.558 24.9242 356.274 24.856 356.036 24.7197C355.798 24.5819 355.616 24.3873 355.488 24.1359C355.36 23.883 355.296 23.5854 355.296 23.2431C355.296 22.9065 355.36 22.611 355.488 22.3567C355.617 22.1011 355.798 21.9022 356.029 21.7601C356.261 21.6167 356.533 21.5449 356.845 21.5449C357.047 21.5449 357.237 21.5776 357.416 21.643C357.597 21.7069 357.756 21.8063 357.894 21.9413C358.033 22.0762 358.142 22.2481 358.222 22.4569C358.301 22.6643 358.341 22.9114 358.341 23.1984V23.4349H355.658V22.915H357.602C357.6 22.7673 357.568 22.6359 357.506 22.5208C357.443 22.4043 357.356 22.3127 357.244 22.2459C357.133 22.1792 357.004 22.1458 356.856 22.1458C356.698 22.1458 356.56 22.1842 356.44 22.2609C356.321 22.3361 356.228 22.4356 356.161 22.5592C356.096 22.6813 356.063 22.8155 356.061 22.9619V23.4157C356.061 23.606 356.096 23.7694 356.166 23.9057C356.235 24.0407 356.332 24.1444 356.457 24.2168C356.582 24.2878 356.729 24.3234 356.896 24.3234C357.009 24.3234 357.11 24.3077 357.201 24.2765C357.292 24.2438 357.371 24.1962 357.438 24.1337C357.504 24.0712 357.555 23.9938 357.589 23.9015L358.309 23.9824C358.264 24.1728 358.177 24.339 358.049 24.481C357.923 24.6217 357.761 24.731 357.563 24.8092C357.366 24.8859 357.14 24.9242 356.886 24.9242ZM360.628 21.5876V22.1842H358.746V21.5876H360.628ZM359.211 20.8035H359.982V23.8759C359.982 23.9796 359.998 24.0592 360.029 24.1146C360.062 24.1685 360.104 24.2055 360.157 24.2253C360.209 24.2452 360.268 24.2552 360.332 24.2552C360.38 24.2552 360.424 24.2516 360.464 24.2445C360.505 24.2374 360.536 24.231 360.557 24.2253L360.687 24.8283C360.646 24.8425 360.587 24.8582 360.511 24.8752C360.435 24.8923 360.343 24.9022 360.234 24.905C360.04 24.9107 359.866 24.8816 359.712 24.8177C359.557 24.7523 359.434 24.6515 359.343 24.5151C359.253 24.3788 359.209 24.2083 359.211 24.0038V20.8035ZM365.167 21.6962C365.147 21.5101 365.063 21.3653 364.915 21.2616C364.769 21.1579 364.579 21.106 364.344 21.106C364.179 21.106 364.038 21.1309 363.92 21.1806C363.802 21.2303 363.712 21.2978 363.65 21.383C363.587 21.4682 363.555 21.5655 363.554 21.6749C363.554 21.7658 363.574 21.8447 363.615 21.9114C363.658 21.9782 363.716 22.035 363.788 22.0819C363.86 22.1273 363.941 22.1657 364.029 22.1969C364.117 22.2282 364.206 22.2545 364.295 22.2758L364.704 22.378C364.869 22.4164 365.027 22.4682 365.179 22.5336C365.333 22.5989 365.47 22.6813 365.591 22.7807C365.713 22.8802 365.809 23.0002 365.88 23.1408C365.951 23.2815 365.987 23.4462 365.987 23.6351C365.987 23.8908 365.922 24.116 365.791 24.3106C365.66 24.5038 365.471 24.655 365.224 24.7644C364.978 24.8724 364.681 24.9263 364.331 24.9263C363.992 24.9263 363.697 24.8738 363.447 24.7687C363.199 24.6636 363.004 24.5101 362.863 24.3084C362.724 24.1067 362.649 23.861 362.637 23.5712H363.415C363.427 23.7232 363.473 23.8496 363.556 23.9505C363.638 24.0513 363.745 24.1266 363.878 24.1763C364.011 24.2261 364.16 24.2509 364.325 24.2509C364.497 24.2509 364.647 24.2253 364.777 24.1742C364.907 24.1217 365.01 24.0492 365.083 23.9569C365.157 23.8631 365.195 23.7538 365.196 23.6288C365.195 23.5151 365.162 23.4214 365.096 23.3475C365.031 23.2722 364.939 23.2097 364.821 23.16C364.705 23.1089 364.569 23.0634 364.412 23.0236L363.916 22.8958C363.557 22.8035 363.272 22.6636 363.064 22.4761C362.856 22.2871 362.753 22.0364 362.753 21.7239C362.753 21.4668 362.822 21.2417 362.961 21.0485C363.102 20.8553 363.293 20.7055 363.534 20.5989C363.776 20.491 364.049 20.437 364.355 20.437C364.664 20.437 364.936 20.491 365.169 20.5989C365.403 20.7055 365.587 20.8539 365.721 21.0442C365.854 21.2332 365.923 21.4505 365.927 21.6962H365.167ZM368.292 21.5876V22.1842H366.41V21.5876H368.292ZM366.875 20.8035H367.646V23.8759C367.646 23.9796 367.662 24.0592 367.693 24.1146C367.726 24.1685 367.768 24.2055 367.821 24.2253C367.873 24.2452 367.932 24.2552 367.996 24.2552C368.044 24.2552 368.088 24.2516 368.128 24.2445C368.169 24.2374 368.2 24.231 368.221 24.2253L368.351 24.8283C368.31 24.8425 368.251 24.8582 368.175 24.8752C368.099 24.8923 368.007 24.9022 367.898 24.905C367.704 24.9107 367.53 24.8816 367.376 24.8177C367.221 24.7523 367.098 24.6515 367.007 24.5151C366.917 24.3788 366.873 24.2083 366.875 24.0038V20.8035ZM369.879 24.9263C369.671 24.9263 369.484 24.8894 369.318 24.8155C369.153 24.7403 369.023 24.6295 368.926 24.4832C368.831 24.3369 368.783 24.1565 368.783 23.942C368.783 23.7573 368.818 23.6046 368.886 23.4839C368.954 23.3631 369.047 23.2665 369.165 23.1941C369.283 23.1217 369.416 23.067 369.563 23.03C369.712 22.9917 369.867 22.964 370.026 22.9469C370.217 22.9271 370.373 22.9093 370.492 22.8937C370.612 22.8766 370.698 22.8511 370.752 22.817C370.808 22.7815 370.835 22.7268 370.835 22.6529V22.6401C370.835 22.4796 370.788 22.3553 370.693 22.2673C370.597 22.1792 370.46 22.1351 370.281 22.1351C370.092 22.1351 369.943 22.1763 369.832 22.2587C369.722 22.3411 369.648 22.4384 369.61 22.5506L368.89 22.4484C368.947 22.2495 369.041 22.0833 369.171 21.9498C369.302 21.8148 369.462 21.714 369.651 21.6472C369.84 21.579 370.048 21.5449 370.277 21.5449C370.435 21.5449 370.592 21.5634 370.748 21.6003C370.904 21.6373 371.047 21.6984 371.176 21.7836C371.305 21.8674 371.409 21.9817 371.487 22.1266C371.567 22.2715 371.607 22.4526 371.607 22.6699V24.8603H370.865V24.4107H370.84C370.793 24.5016 370.727 24.5869 370.641 24.6664C370.558 24.7445 370.452 24.8077 370.324 24.856C370.197 24.9029 370.049 24.9263 369.879 24.9263ZM370.079 24.3596C370.234 24.3596 370.368 24.329 370.482 24.268C370.595 24.2055 370.683 24.1231 370.744 24.0208C370.806 23.9185 370.837 23.807 370.837 23.6863V23.3006C370.813 23.3205 370.772 23.339 370.714 23.356C370.657 23.3731 370.593 23.388 370.522 23.4008C370.451 23.4136 370.381 23.4249 370.311 23.4349C370.242 23.4448 370.181 23.4533 370.13 23.4604C370.015 23.4761 369.912 23.5016 369.821 23.5371C369.73 23.5726 369.658 23.6224 369.606 23.6863C369.553 23.7488 369.527 23.8298 369.527 23.9292C369.527 24.0712 369.579 24.1785 369.683 24.2509C369.786 24.3234 369.918 24.3596 370.079 24.3596ZM372.382 24.8603V21.5876H373.13V22.133H373.164C373.224 21.9441 373.326 21.7985 373.471 21.6962C373.617 21.5925 373.784 21.5407 373.972 21.5407C374.014 21.5407 374.062 21.5428 374.114 21.5471C374.168 21.5499 374.213 21.5549 374.249 21.562V22.2715C374.216 22.2601 374.164 22.2502 374.093 22.2417C374.023 22.2317 373.956 22.2268 373.891 22.2268C373.75 22.2268 373.624 22.2573 373.511 22.3184C373.401 22.378 373.313 22.4611 373.249 22.5677C373.185 22.6742 373.153 22.7971 373.153 22.9363V24.8603H372.382ZM376.571 21.5876V22.1842H374.69V21.5876H376.571ZM375.154 20.8035H375.925V23.8759C375.925 23.9796 375.941 24.0592 375.972 24.1146C376.005 24.1685 376.048 24.2055 376.1 24.2253C376.153 24.2452 376.211 24.2552 376.275 24.2552C376.323 24.2552 376.367 24.2516 376.407 24.2445C376.448 24.2374 376.479 24.231 376.501 24.2253L376.631 24.8283C376.59 24.8425 376.531 24.8582 376.454 24.8752C376.379 24.8923 376.286 24.9022 376.177 24.905C375.984 24.9107 375.81 24.8816 375.655 24.8177C375.5 24.7523 375.377 24.6515 375.286 24.5151C375.197 24.3788 375.153 24.2083 375.154 24.0038V20.8035ZM378.63 24.9242C378.302 24.9242 378.018 24.856 377.78 24.7197C377.542 24.5819 377.36 24.3873 377.232 24.1359C377.104 23.883 377.04 23.5854 377.04 23.2431C377.04 22.9065 377.104 22.611 377.232 22.3567C377.361 22.1011 377.542 21.9022 377.773 21.7601C378.005 21.6167 378.277 21.5449 378.589 21.5449C378.791 21.5449 378.981 21.5776 379.16 21.643C379.341 21.7069 379.5 21.8063 379.638 21.9413C379.777 22.0762 379.886 22.2481 379.966 22.4569C380.045 22.6643 380.085 22.9114 380.085 23.1984V23.4349H377.403V22.915H379.346C379.344 22.7673 379.312 22.6359 379.25 22.5208C379.187 22.4043 379.1 22.3127 378.988 22.2459C378.877 22.1792 378.748 22.1458 378.6 22.1458C378.442 22.1458 378.304 22.1842 378.185 22.2609C378.065 22.3361 377.972 22.4356 377.905 22.5592C377.84 22.6813 377.807 22.8155 377.805 22.9619V23.4157C377.805 23.606 377.84 23.7694 377.91 23.9057C377.979 24.0407 378.077 24.1444 378.202 24.2168C378.327 24.2878 378.473 24.3234 378.64 24.3234C378.753 24.3234 378.854 24.3077 378.945 24.2765C379.036 24.2438 379.115 24.1962 379.182 24.1337C379.248 24.0712 379.299 23.9938 379.333 23.9015L380.053 23.9824C380.008 24.1728 379.921 24.339 379.793 24.481C379.667 24.6217 379.505 24.731 379.307 24.8092C379.11 24.8859 378.884 24.9242 378.63 24.9242ZM381.952 24.9178C381.695 24.9178 381.465 24.8518 381.262 24.7197C381.059 24.5876 380.898 24.3958 380.78 24.1444C380.662 23.893 380.603 23.5876 380.603 23.2282C380.603 22.8646 380.663 22.5577 380.782 22.3077C380.903 22.0563 381.066 21.8667 381.27 21.7388C381.475 21.6096 381.703 21.5449 381.954 21.5449C382.146 21.5449 382.304 21.5776 382.427 21.643C382.551 21.7069 382.649 21.7843 382.721 21.8752C382.794 21.9647 382.85 22.0492 382.89 22.1288H382.922V20.4967H383.695V24.8603H382.936V24.3447H382.89C382.85 24.4242 382.792 24.5087 382.717 24.5982C382.642 24.6863 382.542 24.7616 382.419 24.8241C382.295 24.8866 382.14 24.9178 381.952 24.9178ZM382.167 24.285C382.331 24.285 382.47 24.241 382.585 24.1529C382.7 24.0634 382.787 23.9391 382.847 23.78C382.907 23.6209 382.936 23.4356 382.936 23.2239C382.936 23.0123 382.907 22.8283 382.847 22.6721C382.789 22.5158 382.702 22.3944 382.587 22.3077C382.473 22.2211 382.333 22.1778 382.167 22.1778C381.995 22.1778 381.852 22.2225 381.737 22.312C381.622 22.4015 381.535 22.5251 381.477 22.6827C381.419 22.8404 381.39 23.0208 381.39 23.2239C381.39 23.4285 381.419 23.611 381.477 23.7715C381.537 23.9306 381.624 24.0563 381.739 24.1486C381.856 24.2396 381.998 24.285 382.167 24.285Z" fill="white"/>
<path d="M182.617 21.1521C182.569 21.1038 182.512 21.0655 182.45 21.0393C182.387 21.0132 182.32 20.9997 182.252 20.9997C182.184 20.9997 182.116 21.0132 182.054 21.0393C181.991 21.0655 181.934 21.1038 181.886 21.1521L179.527 23.5111C179.479 23.5594 179.422 23.5977 179.359 23.6239C179.296 23.65 179.229 23.6635 179.161 23.6635C179.093 23.6635 179.026 23.65 178.963 23.6239C178.9 23.5977 178.843 23.5594 178.795 23.5111L176.436 21.1521C176.388 21.1038 176.332 21.0655 176.269 21.0393C176.206 21.0132 176.139 20.9997 176.071 20.9997C176.003 20.9997 175.935 21.0132 175.873 21.0393C175.81 21.0655 175.753 21.1038 175.705 21.1521C175.609 21.2486 175.555 21.3791 175.555 21.5152C175.555 21.6513 175.609 21.7818 175.705 21.8783L178.069 24.2425C178.359 24.5319 178.752 24.6944 179.161 24.6944C179.571 24.6944 179.963 24.5319 180.253 24.2425L182.617 21.8783C182.713 21.7818 182.767 21.6513 182.767 21.5152C182.767 21.3791 182.713 21.2486 182.617 21.1521Z" fill="#535353"/>
<path d="M151.664 22.7119V21.9489H155.157V22.7119H151.664ZM154.625 20.0589H155.451V24.9589H154.625V20.0589ZM151.335 20.0589H152.161V24.9589H151.335V20.0589ZM157.139 22.5089C157.139 22.8449 157.209 23.1459 157.349 23.4119C157.493 23.6733 157.692 23.8786 157.944 24.0279C158.196 24.1773 158.483 24.2519 158.805 24.2519C159.131 24.2519 159.418 24.1773 159.666 24.0279C159.918 23.8786 160.114 23.6733 160.254 23.4119C160.398 23.1459 160.471 22.8449 160.471 22.5089C160.471 22.1729 160.401 21.8743 160.261 21.6129C160.121 21.3469 159.925 21.1393 159.673 20.9899C159.425 20.8406 159.136 20.7659 158.805 20.7659C158.483 20.7659 158.196 20.8406 157.944 20.9899C157.692 21.1393 157.493 21.3469 157.349 21.6129C157.209 21.8743 157.139 22.1729 157.139 22.5089ZM156.264 22.5089C156.264 22.1403 156.327 21.8019 156.453 21.4939C156.579 21.1859 156.756 20.9199 156.985 20.6959C157.218 20.4673 157.489 20.2899 157.797 20.1639C158.109 20.0379 158.445 19.9749 158.805 19.9749C159.173 19.9749 159.512 20.0379 159.82 20.1639C160.128 20.2899 160.396 20.4673 160.625 20.6959C160.858 20.9199 161.038 21.1859 161.164 21.4939C161.29 21.8019 161.353 22.1403 161.353 22.5089C161.353 22.8729 161.29 23.2113 161.164 23.5239C161.038 23.8366 160.86 24.1073 160.632 24.3359C160.403 24.5646 160.132 24.7443 159.82 24.8749C159.512 25.0009 159.173 25.0639 158.805 25.0639C158.441 25.0639 158.102 25.0009 157.79 24.8749C157.477 24.7443 157.206 24.5646 156.978 24.3359C156.754 24.1073 156.579 23.8366 156.453 23.5239C156.327 23.2113 156.264 22.8729 156.264 22.5089ZM163.066 21.9769L162.73 24.9589H161.876L162.548 19.8139L164.557 23.1389L166.573 19.8139L167.245 24.9589H166.391L166.048 21.9769L164.557 24.5039L163.066 21.9769ZM168.559 24.9589V24.2309H171.03V24.9589H168.559ZM168.559 20.7869V20.0589H171.03V20.7869H168.559ZM168.559 22.6909V21.9769H170.89V22.6909H168.559ZM168.048 20.0589H168.86V24.9589H168.048V20.0589Z" fill="black"/>
<path d="M232.312 21.1521C232.264 21.1038 232.207 21.0655 232.144 21.0393C232.081 21.0132 232.014 20.9997 231.946 20.9997C231.878 20.9997 231.811 21.0132 231.748 21.0393C231.685 21.0655 231.628 21.1038 231.58 21.1521L229.221 23.5111C229.173 23.5594 229.116 23.5977 229.054 23.6239C228.991 23.65 228.923 23.6635 228.855 23.6635C228.787 23.6635 228.72 23.65 228.657 23.6239C228.595 23.5977 228.538 23.5594 228.49 23.5111L226.131 21.1521C226.083 21.1038 226.026 21.0655 225.963 21.0393C225.9 21.0132 225.833 20.9997 225.765 20.9997C225.697 20.9997 225.63 21.0132 225.567 21.0393C225.504 21.0655 225.447 21.1038 225.399 21.1521C225.303 21.2486 225.25 21.3791 225.25 21.5152C225.25 21.6513 225.303 21.7818 225.399 21.8783L227.764 24.2425C228.053 24.5319 228.446 24.6944 228.855 24.6944C229.265 24.6944 229.658 24.5319 229.947 24.2425L232.312 21.8783C232.408 21.7818 232.461 21.6513 232.461 21.5152C232.461 21.3791 232.408 21.2486 232.312 21.1521Z" fill="#535353"/>
<path d="M200.617 23.6989L200.771 22.9989H203.046L203.207 23.6989H200.617ZM201.898 21.4449L201.128 23.2439L201.114 23.4259L200.435 24.9589H199.504L201.898 19.7859L204.292 24.9589H203.361L202.696 23.4679L202.675 23.2649L201.898 21.4449ZM205.492 22.4319V22.0259H206.283C206.437 22.0259 206.572 22.0003 206.689 21.9489C206.806 21.8976 206.897 21.8253 206.962 21.7319C207.027 21.6339 207.06 21.5173 207.06 21.3819C207.06 21.1766 206.988 21.0179 206.843 20.9059C206.698 20.7939 206.512 20.7379 206.283 20.7379H205.688V24.2799H206.374C206.561 24.2799 206.726 24.2496 206.871 24.1889C207.016 24.1283 207.13 24.0373 207.214 23.9159C207.298 23.7946 207.34 23.6429 207.34 23.4609C207.34 23.3303 207.314 23.2159 207.263 23.1179C207.216 23.0153 207.149 22.9313 207.06 22.8659C206.976 22.7959 206.876 22.7469 206.759 22.7189C206.642 22.6863 206.514 22.6699 206.374 22.6699H205.492V22.2149H206.423C206.661 22.2149 206.885 22.2406 207.095 22.2919C207.305 22.3433 207.492 22.4226 207.655 22.5299C207.823 22.6373 207.954 22.7749 208.047 22.9429C208.14 23.1109 208.187 23.3116 208.187 23.5449C208.187 23.8669 208.11 24.1329 207.956 24.3429C207.807 24.5529 207.599 24.7093 207.333 24.8119C207.072 24.9099 206.768 24.9589 206.423 24.9589H204.862V20.0589H206.339C206.647 20.0589 206.918 20.1033 207.151 20.1919C207.389 20.2806 207.573 20.4159 207.704 20.5979C207.839 20.7799 207.907 21.0109 207.907 21.2909C207.907 21.5336 207.839 21.7413 207.704 21.9139C207.573 22.0819 207.389 22.2103 207.151 22.2989C206.918 22.3876 206.647 22.4319 206.339 22.4319H205.492ZM209.654 22.5089C209.654 22.8449 209.724 23.1459 209.864 23.4119C210.009 23.6733 210.207 23.8786 210.459 24.0279C210.711 24.1773 210.998 24.2519 211.32 24.2519C211.647 24.2519 211.934 24.1773 212.181 24.0279C212.433 23.8786 212.629 23.6733 212.769 23.4119C212.914 23.1459 212.986 22.8449 212.986 22.5089C212.986 22.1729 212.916 21.8743 212.776 21.6129C212.636 21.3469 212.44 21.1393 212.188 20.9899C211.941 20.8406 211.652 20.7659 211.32 20.7659C210.998 20.7659 210.711 20.8406 210.459 20.9899C210.207 21.1393 210.009 21.3469 209.864 21.6129C209.724 21.8743 209.654 22.1729 209.654 22.5089ZM208.779 22.5089C208.779 22.1403 208.842 21.8019 208.968 21.4939C209.094 21.1859 209.272 20.9199 209.5 20.6959C209.734 20.4673 210.004 20.2899 210.312 20.1639C210.625 20.0379 210.961 19.9749 211.32 19.9749C211.689 19.9749 212.027 20.0379 212.335 20.1639C212.643 20.2899 212.912 20.4673 213.14 20.6959C213.374 20.9199 213.553 21.1859 213.679 21.4939C213.805 21.8019 213.868 22.1403 213.868 22.5089C213.868 22.8729 213.805 23.2113 213.679 23.5239C213.553 23.8366 213.376 24.1073 213.147 24.3359C212.919 24.5646 212.648 24.7443 212.335 24.8749C212.027 25.0009 211.689 25.0639 211.32 25.0639C210.956 25.0639 210.618 25.0009 210.305 24.8749C209.993 24.7443 209.722 24.5646 209.493 24.3359C209.269 24.1073 209.094 23.8366 208.968 23.5239C208.842 23.2113 208.779 22.8729 208.779 22.5089ZM214.636 20.0589H215.462V23.3139C215.462 23.6173 215.542 23.8623 215.7 24.0489C215.864 24.2309 216.104 24.3219 216.421 24.3219C216.734 24.3219 216.972 24.2309 217.135 24.0489C217.299 23.8623 217.38 23.6173 217.38 23.3139V20.0589H218.206V23.3489C218.206 23.6196 218.162 23.8623 218.073 24.0769C217.989 24.2869 217.868 24.4666 217.709 24.6159C217.551 24.7653 217.362 24.8796 217.142 24.9589C216.923 25.0383 216.683 25.0779 216.421 25.0779C216.16 25.0779 215.92 25.0383 215.7 24.9589C215.481 24.8796 215.29 24.7653 215.126 24.6159C214.968 24.4666 214.846 24.2869 214.762 24.0769C214.678 23.8623 214.636 23.6196 214.636 23.3489V20.0589ZM218.775 20.8219V20.0589H222.191V20.8219H220.896V24.9589H220.063V20.8219H218.775Z" fill="black"/>
</svg>
