<svg width="401" height="44" viewBox="0 0 401 44" fill="none" xmlns="http://www.w3.org/2000/svg">
<rect width="400" height="43.7207" transform="translate(0.311523 -0.000305176)" fill="white"/>
<rect x="324.237" y="13.8646" width="16.9288" height="15.991" rx="7.9955" stroke="black" stroke-width="0.6"/>
<rect x="302.184" y="13.8646" width="16.9288" height="15.991" rx="7.9955" stroke="black" stroke-width="0.6"/>
<path d="M310.648 21.6793C311.11 21.6793 311.562 21.5422 311.947 21.2853C312.331 21.0283 312.631 20.6632 312.808 20.2359C312.985 19.8087 313.031 19.3385 312.941 18.885C312.851 18.4314 312.628 18.0148 312.301 17.6878C311.974 17.3608 311.557 17.1381 311.104 17.0479C310.65 16.9576 310.18 17.0039 309.753 17.1809C309.326 17.3579 308.961 17.6576 308.704 18.0421C308.447 18.4266 308.31 18.8787 308.31 19.3411C308.31 19.9611 308.557 20.5554 308.995 20.9938C309.433 21.4322 310.028 21.6787 310.648 21.6793ZM310.648 17.7823C310.956 17.7823 311.257 17.8738 311.514 18.045C311.77 18.2163 311.97 18.4598 312.088 18.7446C312.206 19.0294 312.237 19.3429 312.177 19.6452C312.116 19.9476 311.968 20.2254 311.75 20.4434C311.532 20.6614 311.254 20.8098 310.952 20.87C310.649 20.9301 310.336 20.8993 310.051 20.7813C309.766 20.6633 309.523 20.4635 309.352 20.2072C309.18 19.9508 309.089 19.6494 309.089 19.3411C309.089 18.9277 309.253 18.5312 309.546 18.2389C309.838 17.9466 310.234 17.7823 310.648 17.7823Z" fill="black"/>
<path d="M310.648 22.4587C309.718 22.4598 308.827 22.8296 308.169 23.4871C307.512 24.1447 307.142 25.0362 307.141 25.966C307.141 26.0694 307.182 26.1685 307.255 26.2416C307.328 26.3147 307.427 26.3557 307.53 26.3557C307.634 26.3557 307.733 26.3147 307.806 26.2416C307.879 26.1685 307.92 26.0694 307.92 25.966C307.92 25.2426 308.207 24.5487 308.719 24.0371C309.231 23.5255 309.924 23.2381 310.648 23.2381C311.371 23.2381 312.065 23.5255 312.577 24.0371C313.088 24.5487 313.376 25.2426 313.376 25.966C313.376 26.0694 313.417 26.1685 313.49 26.2416C313.563 26.3147 313.662 26.3557 313.766 26.3557C313.869 26.3557 313.968 26.3147 314.041 26.2416C314.114 26.1685 314.155 26.0694 314.155 25.966C314.154 25.0362 313.784 24.1447 313.127 23.4871C312.469 22.8296 311.578 22.4598 310.648 22.4587Z" fill="black"/>
<path d="M332.792 25.283C334.751 25.283 336.34 23.6943 336.34 21.7345C336.34 19.7747 334.751 18.186 332.792 18.186C330.832 18.186 329.243 19.7747 329.243 21.7345C329.243 23.6943 330.832 25.283 332.792 25.283Z" stroke="black" stroke-width="1.01386" stroke-linecap="round" stroke-linejoin="round"/>
<path d="M337.227 26.1701L335.298 24.2406" stroke="black" stroke-width="1.01386" stroke-linecap="round" stroke-linejoin="round"/>
<path d="M283.106 21.6793H294.933" stroke="black" stroke-width="1.57692" stroke-linecap="round" stroke-linejoin="round"/>
<path d="M283.106 17.9341H294.933" stroke="black" stroke-width="1.57692" stroke-linecap="round" stroke-linejoin="round"/>
<path d="M283.106 25.4246H294.933" stroke="black" stroke-width="1.57692" stroke-linecap="round" stroke-linejoin="round"/>
<path d="M60.9772 27.3849V29.5241H51.9969V27.3849H60.9772ZM60.7321 19.1399L52.9105 29.5241H51.1724V27.7971L58.9494 17.4686H60.7321V19.1399ZM59.6959 17.4686V19.6079H51.3061V17.4686H59.6959Z" fill="#111111"/>
<path d="M46.0249 26.6829V17.4686H48.7212V29.5241H46.1809L46.0249 26.6829ZM46.4037 24.176L47.3062 24.1537C47.3062 24.9634 47.217 25.7099 47.0388 26.3932C46.8605 27.0692 46.5857 27.6597 46.2143 28.1648C45.8429 28.6625 45.3675 29.0524 44.7881 29.3347C44.2087 29.6095 43.5142 29.7469 42.7046 29.7469C42.1178 29.7469 41.5793 29.6615 41.089 29.4907C40.5988 29.3198 40.1754 29.0561 39.8189 28.6996C39.4698 28.3431 39.1986 27.8788 39.0055 27.3069C38.8124 26.7349 38.7158 26.0516 38.7158 25.2568V17.4686H41.401V25.2791C41.401 25.7173 41.453 26.085 41.557 26.3821C41.661 26.6718 41.8021 26.9058 41.9804 27.084C42.1586 27.2623 42.3666 27.3886 42.6043 27.4629C42.842 27.5371 43.0946 27.5743 43.362 27.5743C44.127 27.5743 44.7287 27.4257 45.1669 27.1286C45.6126 26.8241 45.9283 26.4155 46.114 25.903C46.3071 25.3905 46.4037 24.8148 46.4037 24.176Z" fill="#111111"/>
<path d="M31.8528 29.747C30.9615 29.747 30.1556 29.6021 29.4351 29.3125C28.722 29.0153 28.1129 28.6031 27.6078 28.0757C27.1101 27.5483 26.7276 26.9281 26.4602 26.215C26.1928 25.502 26.0591 24.7332 26.0591 23.9087V23.463C26.0591 22.5197 26.1965 21.6654 26.4713 20.9004C26.7462 20.1353 27.1287 19.4816 27.6189 18.9394C28.1092 18.3897 28.6886 17.9701 29.3571 17.6804C30.0256 17.3907 30.7498 17.2458 31.5297 17.2458C32.3914 17.2458 33.1453 17.3907 33.7915 17.6804C34.4377 17.9701 34.9726 18.3786 35.3959 18.906C35.8268 19.4259 36.1462 20.0462 36.3541 20.7667C36.5695 21.4872 36.6773 22.282 36.6773 23.151V24.2986H27.3627V22.3711H34.0255V22.1594C34.0106 21.6766 33.9141 21.2235 33.7358 20.8001C33.565 20.3767 33.3013 20.035 32.9447 19.775C32.5882 19.5151 32.1128 19.3851 31.5186 19.3851C31.0729 19.3851 30.6755 19.4816 30.3264 19.6748C29.9847 19.8605 29.6987 20.1316 29.4685 20.4881C29.2382 20.8447 29.0599 21.2755 28.9337 21.7806C28.8148 22.2782 28.7554 22.8391 28.7554 23.463V23.9087C28.7554 24.436 28.826 24.9263 28.9671 25.3794C29.1157 25.8251 29.3311 26.215 29.6133 26.5493C29.8956 26.8835 30.2373 27.1472 30.6384 27.3404C31.0395 27.5261 31.4963 27.6189 32.0088 27.6189C32.655 27.6189 33.2307 27.4889 33.7358 27.2289C34.2409 26.969 34.6791 26.6013 35.0505 26.1259L36.4656 27.4963C36.2056 27.8752 35.8676 28.2391 35.4516 28.5882C35.0357 28.9299 34.5269 29.2085 33.9252 29.4239C33.331 29.6393 32.6402 29.747 31.8528 29.747Z" fill="#111111"/>
<path d="M23.7105 15.5829V29.5241H21.3072L15.0547 19.5374V29.5241H12.6514V15.5829H15.0547L21.3263 25.5888V15.5829H23.7105Z" fill="#111111"/>
<path d="M84.3661 22.6649C84.3661 28.493 79.6415 33.2176 73.8134 33.2176C67.9853 33.2176 63.2607 28.493 63.2607 22.6649C63.2607 16.8368 67.9853 12.1122 73.8134 12.1122C79.6415 12.1122 84.3661 16.8368 84.3661 22.6649Z" fill="#111111"/>
<path d="M71.683 28.2168C71.395 28.2168 71.1682 28.1402 71.0028 27.987C70.8373 27.8338 70.7178 27.5857 70.6443 27.2425C70.6198 27.0832 70.6045 26.9024 70.5983 26.7002C70.5922 26.498 70.5922 26.2682 70.5983 26.0108C70.6045 25.7534 70.6198 25.4715 70.6443 25.1652C70.7178 23.9457 70.966 22.9132 71.3888 22.0675C71.8117 21.2157 72.3999 20.5692 73.1537 20.128C73.9074 19.6807 74.8051 19.457 75.8469 19.457C76.8947 19.457 77.7925 19.6684 78.5401 20.0913C79.2877 20.5141 79.8606 21.1636 80.2589 22.0399C80.6573 22.9162 80.8564 24.0346 80.8564 25.3949C80.8564 25.6401 80.8503 25.8668 80.838 26.0751C80.8319 26.2835 80.8196 26.4735 80.8013 26.645C80.7829 26.8166 80.7553 26.9729 80.7185 27.1138C80.6266 27.506 80.4887 27.7879 80.3049 27.9595C80.1272 28.131 79.8943 28.2168 79.6063 28.2168C79.3122 28.2168 79.0885 28.1678 78.9353 28.0698C78.7821 27.9717 78.6718 27.8247 78.6044 27.6286C78.537 27.4325 78.4911 27.1904 78.4665 26.9024C78.4482 26.4428 78.4298 26.0384 78.4114 25.6891C78.3991 25.3337 78.3777 25.0181 78.3471 24.7423C78.3225 24.4604 78.2919 24.2 78.2551 23.961C78.2184 23.7159 78.1724 23.4708 78.1173 23.2257C77.9763 22.6006 77.7404 22.1257 77.4095 21.8009C77.0786 21.4762 76.5853 21.3138 75.9296 21.3138C75.2984 21.3138 74.7898 21.4884 74.4038 21.8377C74.0238 22.187 73.7297 22.668 73.5213 23.2808C73.4294 23.5382 73.3528 23.8078 73.2915 24.0897C73.2303 24.3716 73.1782 24.6627 73.1353 24.9629C73.0985 25.2632 73.0648 25.5788 73.0342 25.9097C73.0097 26.2406 72.9852 26.5868 72.9606 26.9484C72.93 27.2915 72.8565 27.555 72.74 27.7389C72.6236 27.9227 72.4765 28.0483 72.2988 28.1157C72.1211 28.1831 71.9158 28.2168 71.683 28.2168Z" fill="white"/>
<path d="M67.9558 28.1341C67.5513 28.1341 67.2511 27.987 67.055 27.6929C66.865 27.3987 66.77 27.0188 66.77 26.5531C66.77 26.357 66.77 26.0813 66.77 25.7258C66.77 25.3704 66.7731 24.9629 66.7792 24.5033C66.7853 24.0437 66.7915 23.5566 66.7976 23.0418C66.8099 22.5271 66.8221 22.0093 66.8344 21.4884C66.8527 20.9675 66.8742 20.4712 66.8987 19.9993C66.9232 19.5275 66.9508 19.1077 66.9814 18.7401C67.0488 18.1456 67.1683 17.7259 67.3399 17.4808C67.5115 17.2357 67.7903 17.1131 68.1764 17.1131C68.5011 17.1131 68.7371 17.2387 68.8841 17.49C69.0312 17.7351 69.1262 18.0721 69.1691 18.5011C69.1813 18.7646 69.1936 19.0955 69.2059 19.4938C69.2181 19.8921 69.2273 20.3272 69.2334 20.799C69.2396 21.2709 69.2426 21.755 69.2426 22.2513C69.2487 22.7416 69.2518 23.2165 69.2518 23.6761C69.2518 24.1295 69.2518 24.5432 69.2518 24.917C69.2518 25.2846 69.2487 25.5788 69.2426 25.7994C69.2426 26.3815 69.2028 26.8442 69.1231 27.1873C69.0435 27.5244 68.9117 27.7664 68.7279 27.9135C68.5502 28.0606 68.2928 28.1341 67.9558 28.1341Z" fill="white"/>
<rect x="345.083" y="14.489" width="44.8561" height="14.7422" rx="7.37109" fill="black" stroke="black" stroke-width="0.6"/>
<path d="M353.865 21.3899C353.829 21.2749 353.78 21.1719 353.718 21.081C353.657 20.9887 353.583 20.9098 353.496 20.8445C353.411 20.7791 353.313 20.7301 353.202 20.6975C353.091 20.6634 352.971 20.6463 352.84 20.6463C352.606 20.6463 352.397 20.7053 352.214 20.8232C352.03 20.9411 351.886 21.1144 351.781 21.3431C351.677 21.5703 351.626 21.8473 351.626 22.174C351.626 22.5036 351.677 22.7827 351.781 23.0114C351.885 23.2401 352.029 23.4141 352.214 23.5334C352.398 23.6513 352.613 23.7102 352.857 23.7102C353.079 23.7102 353.27 23.6676 353.432 23.5824C353.596 23.4972 353.721 23.3764 353.81 23.2202C353.898 23.0625 353.942 22.8779 353.942 22.6662L354.121 22.6939H352.936V22.076H354.707V22.6002C354.707 22.9737 354.627 23.2969 354.468 23.5696C354.309 23.8424 354.09 24.0526 353.812 24.2003C353.533 24.3466 353.214 24.4198 352.853 24.4198C352.451 24.4198 352.098 24.3296 351.794 24.1492C351.491 23.9674 351.255 23.7095 351.084 23.3757C350.915 23.0405 350.831 22.6428 350.831 22.1826C350.831 21.8303 350.881 21.5156 350.98 21.2387C351.081 20.9617 351.221 20.7266 351.402 20.5334C351.582 20.3388 351.794 20.1911 352.037 20.0902C352.28 19.9879 352.544 19.9368 352.829 19.9368C353.071 19.9368 353.296 19.9723 353.505 20.0433C353.714 20.1129 353.899 20.2124 354.061 20.3416C354.224 20.4709 354.359 20.6243 354.464 20.8019C354.569 20.9794 354.638 21.1754 354.67 21.3899H353.865ZM356.886 24.424C356.558 24.424 356.274 24.3558 356.036 24.2195C355.798 24.0817 355.616 23.8871 355.488 23.6357C355.36 23.3828 355.296 23.0852 355.296 22.7429C355.296 22.4063 355.36 22.1108 355.488 21.8566C355.617 21.6009 355.798 21.402 356.029 21.26C356.261 21.1165 356.533 21.0448 356.845 21.0448C357.047 21.0448 357.237 21.0774 357.416 21.1428C357.597 21.2067 357.756 21.3061 357.894 21.4411C358.033 21.576 358.142 21.7479 358.222 21.9567C358.301 22.1641 358.341 22.4112 358.341 22.6982V22.9347H355.658V22.4148H357.602C357.6 22.2671 357.568 22.1357 357.506 22.0206C357.443 21.9041 357.356 21.8125 357.244 21.7458C357.133 21.679 357.004 21.6456 356.856 21.6456C356.698 21.6456 356.56 21.684 356.44 21.7607C356.321 21.836 356.228 21.9354 356.161 22.059C356.096 22.1811 356.063 22.3154 356.061 22.4617V22.9155C356.061 23.1058 356.096 23.2692 356.166 23.4056C356.235 23.5405 356.332 23.6442 356.457 23.7166C356.582 23.7877 356.729 23.8232 356.896 23.8232C357.009 23.8232 357.11 23.8076 357.201 23.7763C357.292 23.7436 357.371 23.696 357.438 23.6335C357.504 23.571 357.555 23.4936 357.589 23.4013L358.309 23.4823C358.264 23.6726 358.177 23.8388 358.049 23.9808C357.923 24.1215 357.761 24.2308 357.563 24.309C357.366 24.3857 357.14 24.424 356.886 24.424ZM360.628 21.0874V21.684H358.746V21.0874H360.628ZM359.211 20.3033H359.982V23.3757C359.982 23.4794 359.998 23.559 360.029 23.6144C360.062 23.6683 360.104 23.7053 360.157 23.7252C360.209 23.7451 360.268 23.755 360.332 23.755C360.38 23.755 360.424 23.7514 360.464 23.7443C360.505 23.7372 360.536 23.7308 360.557 23.7252L360.687 24.3281C360.646 24.3424 360.587 24.358 360.511 24.375C360.435 24.3921 360.343 24.402 360.234 24.4049C360.04 24.4105 359.866 24.3814 359.712 24.3175C359.557 24.2522 359.434 24.1513 359.343 24.0149C359.253 23.8786 359.209 23.7081 359.211 23.5036V20.3033ZM365.167 21.196C365.147 21.01 365.063 20.8651 364.915 20.7614C364.769 20.6577 364.579 20.6058 364.344 20.6058C364.179 20.6058 364.038 20.6307 363.92 20.6804C363.802 20.7301 363.712 20.7976 363.65 20.8828C363.587 20.9681 363.555 21.0654 363.554 21.1747C363.554 21.2656 363.574 21.3445 363.615 21.4112C363.658 21.478 363.716 21.5348 363.788 21.5817C363.86 21.6272 363.941 21.6655 364.029 21.6968C364.117 21.728 364.206 21.7543 364.295 21.7756L364.704 21.8779C364.869 21.9162 365.027 21.9681 365.179 22.0334C365.333 22.0987 365.47 22.1811 365.591 22.2806C365.713 22.38 365.809 22.5 365.88 22.6406C365.951 22.7813 365.987 22.946 365.987 23.135C365.987 23.3906 365.922 23.6158 365.791 23.8104C365.66 24.0036 365.471 24.1549 365.224 24.2642C364.978 24.3722 364.681 24.4262 364.331 24.4262C363.992 24.4262 363.697 24.3736 363.447 24.2685C363.199 24.1634 363.004 24.01 362.863 23.8083C362.724 23.6066 362.649 23.3608 362.637 23.071H363.415C363.427 23.223 363.473 23.3495 363.556 23.4503C363.638 23.5512 363.745 23.6264 363.878 23.6762C364.011 23.7259 364.16 23.7507 364.325 23.7507C364.497 23.7507 364.647 23.7252 364.777 23.674C364.907 23.6215 365.01 23.549 365.083 23.4567C365.157 23.3629 365.195 23.2536 365.196 23.1286C365.195 23.0149 365.162 22.9212 365.096 22.8473C365.031 22.772 364.939 22.7095 364.821 22.6598C364.705 22.6087 364.569 22.5632 364.412 22.5235L363.916 22.3956C363.557 22.3033 363.272 22.1634 363.064 21.9759C362.856 21.787 362.753 21.5362 362.753 21.2237C362.753 20.9666 362.822 20.7415 362.961 20.5483C363.102 20.3551 363.293 20.2053 363.534 20.0987C363.776 19.9908 364.049 19.9368 364.355 19.9368C364.664 19.9368 364.936 19.9908 365.169 20.0987C365.403 20.2053 365.587 20.3537 365.721 20.5441C365.854 20.733 365.923 20.9503 365.927 21.196H365.167ZM368.292 21.0874V21.684H366.41V21.0874H368.292ZM366.875 20.3033H367.646V23.3757C367.646 23.4794 367.662 23.559 367.693 23.6144C367.726 23.6683 367.768 23.7053 367.821 23.7252C367.873 23.7451 367.932 23.755 367.996 23.755C368.044 23.755 368.088 23.7514 368.128 23.7443C368.169 23.7372 368.2 23.7308 368.221 23.7252L368.351 24.3281C368.31 24.3424 368.251 24.358 368.175 24.375C368.099 24.3921 368.007 24.402 367.898 24.4049C367.704 24.4105 367.53 24.3814 367.376 24.3175C367.221 24.2522 367.098 24.1513 367.007 24.0149C366.917 23.8786 366.873 23.7081 366.875 23.5036V20.3033ZM369.879 24.4262C369.671 24.4262 369.484 24.3892 369.318 24.3154C369.153 24.2401 369.023 24.1293 368.926 23.983C368.831 23.8367 368.783 23.6563 368.783 23.4418C368.783 23.2571 368.818 23.1044 368.886 22.9837C368.954 22.8629 369.047 22.7664 369.165 22.6939C369.283 22.6215 369.416 22.5668 369.563 22.5299C369.712 22.4915 369.867 22.4638 370.026 22.4468C370.217 22.4269 370.373 22.4091 370.492 22.3935C370.612 22.3764 370.698 22.3509 370.752 22.3168C370.808 22.2813 370.835 22.2266 370.835 22.1527V22.1399C370.835 21.9794 370.788 21.8551 370.693 21.7671C370.597 21.679 370.46 21.635 370.281 21.635C370.092 21.635 369.943 21.6762 369.832 21.7585C369.722 21.8409 369.648 21.9382 369.61 22.0504L368.89 21.9482C368.947 21.7493 369.041 21.5831 369.171 21.4496C369.302 21.3147 369.462 21.2138 369.651 21.147C369.84 21.0789 370.048 21.0448 370.277 21.0448C370.435 21.0448 370.592 21.0632 370.748 21.1002C370.904 21.1371 371.047 21.1982 371.176 21.2834C371.305 21.3672 371.409 21.4816 371.487 21.6264C371.567 21.7713 371.607 21.9524 371.607 22.1698V24.3601H370.865V23.9105H370.84C370.793 24.0014 370.727 24.0867 370.641 24.1662C370.558 24.2443 370.452 24.3076 370.324 24.3558C370.197 24.4027 370.049 24.4262 369.879 24.4262ZM370.079 23.8594C370.234 23.8594 370.368 23.8289 370.482 23.7678C370.595 23.7053 370.683 23.6229 370.744 23.5206C370.806 23.4183 370.837 23.3068 370.837 23.1861V22.8004C370.813 22.8203 370.772 22.8388 370.714 22.8558C370.657 22.8729 370.593 22.8878 370.522 22.9006C370.451 22.9134 370.381 22.9247 370.311 22.9347C370.242 22.9446 370.181 22.9531 370.13 22.9602C370.015 22.9759 369.912 23.0014 369.821 23.037C369.73 23.0725 369.658 23.1222 369.606 23.1861C369.553 23.2486 369.527 23.3296 369.527 23.429C369.527 23.571 369.579 23.6783 369.683 23.7507C369.786 23.8232 369.918 23.8594 370.079 23.8594ZM372.382 24.3601V21.0874H373.13V21.6328H373.164C373.224 21.4439 373.326 21.2983 373.471 21.196C373.617 21.0924 373.784 21.0405 373.972 21.0405C374.014 21.0405 374.062 21.0426 374.114 21.0469C374.168 21.0497 374.213 21.0547 374.249 21.0618V21.7713C374.216 21.76 374.164 21.75 374.093 21.7415C374.023 21.7316 373.956 21.7266 373.891 21.7266C373.75 21.7266 373.624 21.7571 373.511 21.8182C373.401 21.8779 373.313 21.961 373.249 22.0675C373.185 22.174 373.153 22.2969 373.153 22.4361V24.3601H372.382ZM376.571 21.0874V21.684H374.69V21.0874H376.571ZM375.154 20.3033H375.925V23.3757C375.925 23.4794 375.941 23.559 375.972 23.6144C376.005 23.6683 376.048 23.7053 376.1 23.7252C376.153 23.7451 376.211 23.755 376.275 23.755C376.323 23.755 376.367 23.7514 376.407 23.7443C376.448 23.7372 376.479 23.7308 376.501 23.7252L376.631 24.3281C376.59 24.3424 376.531 24.358 376.454 24.375C376.379 24.3921 376.286 24.402 376.177 24.4049C375.984 24.4105 375.81 24.3814 375.655 24.3175C375.5 24.2522 375.377 24.1513 375.286 24.0149C375.197 23.8786 375.153 23.7081 375.154 23.5036V20.3033ZM378.63 24.424C378.302 24.424 378.018 24.3558 377.78 24.2195C377.542 24.0817 377.36 23.8871 377.232 23.6357C377.104 23.3828 377.04 23.0852 377.04 22.7429C377.04 22.4063 377.104 22.1108 377.232 21.8566C377.361 21.6009 377.542 21.402 377.773 21.26C378.005 21.1165 378.277 21.0448 378.589 21.0448C378.791 21.0448 378.981 21.0774 379.16 21.1428C379.341 21.2067 379.5 21.3061 379.638 21.4411C379.777 21.576 379.886 21.7479 379.966 21.9567C380.045 22.1641 380.085 22.4112 380.085 22.6982V22.9347H377.403V22.4148H379.346C379.344 22.2671 379.312 22.1357 379.25 22.0206C379.187 21.9041 379.1 21.8125 378.988 21.7458C378.877 21.679 378.748 21.6456 378.6 21.6456C378.442 21.6456 378.304 21.684 378.185 21.7607C378.065 21.836 377.972 21.9354 377.905 22.059C377.84 22.1811 377.807 22.3154 377.805 22.4617V22.9155C377.805 23.1058 377.84 23.2692 377.91 23.4056C377.979 23.5405 378.077 23.6442 378.202 23.7166C378.327 23.7877 378.473 23.8232 378.64 23.8232C378.753 23.8232 378.854 23.8076 378.945 23.7763C379.036 23.7436 379.115 23.696 379.182 23.6335C379.248 23.571 379.299 23.4936 379.333 23.4013L380.053 23.4823C380.008 23.6726 379.921 23.8388 379.793 23.9808C379.667 24.1215 379.505 24.2308 379.307 24.309C379.11 24.3857 378.884 24.424 378.63 24.424ZM381.952 24.4176C381.695 24.4176 381.465 24.3516 381.262 24.2195C381.059 24.0874 380.898 23.8956 380.78 23.6442C380.662 23.3928 380.603 23.0874 380.603 22.728C380.603 22.3644 380.663 22.0576 380.782 21.8076C380.903 21.5561 381.066 21.3665 381.27 21.2387C381.475 21.1094 381.703 21.0448 381.954 21.0448C382.146 21.0448 382.304 21.0774 382.427 21.1428C382.551 21.2067 382.649 21.2841 382.721 21.375C382.794 21.4645 382.85 21.549 382.89 21.6286H382.922V19.9965H383.695V24.3601H382.936V23.8445H382.89C382.85 23.924 382.792 24.0085 382.717 24.098C382.642 24.1861 382.542 24.2614 382.419 24.3239C382.295 24.3864 382.14 24.4176 381.952 24.4176ZM382.167 23.7848C382.331 23.7848 382.47 23.7408 382.585 23.6527C382.7 23.5632 382.787 23.4389 382.847 23.2799C382.907 23.1208 382.936 22.9354 382.936 22.7237C382.936 22.5121 382.907 22.3281 382.847 22.1719C382.789 22.0156 382.702 21.8942 382.587 21.8076C382.473 21.7209 382.333 21.6776 382.167 21.6776C381.995 21.6776 381.852 21.7223 381.737 21.8118C381.622 21.9013 381.535 22.0249 381.477 22.1826C381.419 22.3402 381.39 22.5206 381.39 22.7237C381.39 22.9283 381.419 23.1108 381.477 23.2713C381.537 23.4304 381.624 23.5561 381.739 23.6485C381.856 23.7394 381.998 23.7848 382.167 23.7848Z" fill="white"/>
<path d="M182.617 20.6519C182.569 20.6036 182.512 20.5653 182.45 20.5391C182.387 20.513 182.32 20.4995 182.252 20.4995C182.184 20.4995 182.116 20.513 182.054 20.5391C181.991 20.5653 181.934 20.6036 181.886 20.6519L179.527 23.0109C179.479 23.0592 179.422 23.0975 179.359 23.1237C179.296 23.1498 179.229 23.1633 179.161 23.1633C179.093 23.1633 179.026 23.1498 178.963 23.1237C178.9 23.0975 178.843 23.0592 178.795 23.0109L176.436 20.6519C176.388 20.6036 176.332 20.5653 176.269 20.5391C176.206 20.513 176.139 20.4995 176.071 20.4995C176.003 20.4995 175.935 20.513 175.873 20.5391C175.81 20.5653 175.753 20.6036 175.705 20.6519C175.609 20.7484 175.555 20.8789 175.555 21.015C175.555 21.1511 175.609 21.2816 175.705 21.3781L178.069 23.7423C178.359 24.0317 178.752 24.1943 179.161 24.1943C179.571 24.1943 179.963 24.0317 180.253 23.7423L182.617 21.3781C182.713 21.2816 182.767 21.1511 182.767 21.015C182.767 20.8789 182.713 20.7484 182.617 20.6519Z" fill="#535353"/>
<path d="M151.664 22.2117V21.4487H155.157V22.2117H151.664ZM154.625 19.5587H155.451V24.4587H154.625V19.5587ZM151.335 19.5587H152.161V24.4587H151.335V19.5587ZM157.139 22.0087C157.139 22.3447 157.209 22.6457 157.349 22.9117C157.493 23.1731 157.692 23.3784 157.944 23.5277C158.196 23.6771 158.483 23.7517 158.805 23.7517C159.131 23.7517 159.418 23.6771 159.666 23.5277C159.918 23.3784 160.114 23.1731 160.254 22.9117C160.398 22.6457 160.471 22.3447 160.471 22.0087C160.471 21.6727 160.401 21.3741 160.261 21.1127C160.121 20.8467 159.925 20.6391 159.673 20.4897C159.425 20.3404 159.136 20.2657 158.805 20.2657C158.483 20.2657 158.196 20.3404 157.944 20.4897C157.692 20.6391 157.493 20.8467 157.349 21.1127C157.209 21.3741 157.139 21.6727 157.139 22.0087ZM156.264 22.0087C156.264 21.6401 156.327 21.3017 156.453 20.9937C156.579 20.6857 156.756 20.4197 156.985 20.1957C157.218 19.9671 157.489 19.7897 157.797 19.6637C158.109 19.5377 158.445 19.4747 158.805 19.4747C159.173 19.4747 159.512 19.5377 159.82 19.6637C160.128 19.7897 160.396 19.9671 160.625 20.1957C160.858 20.4197 161.038 20.6857 161.164 20.9937C161.29 21.3017 161.353 21.6401 161.353 22.0087C161.353 22.3727 161.29 22.7111 161.164 23.0237C161.038 23.3364 160.86 23.6071 160.632 23.8357C160.403 24.0644 160.132 24.2441 159.82 24.3747C159.512 24.5007 159.173 24.5637 158.805 24.5637C158.441 24.5637 158.102 24.5007 157.79 24.3747C157.477 24.2441 157.206 24.0644 156.978 23.8357C156.754 23.6071 156.579 23.3364 156.453 23.0237C156.327 22.7111 156.264 22.3727 156.264 22.0087ZM163.066 21.4767L162.73 24.4587H161.876L162.548 19.3137L164.557 22.6387L166.573 19.3137L167.245 24.4587H166.391L166.048 21.4767L164.557 24.0037L163.066 21.4767ZM168.559 24.4587V23.7307H171.03V24.4587H168.559ZM168.559 20.2867V19.5587H171.03V20.2867H168.559ZM168.559 22.1907V21.4767H170.89V22.1907H168.559ZM168.048 19.5587H168.86V24.4587H168.048V19.5587Z" fill="black"/>
<path d="M232.312 20.6519C232.264 20.6036 232.207 20.5653 232.144 20.5391C232.081 20.513 232.014 20.4995 231.946 20.4995C231.878 20.4995 231.811 20.513 231.748 20.5391C231.685 20.5653 231.628 20.6036 231.58 20.6519L229.221 23.0109C229.173 23.0592 229.116 23.0975 229.054 23.1237C228.991 23.1498 228.923 23.1633 228.855 23.1633C228.787 23.1633 228.72 23.1498 228.657 23.1237C228.595 23.0975 228.538 23.0592 228.49 23.0109L226.131 20.6519C226.083 20.6036 226.026 20.5653 225.963 20.5391C225.9 20.513 225.833 20.4995 225.765 20.4995C225.697 20.4995 225.63 20.513 225.567 20.5391C225.504 20.5653 225.447 20.6036 225.399 20.6519C225.303 20.7484 225.25 20.8789 225.25 21.015C225.25 21.1511 225.303 21.2816 225.399 21.3781L227.764 23.7423C228.053 24.0317 228.446 24.1943 228.855 24.1943C229.265 24.1943 229.658 24.0317 229.947 23.7423L232.312 21.3781C232.408 21.2816 232.461 21.1511 232.461 21.015C232.461 20.8789 232.408 20.7484 232.312 20.6519Z" fill="#535353"/>
<path d="M200.617 23.1987L200.771 22.4987H203.046L203.207 23.1987H200.617ZM201.898 20.9447L201.128 22.7437L201.114 22.9257L200.435 24.4587H199.504L201.898 19.2857L204.292 24.4587H203.361L202.696 22.9677L202.675 22.7647L201.898 20.9447ZM205.492 21.9317V21.5257H206.283C206.437 21.5257 206.572 21.5001 206.689 21.4487C206.806 21.3974 206.897 21.3251 206.962 21.2317C207.027 21.1337 207.06 21.0171 207.06 20.8817C207.06 20.6764 206.988 20.5177 206.843 20.4057C206.698 20.2937 206.512 20.2377 206.283 20.2377H205.688V23.7797H206.374C206.561 23.7797 206.726 23.7494 206.871 23.6887C207.016 23.6281 207.13 23.5371 207.214 23.4157C207.298 23.2944 207.34 23.1427 207.34 22.9607C207.34 22.8301 207.314 22.7157 207.263 22.6177C207.216 22.5151 207.149 22.4311 207.06 22.3657C206.976 22.2957 206.876 22.2467 206.759 22.2187C206.642 22.1861 206.514 22.1697 206.374 22.1697H205.492V21.7147H206.423C206.661 21.7147 206.885 21.7404 207.095 21.7917C207.305 21.8431 207.492 21.9224 207.655 22.0297C207.823 22.1371 207.954 22.2747 208.047 22.4427C208.14 22.6107 208.187 22.8114 208.187 23.0447C208.187 23.3667 208.11 23.6327 207.956 23.8427C207.807 24.0527 207.599 24.2091 207.333 24.3117C207.072 24.4097 206.768 24.4587 206.423 24.4587H204.862V19.5587H206.339C206.647 19.5587 206.918 19.6031 207.151 19.6917C207.389 19.7804 207.573 19.9157 207.704 20.0977C207.839 20.2797 207.907 20.5107 207.907 20.7907C207.907 21.0334 207.839 21.2411 207.704 21.4137C207.573 21.5817 207.389 21.7101 207.151 21.7987C206.918 21.8874 206.647 21.9317 206.339 21.9317H205.492ZM209.654 22.0087C209.654 22.3447 209.724 22.6457 209.864 22.9117C210.009 23.1731 210.207 23.3784 210.459 23.5277C210.711 23.6771 210.998 23.7517 211.32 23.7517C211.647 23.7517 211.934 23.6771 212.181 23.5277C212.433 23.3784 212.629 23.1731 212.769 22.9117C212.914 22.6457 212.986 22.3447 212.986 22.0087C212.986 21.6727 212.916 21.3741 212.776 21.1127C212.636 20.8467 212.44 20.6391 212.188 20.4897C211.941 20.3404 211.652 20.2657 211.32 20.2657C210.998 20.2657 210.711 20.3404 210.459 20.4897C210.207 20.6391 210.009 20.8467 209.864 21.1127C209.724 21.3741 209.654 21.6727 209.654 22.0087ZM208.779 22.0087C208.779 21.6401 208.842 21.3017 208.968 20.9937C209.094 20.6857 209.272 20.4197 209.5 20.1957C209.734 19.9671 210.004 19.7897 210.312 19.6637C210.625 19.5377 210.961 19.4747 211.32 19.4747C211.689 19.4747 212.027 19.5377 212.335 19.6637C212.643 19.7897 212.912 19.9671 213.14 20.1957C213.374 20.4197 213.553 20.6857 213.679 20.9937C213.805 21.3017 213.868 21.6401 213.868 22.0087C213.868 22.3727 213.805 22.7111 213.679 23.0237C213.553 23.3364 213.376 23.6071 213.147 23.8357C212.919 24.0644 212.648 24.2441 212.335 24.3747C212.027 24.5007 211.689 24.5637 211.32 24.5637C210.956 24.5637 210.618 24.5007 210.305 24.3747C209.993 24.2441 209.722 24.0644 209.493 23.8357C209.269 23.6071 209.094 23.3364 208.968 23.0237C208.842 22.7111 208.779 22.3727 208.779 22.0087ZM214.636 19.5587H215.462V22.8137C215.462 23.1171 215.542 23.3621 215.7 23.5487C215.864 23.7307 216.104 23.8217 216.421 23.8217C216.734 23.8217 216.972 23.7307 217.135 23.5487C217.299 23.3621 217.38 23.1171 217.38 22.8137V19.5587H218.206V22.8487C218.206 23.1194 218.162 23.3621 218.073 23.5767C217.989 23.7867 217.868 23.9664 217.709 24.1157C217.551 24.2651 217.362 24.3794 217.142 24.4587C216.923 24.5381 216.683 24.5777 216.421 24.5777C216.16 24.5777 215.92 24.5381 215.7 24.4587C215.481 24.3794 215.29 24.2651 215.126 24.1157C214.968 23.9664 214.846 23.7867 214.762 23.5767C214.678 23.3621 214.636 23.1194 214.636 22.8487V19.5587ZM218.775 20.3217V19.5587H222.191V20.3217H220.896V24.4587H220.063V20.3217H218.775Z" fill="black"/>
</svg>
