<svg width="401" height="44" viewBox="0 0 401 44" fill="none" xmlns="http://www.w3.org/2000/svg">
<rect width="400" height="43.7207" transform="translate(0.311523)" fill="white"/>
<g clip-path="url(#clip0_559_170)">
<path d="M309.648 21.6797C310.232 21.6797 310.804 21.5063 311.29 21.1814C311.777 20.8565 312.156 20.3947 312.379 19.8545C312.603 19.3142 312.662 18.7197 312.548 18.1461C312.433 17.5726 312.152 17.0457 311.738 16.6322C311.325 16.2187 310.798 15.9371 310.224 15.823C309.651 15.709 309.056 15.7675 308.516 15.9913C307.976 16.2151 307.514 16.5941 307.189 17.0803C306.864 17.5665 306.691 18.1382 306.691 18.723C306.692 19.5069 307.003 20.2585 307.558 20.8128C308.112 21.3671 308.864 21.6789 309.648 21.6797ZM309.648 16.7518C310.037 16.7518 310.419 16.8674 310.743 17.084C311.067 17.3006 311.32 17.6085 311.469 17.9686C311.618 18.3288 311.657 18.7251 311.581 19.1075C311.505 19.4899 311.317 19.8411 311.041 20.1168C310.766 20.3924 310.415 20.5802 310.032 20.6562C309.65 20.7323 309.253 20.6933 308.893 20.5441C308.533 20.3949 308.225 20.1422 308.009 19.8181C307.792 19.4939 307.676 19.1128 307.676 18.723C307.676 18.2002 307.884 17.6988 308.254 17.3291C308.623 16.9595 309.125 16.7518 309.648 16.7518Z" fill="black"/>
<path d="M309.648 22.6653C308.472 22.6666 307.345 23.1343 306.513 23.9657C305.682 24.7972 305.214 25.9245 305.213 27.1004C305.213 27.2311 305.265 27.3564 305.357 27.4488C305.45 27.5412 305.575 27.5932 305.706 27.5932C305.836 27.5932 305.962 27.5412 306.054 27.4488C306.147 27.3564 306.198 27.2311 306.198 27.1004C306.198 26.1855 306.562 25.3081 307.209 24.6612C307.856 24.0143 308.733 23.6509 309.648 23.6509C310.563 23.6509 311.44 24.0143 312.087 24.6612C312.734 25.3081 313.097 26.1855 313.097 27.1004C313.097 27.2311 313.149 27.3564 313.242 27.4488C313.334 27.5412 313.46 27.5932 313.59 27.5932C313.721 27.5932 313.846 27.5412 313.939 27.4488C314.031 27.3564 314.083 27.2311 314.083 27.1004C314.082 25.9245 313.614 24.7972 312.783 23.9657C311.951 23.1343 310.824 22.6666 309.648 22.6653Z" fill="black"/>
</g>
<path d="M329.269 25.9187C331.63 25.9187 333.544 24.0049 333.544 21.644C333.544 19.2831 331.63 17.3693 329.269 17.3693C326.908 17.3693 324.994 19.2831 324.994 21.644C324.994 24.0049 326.908 25.9187 329.269 25.9187Z" stroke="black" stroke-width="1.22135" stroke-linecap="round" stroke-linejoin="round"/>
<path d="M334.612 26.9874L332.288 24.663" stroke="black" stroke-width="1.22135" stroke-linecap="round" stroke-linejoin="round"/>
<path d="M282.106 21.6797H293.933" stroke="black" stroke-width="1.57692" stroke-linecap="round" stroke-linejoin="round"/>
<path d="M282.106 17.9346H293.933" stroke="black" stroke-width="1.57692" stroke-linecap="round" stroke-linejoin="round"/>
<path d="M282.106 25.4249H293.933" stroke="black" stroke-width="1.57692" stroke-linecap="round" stroke-linejoin="round"/>
<line x1="319.165" y1="15.699" x2="319.165" y2="28.2645" stroke="#D5D5D5" stroke-width="0.78846"/>
<line x1="300.01" y1="15.699" x2="300.01" y2="28.2645" stroke="#D5D5D5" stroke-width="0.78846"/>
<path d="M60.9772 27.3852V29.5245H51.9969V27.3852H60.9772ZM60.7321 19.1403L52.9105 29.5245H51.1724V27.7975L58.9494 17.469H60.7321V19.1403ZM59.6959 17.469V19.6082H51.3061V17.469H59.6959Z" fill="#111111"/>
<path d="M46.0249 26.6833V17.469H48.7212V29.5245H46.1809L46.0249 26.6833ZM46.4037 24.1764L47.3062 24.1541C47.3062 24.9637 47.217 25.7102 47.0388 26.3936C46.8605 27.0695 46.5857 27.6601 46.2143 28.1652C45.8429 28.6628 45.3675 29.0528 44.7881 29.3351C44.2087 29.6099 43.5142 29.7473 42.7046 29.7473C42.1178 29.7473 41.5793 29.6619 41.089 29.491C40.5988 29.3202 40.1754 29.0565 39.8189 28.7C39.4698 28.3434 39.1986 27.8792 39.0055 27.3072C38.8124 26.7353 38.7158 26.0519 38.7158 25.2571V17.469H41.401V25.2794C41.401 25.7177 41.453 26.0853 41.557 26.3825C41.661 26.6722 41.8021 26.9061 41.9804 27.0844C42.1586 27.2627 42.3666 27.3889 42.6043 27.4632C42.842 27.5375 43.0946 27.5746 43.362 27.5746C44.127 27.5746 44.7287 27.4261 45.1669 27.129C45.6126 26.8244 45.9283 26.4159 46.114 25.9034C46.3071 25.3908 46.4037 24.8152 46.4037 24.1764Z" fill="#111111"/>
<path d="M31.8528 29.7474C30.9615 29.7474 30.1556 29.6025 29.4351 29.3128C28.722 29.0157 28.1129 28.6035 27.6078 28.0761C27.1101 27.5487 26.7276 26.9285 26.4602 26.2154C26.1928 25.5023 26.0591 24.7335 26.0591 23.909V23.4634C26.0591 22.52 26.1965 21.6658 26.4713 20.9007C26.7462 20.1357 27.1287 19.482 27.6189 18.9398C28.1092 18.3901 28.6886 17.9704 29.3571 17.6807C30.0256 17.3911 30.7498 17.2462 31.5297 17.2462C32.3914 17.2462 33.1453 17.3911 33.7915 17.6807C34.4377 17.9704 34.9726 18.379 35.3959 18.9063C35.8268 19.4263 36.1462 20.0465 36.3541 20.767C36.5695 21.4875 36.6773 22.2823 36.6773 23.1514V24.299H27.3627V22.3715H34.0255V22.1598C34.0106 21.677 33.9141 21.2239 33.7358 20.8005C33.565 20.3771 33.3013 20.0354 32.9447 19.7754C32.5882 19.5154 32.1128 19.3854 31.5186 19.3854C31.0729 19.3854 30.6755 19.482 30.3264 19.6751C29.9847 19.8608 29.6987 20.132 29.4685 20.4885C29.2382 20.845 29.0599 21.2758 28.9337 21.7809C28.8148 22.2786 28.7554 22.8394 28.7554 23.4634V23.909C28.7554 24.4364 28.826 24.9267 28.9671 25.3798C29.1157 25.8254 29.3311 26.2154 29.6133 26.5497C29.8956 26.8839 30.2373 27.1476 30.6384 27.3407C31.0395 27.5264 31.4963 27.6193 32.0088 27.6193C32.655 27.6193 33.2307 27.4893 33.7358 27.2293C34.2409 26.9693 34.6791 26.6016 35.0505 26.1263L36.4656 27.4967C36.2056 27.8755 35.8676 28.2395 35.4516 28.5886C35.0357 28.9303 34.5269 29.2088 33.9252 29.4242C33.331 29.6397 32.6402 29.7474 31.8528 29.7474Z" fill="#111111"/>
<path d="M23.7105 15.5833V29.5245H21.3072L15.0547 19.5377V29.5245H12.6514V15.5833H15.0547L21.3263 25.5891V15.5833H23.7105Z" fill="#111111"/>
<path d="M84.3661 22.6652C84.3661 28.4933 79.6415 33.218 73.8134 33.218C67.9853 33.218 63.2607 28.4933 63.2607 22.6652C63.2607 16.8372 67.9853 12.1125 73.8134 12.1125C79.6415 12.1125 84.3661 16.8372 84.3661 22.6652Z" fill="#111111"/>
<path d="M71.683 28.2171C71.395 28.2171 71.1682 28.1405 71.0028 27.9873C70.8373 27.8341 70.7178 27.5859 70.6443 27.2427C70.6198 27.0834 70.6045 26.9026 70.5983 26.7004C70.5922 26.4982 70.5922 26.2684 70.5983 26.011C70.6045 25.7537 70.6198 25.4718 70.6443 25.1654C70.7178 23.9459 70.966 22.9134 71.3888 22.0678C71.8117 21.216 72.3999 20.5695 73.1537 20.1283C73.9074 19.6809 74.8051 19.4573 75.8469 19.4573C76.8947 19.4573 77.7925 19.6687 78.5401 20.0915C79.2877 20.5143 79.8606 21.1639 80.2589 22.0402C80.6573 22.9165 80.8564 24.0348 80.8564 25.3952C80.8564 25.6403 80.8503 25.867 80.838 26.0754C80.8319 26.2837 80.8196 26.4737 80.8013 26.6453C80.7829 26.8169 80.7553 26.9731 80.7185 27.1141C80.6266 27.5062 80.4887 27.7881 80.3049 27.9597C80.1272 28.1313 79.8943 28.2171 79.6063 28.2171C79.3122 28.2171 79.0885 28.1681 78.9353 28.07C78.7821 27.972 78.6718 27.8249 78.6044 27.6288C78.537 27.4327 78.4911 27.1907 78.4665 26.9026C78.4482 26.4431 78.4298 26.0386 78.4114 25.6893C78.3991 25.3339 78.3777 25.0183 78.3471 24.7426C78.3225 24.4607 78.2919 24.2003 78.2551 23.9613C78.2184 23.7162 78.1724 23.471 78.1173 23.2259C77.9763 22.6009 77.7404 22.126 77.4095 21.8012C77.0786 21.4764 76.5853 21.314 75.9296 21.314C75.2984 21.314 74.7898 21.4887 74.4038 21.838C74.0238 22.1872 73.7297 22.6683 73.5213 23.2811C73.4294 23.5384 73.3528 23.8081 73.2915 24.09C73.2303 24.3718 73.1782 24.6629 73.1353 24.9632C73.0985 25.2634 73.0648 25.579 73.0342 25.9099C73.0097 26.2408 72.9852 26.5871 72.9606 26.9486C72.93 27.2918 72.8565 27.5553 72.74 27.7391C72.6236 27.9229 72.4765 28.0486 72.2988 28.116C72.1211 28.1834 71.9158 28.2171 71.683 28.2171Z" fill="white"/>
<path d="M67.9558 28.1344C67.5513 28.1344 67.2511 27.9873 67.055 27.6932C66.865 27.3991 66.77 27.0191 66.77 26.5534C66.77 26.3573 66.77 26.0816 66.77 25.7261C66.77 25.3707 66.7731 24.9632 66.7792 24.5036C66.7853 24.044 66.7915 23.5569 66.7976 23.0421C66.8099 22.5274 66.8221 22.0096 66.8344 21.4887C66.8527 20.9678 66.8742 20.4715 66.8987 19.9996C66.9232 19.5278 66.9508 19.108 66.9814 18.7404C67.0488 18.146 67.1683 17.7262 67.3399 17.4811C67.5115 17.236 67.7903 17.1134 68.1764 17.1134C68.5011 17.1134 68.7371 17.239 68.8841 17.4903C69.0312 17.7354 69.1262 18.0724 69.1691 18.5014C69.1813 18.7649 69.1936 19.0958 69.2059 19.4941C69.2181 19.8924 69.2273 20.3275 69.2334 20.7993C69.2396 21.2712 69.2426 21.7553 69.2426 22.2516C69.2487 22.7419 69.2518 23.2168 69.2518 23.6764C69.2518 24.1298 69.2518 24.5435 69.2518 24.9173C69.2518 25.2849 69.2487 25.5791 69.2426 25.7997C69.2426 26.3818 69.2028 26.8445 69.1231 27.1876C69.0435 27.5247 68.9117 27.7667 68.7279 27.9138C68.5502 28.0609 68.2928 28.1344 67.9558 28.1344Z" fill="white"/>
<rect x="344.083" y="14.8072" width="44.8561" height="14.7422" rx="7.37109" fill="#F0F3F8" stroke="black" stroke-width="0.6"/>
<path d="M352.944 21.6933C352.903 21.564 352.847 21.4482 352.778 21.346C352.709 21.2423 352.628 21.1542 352.533 21.0818C352.437 21.0079 352.329 20.9518 352.207 20.9134C352.086 20.8751 351.953 20.8559 351.808 20.8559C351.562 20.8559 351.341 20.9191 351.143 21.0455C350.946 21.172 350.79 21.3573 350.675 21.6016C350.561 21.8445 350.504 22.1421 350.504 22.4944C350.504 22.8481 350.562 23.1471 350.677 23.3914C350.792 23.6357 350.949 23.8211 351.15 23.9475C351.35 24.0739 351.578 24.1372 351.834 24.1372C352.071 24.1372 352.278 24.0889 352.454 23.9923C352.631 23.8957 352.768 23.7593 352.865 23.5832C352.963 23.4056 353.012 23.1968 353.012 22.9568L353.182 22.9887H351.934V22.4454H353.649V22.9418C353.649 23.3083 353.571 23.6265 353.415 23.8964C353.26 24.1649 353.045 24.3722 352.771 24.5185C352.498 24.6649 352.186 24.738 351.834 24.738C351.439 24.738 351.092 24.6471 350.794 24.4653C350.497 24.2835 350.265 24.0256 350.099 23.6918C349.933 23.3566 349.85 22.9589 349.85 22.4987C349.85 22.1506 349.898 21.8381 349.995 21.5612C350.091 21.2842 350.227 21.0491 350.402 20.8559C350.578 20.6613 350.785 20.5129 351.022 20.4106C351.261 20.3069 351.521 20.255 351.804 20.255C352.04 20.255 352.259 20.2899 352.462 20.3595C352.667 20.4291 352.849 20.5278 353.008 20.6556C353.168 20.7835 353.301 20.9354 353.406 21.1116C353.511 21.2863 353.582 21.4802 353.619 21.6933H352.944ZM355.844 24.7444C355.522 24.7444 355.244 24.6755 355.011 24.5377C354.78 24.3985 354.601 24.2032 354.474 23.9518C354.349 23.6989 354.287 23.4028 354.287 23.0633C354.287 22.7281 354.349 22.4326 354.474 22.1769C354.601 21.9212 354.777 21.7217 355.003 21.5782C355.23 21.4347 355.495 21.363 355.799 21.363C355.984 21.363 356.163 21.3935 356.336 21.4546C356.51 21.5157 356.665 21.6116 356.803 21.7423C356.941 21.8729 357.049 22.0427 357.129 22.2515C357.208 22.4589 357.248 22.711 357.248 23.0079V23.2337H354.647V22.7565H356.624C356.624 22.5889 356.59 22.4404 356.522 22.3112C356.454 22.1805 356.358 22.0775 356.234 22.0022C356.112 21.9269 355.968 21.8893 355.804 21.8893C355.625 21.8893 355.468 21.9333 355.335 22.0214C355.203 22.108 355.101 22.2217 355.028 22.3623C354.957 22.5015 354.922 22.6528 354.922 22.8161V23.189C354.922 23.4077 354.96 23.5938 355.037 23.7472C355.115 23.9006 355.223 24.0178 355.363 24.0988C355.502 24.1783 355.664 24.2181 355.851 24.2181C355.971 24.2181 356.081 24.2011 356.181 24.167C356.28 24.1315 356.366 24.0789 356.439 24.0093C356.511 23.9397 356.566 23.8538 356.605 23.7515L357.208 23.8602C357.159 24.0377 357.073 24.1933 356.948 24.3268C356.824 24.4589 356.669 24.5619 356.481 24.6357C356.295 24.7082 356.083 24.7444 355.844 24.7444ZM359.483 21.4056V21.917H357.695V21.4056H359.483ZM358.175 20.6215H358.812V23.7174C358.812 23.841 358.83 23.934 358.867 23.9965C358.904 24.0576 358.952 24.0995 359.01 24.1222C359.069 24.1435 359.134 24.1542 359.204 24.1542C359.255 24.1542 359.3 24.1506 359.338 24.1435C359.376 24.1364 359.406 24.1308 359.427 24.1265L359.542 24.6528C359.506 24.667 359.453 24.6812 359.385 24.6954C359.317 24.711 359.231 24.7195 359.129 24.721C358.962 24.7238 358.805 24.694 358.66 24.6315C358.515 24.569 358.398 24.4724 358.309 24.3417C358.219 24.211 358.175 24.047 358.175 23.8495V20.6215ZM364.207 21.461C364.184 21.2593 364.09 21.1031 363.925 20.9923C363.761 20.88 363.553 20.8239 363.303 20.8239C363.124 20.8239 362.969 20.8524 362.839 20.9092C362.708 20.9646 362.606 21.0413 362.534 21.1393C362.463 21.2359 362.427 21.346 362.427 21.4695C362.427 21.5732 362.452 21.6627 362.5 21.738C362.55 21.8133 362.614 21.8765 362.694 21.9276C362.775 21.9774 362.861 22.0193 362.954 22.0533C363.046 22.086 363.135 22.113 363.22 22.1343L363.646 22.2451C363.785 22.2792 363.928 22.3254 364.074 22.3836C364.221 22.4418 364.356 22.5185 364.481 22.6137C364.606 22.7089 364.707 22.8268 364.784 22.9674C364.862 23.108 364.901 23.2764 364.901 23.4724C364.901 23.7195 364.837 23.939 364.709 24.1308C364.583 24.3225 364.399 24.4738 364.158 24.5846C363.917 24.6954 363.627 24.7508 363.286 24.7508C362.959 24.7508 362.677 24.6989 362.438 24.5952C362.199 24.4916 362.013 24.3445 361.878 24.1542C361.743 23.9624 361.668 23.7352 361.654 23.4724H362.314C362.327 23.63 362.378 23.7614 362.468 23.8666C362.559 23.9702 362.675 24.0477 362.815 24.0988C362.957 24.1485 363.113 24.1734 363.282 24.1734C363.468 24.1734 363.633 24.1443 363.778 24.086C363.925 24.0264 364.04 23.944 364.123 23.8389C364.207 23.7323 364.249 23.608 364.249 23.466C364.249 23.3367 364.212 23.2309 364.138 23.1485C364.066 23.0661 363.967 22.9979 363.842 22.944C363.719 22.89 363.579 22.8424 363.422 22.8012L362.907 22.6606C362.557 22.5654 362.28 22.4255 362.076 22.2408C361.873 22.0562 361.771 21.8119 361.771 21.5079C361.771 21.2565 361.839 21.037 361.976 20.8495C362.112 20.662 362.297 20.5164 362.53 20.4127C362.763 20.3076 363.025 20.255 363.318 20.255C363.614 20.255 363.874 20.3069 364.1 20.4106C364.327 20.5143 364.506 20.657 364.637 20.8389C364.768 21.0193 364.836 21.2266 364.841 21.461H364.207ZM367.164 21.4056V21.917H365.377V21.4056H367.164ZM365.856 20.6215H366.493V23.7174C366.493 23.841 366.512 23.934 366.549 23.9965C366.586 24.0576 366.633 24.0995 366.691 24.1222C366.751 24.1435 366.816 24.1542 366.885 24.1542C366.936 24.1542 366.981 24.1506 367.02 24.1435C367.058 24.1364 367.088 24.1308 367.109 24.1265L367.224 24.6528C367.187 24.667 367.135 24.6812 367.066 24.6954C366.998 24.711 366.913 24.7195 366.811 24.721C366.643 24.7238 366.487 24.694 366.342 24.6315C366.197 24.569 366.08 24.4724 365.99 24.3417C365.901 24.211 365.856 24.047 365.856 23.8495V20.6215ZM368.822 24.7508C368.614 24.7508 368.427 24.7124 368.259 24.6357C368.091 24.5576 367.959 24.4447 367.861 24.297C367.764 24.1492 367.716 23.9681 367.716 23.7536C367.716 23.569 367.751 23.417 367.822 23.2977C367.893 23.1783 367.989 23.0839 368.11 23.0143C368.231 22.9447 368.366 22.8921 368.515 22.8566C368.664 22.8211 368.816 22.7941 368.971 22.7756C369.167 22.7529 369.326 22.7345 369.448 22.7202C369.57 22.7046 369.659 22.6798 369.714 22.6457C369.77 22.6116 369.797 22.5562 369.797 22.4795V22.4646C369.797 22.2785 369.745 22.1343 369.64 22.032C369.536 21.9298 369.381 21.8786 369.175 21.8786C368.961 21.8786 368.792 21.9262 368.668 22.0214C368.546 22.1151 368.462 22.2195 368.415 22.3346L367.816 22.1982C367.887 21.9994 367.991 21.8389 368.127 21.7167C368.265 21.5931 368.423 21.5036 368.602 21.4482C368.781 21.3914 368.969 21.363 369.167 21.363C369.297 21.363 369.436 21.3786 369.582 21.4099C369.73 21.4397 369.868 21.4951 369.996 21.5761C370.125 21.657 370.231 21.7728 370.313 21.9234C370.395 22.0725 370.437 22.2664 370.437 22.505V24.6783H369.814V24.2309H369.789C369.748 24.3133 369.686 24.3943 369.604 24.4738C369.521 24.5533 369.415 24.6194 369.286 24.672C369.157 24.7245 369.002 24.7508 368.822 24.7508ZM368.96 24.2394C369.136 24.2394 369.287 24.2046 369.412 24.135C369.538 24.0654 369.634 23.9745 369.699 23.8623C369.766 23.7487 369.8 23.6272 369.8 23.4979V23.0761C369.777 23.0988 369.733 23.1201 369.667 23.14C369.604 23.1585 369.53 23.1748 369.448 23.189C369.366 23.2018 369.285 23.2139 369.207 23.2252C369.129 23.2352 369.064 23.2437 369.011 23.2508C368.888 23.2664 368.775 23.2927 368.672 23.3296C368.572 23.3666 368.491 23.4198 368.43 23.4894C368.37 23.5576 368.34 23.6485 368.34 23.7622C368.34 23.9198 368.398 24.0391 368.515 24.1201C368.631 24.1997 368.78 24.2394 368.96 24.2394ZM371.285 24.6783V21.4056H371.901V21.9255H371.935C371.995 21.7494 372.1 21.6109 372.25 21.51C372.402 21.4077 372.574 21.3566 372.766 21.3566C372.806 21.3566 372.853 21.358 372.907 21.3609C372.962 21.3637 373.005 21.3673 373.037 21.3715V21.9809C373.011 21.9738 372.966 21.966 372.9 21.9575C372.835 21.9475 372.77 21.9425 372.704 21.9425C372.554 21.9425 372.419 21.9745 372.302 22.0384C372.185 22.1009 372.093 22.1883 372.025 22.3005C371.956 22.4113 371.922 22.5377 371.922 22.6798V24.6783H371.285ZM375.309 21.4056V21.917H373.521V21.4056H375.309ZM374.001 20.6215H374.638V23.7174C374.638 23.841 374.656 23.934 374.693 23.9965C374.73 24.0576 374.778 24.0995 374.836 24.1222C374.896 24.1435 374.96 24.1542 375.03 24.1542C375.081 24.1542 375.126 24.1506 375.164 24.1435C375.202 24.1364 375.232 24.1308 375.254 24.1265L375.369 24.6528C375.332 24.667 375.279 24.6812 375.211 24.6954C375.143 24.711 375.058 24.7195 374.955 24.721C374.788 24.7238 374.631 24.694 374.487 24.6315C374.342 24.569 374.224 24.4724 374.135 24.3417C374.045 24.211 374.001 24.047 374.001 23.8495V20.6215ZM377.389 24.7444C377.067 24.7444 376.789 24.6755 376.556 24.5377C376.324 24.3985 376.145 24.2032 376.019 23.9518C375.894 23.6989 375.832 23.4028 375.832 23.0633C375.832 22.7281 375.894 22.4326 376.019 22.1769C376.145 21.9212 376.322 21.7217 376.547 21.5782C376.775 21.4347 377.04 21.363 377.344 21.363C377.529 21.363 377.708 21.3935 377.881 21.4546C378.055 21.5157 378.21 21.6116 378.348 21.7423C378.486 21.8729 378.594 22.0427 378.674 22.2515C378.753 22.4589 378.793 22.711 378.793 23.0079V23.2337H376.192V22.7565H378.169C378.169 22.5889 378.135 22.4404 378.067 22.3112C377.998 22.1805 377.903 22.0775 377.779 22.0022C377.657 21.9269 377.513 21.8893 377.349 21.8893C377.17 21.8893 377.013 21.9333 376.88 22.0214C376.748 22.108 376.645 22.2217 376.573 22.3623C376.502 22.5015 376.466 22.6528 376.466 22.8161V23.189C376.466 23.4077 376.505 23.5938 376.582 23.7472C376.66 23.9006 376.768 24.0178 376.908 24.0988C377.047 24.1783 377.209 24.2181 377.395 24.2181C377.516 24.2181 377.626 24.2011 377.726 24.167C377.825 24.1315 377.911 24.0789 377.984 24.0093C378.056 23.9397 378.111 23.8538 378.15 23.7515L378.753 23.8602C378.704 24.0377 378.618 24.1933 378.493 24.3268C378.369 24.4589 378.214 24.5619 378.026 24.6357C377.84 24.7082 377.628 24.7444 377.389 24.7444ZM380.725 24.7423C380.461 24.7423 380.225 24.6748 380.018 24.5399C379.812 24.4035 379.65 24.2096 379.532 23.9582C379.416 23.7053 379.357 23.4021 379.357 23.0484C379.357 22.6947 379.416 22.3921 379.534 22.1407C379.653 21.8893 379.817 21.6968 380.024 21.5633C380.232 21.4298 380.467 21.363 380.729 21.363C380.933 21.363 381.096 21.3971 381.22 21.4653C381.345 21.532 381.441 21.6102 381.509 21.6997C381.579 21.7891 381.633 21.868 381.671 21.9362H381.71V20.3147H382.347V24.6783H381.724V24.1691H381.671C381.633 24.2387 381.577 24.3183 381.505 24.4077C381.434 24.4972 381.336 24.5754 381.211 24.6421C381.086 24.7089 380.924 24.7423 380.725 24.7423ZM380.866 24.1989C381.049 24.1989 381.204 24.1506 381.33 24.0541C381.458 23.956 381.555 23.8204 381.62 23.6471C381.687 23.4738 381.72 23.2721 381.72 23.042C381.72 22.8147 381.688 22.6158 381.622 22.4454C381.557 22.2749 381.461 22.1421 381.335 22.047C381.208 21.9518 381.052 21.9042 380.866 21.9042C380.674 21.9042 380.514 21.9539 380.386 22.0533C380.259 22.1528 380.162 22.2884 380.097 22.4603C380.033 22.6322 380.001 22.8261 380.001 23.042C380.001 23.2607 380.033 23.4575 380.099 23.6322C380.164 23.8069 380.261 23.9454 380.389 24.0477C380.518 24.1485 380.677 24.1989 380.866 24.1989Z" fill="black"/>
<path d="M215.344 21.1277C215.296 21.0794 215.239 21.0411 215.176 21.015C215.113 20.9888 215.046 20.9753 214.978 20.9753C214.91 20.9753 214.843 20.9888 214.78 21.015C214.717 21.0411 214.66 21.0794 214.612 21.1277L212.253 23.4868C212.206 23.535 212.149 23.5734 212.086 23.5995C212.023 23.6257 211.956 23.6391 211.888 23.6391C211.82 23.6391 211.752 23.6257 211.69 23.5995C211.627 23.5734 211.57 23.535 211.522 23.4868L209.163 21.1277C209.115 21.0794 209.058 21.0411 208.995 21.015C208.933 20.9888 208.865 20.9753 208.797 20.9753C208.729 20.9753 208.662 20.9888 208.599 21.015C208.536 21.0411 208.479 21.0794 208.432 21.1277C208.336 21.2242 208.282 21.3548 208.282 21.4908C208.282 21.6269 208.336 21.7575 208.432 21.854L210.796 24.2182C211.085 24.5075 211.478 24.6701 211.888 24.6701C212.297 24.6701 212.69 24.5075 212.98 24.2182L215.344 21.854C215.44 21.7575 215.494 21.6269 215.494 21.4908C215.494 21.3548 215.44 21.2242 215.344 21.1277Z" fill="#535353"/>
<path d="M184.39 22.6876V21.9246H187.883V22.6876H184.39ZM187.351 20.0346H188.177V24.9346H187.351V20.0346ZM184.061 20.0346H184.887V24.9346H184.061V20.0346ZM189.865 22.4846C189.865 22.8206 189.935 23.1216 190.075 23.3876C190.22 23.6489 190.418 23.8542 190.67 24.0036C190.922 24.1529 191.209 24.2276 191.531 24.2276C191.858 24.2276 192.145 24.1529 192.392 24.0036C192.644 23.8542 192.84 23.6489 192.98 23.3876C193.125 23.1216 193.197 22.8206 193.197 22.4846C193.197 22.1486 193.127 21.8499 192.987 21.5886C192.847 21.3226 192.651 21.1149 192.399 20.9656C192.152 20.8162 191.862 20.7416 191.531 20.7416C191.209 20.7416 190.922 20.8162 190.67 20.9656C190.418 21.1149 190.22 21.3226 190.075 21.5886C189.935 21.8499 189.865 22.1486 189.865 22.4846ZM188.99 22.4846C188.99 22.1159 189.053 21.7776 189.179 21.4696C189.305 21.1616 189.482 20.8956 189.711 20.6716C189.944 20.4429 190.215 20.2656 190.523 20.1396C190.836 20.0136 191.172 19.9506 191.531 19.9506C191.9 19.9506 192.238 20.0136 192.546 20.1396C192.854 20.2656 193.122 20.4429 193.351 20.6716C193.584 20.8956 193.764 21.1616 193.89 21.4696C194.016 21.7776 194.079 22.1159 194.079 22.4846C194.079 22.8486 194.016 23.1869 193.89 23.4996C193.764 23.8122 193.587 24.0829 193.358 24.3116C193.129 24.5402 192.859 24.7199 192.546 24.8506C192.238 24.9766 191.9 25.0396 191.531 25.0396C191.167 25.0396 190.829 24.9766 190.516 24.8506C190.203 24.7199 189.933 24.5402 189.704 24.3116C189.48 24.0829 189.305 23.8122 189.179 23.4996C189.053 23.1869 188.99 22.8486 188.99 22.4846ZM195.792 21.9526L195.456 24.9346H194.602L195.274 19.7896L197.283 23.1146L199.299 19.7896L199.971 24.9346H199.117L198.774 21.9526L197.283 24.4796L195.792 21.9526ZM201.286 24.9346V24.2066H203.757V24.9346H201.286ZM201.286 20.7626V20.0346H203.757V20.7626H201.286ZM201.286 22.6666V21.9526H203.617V22.6666H201.286ZM200.775 20.0346H201.587V24.9346H200.775V20.0346Z" fill="black"/>
<path d="M265.038 21.1277C264.99 21.0794 264.933 21.0411 264.871 21.015C264.808 20.9888 264.74 20.9753 264.673 20.9753C264.605 20.9753 264.537 20.9888 264.474 21.015C264.412 21.0411 264.355 21.0794 264.307 21.1277L261.948 23.4868C261.9 23.535 261.843 23.5734 261.78 23.5995C261.717 23.6257 261.65 23.6391 261.582 23.6391C261.514 23.6391 261.447 23.6257 261.384 23.5995C261.321 23.5734 261.264 23.535 261.216 23.4868L258.857 21.1277C258.809 21.0794 258.752 21.0411 258.69 21.015C258.627 20.9888 258.56 20.9753 258.492 20.9753C258.424 20.9753 258.356 20.9888 258.293 21.015C258.231 21.0411 258.174 21.0794 258.126 21.1277C258.03 21.2242 257.976 21.3548 257.976 21.4908C257.976 21.6269 258.03 21.7575 258.126 21.854L260.49 24.2182C260.78 24.5075 261.173 24.6701 261.582 24.6701C261.992 24.6701 262.384 24.5075 262.674 24.2182L265.038 21.854C265.134 21.7575 265.188 21.6269 265.188 21.4908C265.188 21.3548 265.134 21.2242 265.038 21.1277Z" fill="#535353"/>
<path d="M233.343 23.6746L233.497 22.9746H235.772L235.933 23.6746H233.343ZM234.624 21.4206L233.854 23.2196L233.84 23.4016L233.161 24.9346H232.23L234.624 19.7616L237.018 24.9346H236.087L235.422 23.4436L235.401 23.2406L234.624 21.4206ZM238.218 22.4076V22.0016H239.009C239.163 22.0016 239.299 21.9759 239.415 21.9246C239.532 21.8732 239.623 21.8009 239.688 21.7076C239.754 21.6096 239.786 21.4929 239.786 21.3576C239.786 21.1522 239.714 20.9936 239.569 20.8816C239.425 20.7696 239.238 20.7136 239.009 20.7136H238.414V24.2556H239.1C239.287 24.2556 239.453 24.2252 239.597 24.1646C239.742 24.1039 239.856 24.0129 239.94 23.8916C240.024 23.7702 240.066 23.6186 240.066 23.4366C240.066 23.3059 240.041 23.1916 239.989 23.0936C239.943 22.9909 239.875 22.9069 239.786 22.8416C239.702 22.7716 239.602 22.7226 239.485 22.6946C239.369 22.6619 239.24 22.6456 239.1 22.6456H238.218V22.1906H239.149C239.387 22.1906 239.611 22.2162 239.821 22.2676C240.031 22.3189 240.218 22.3982 240.381 22.5056C240.549 22.6129 240.68 22.7506 240.773 22.9186C240.867 23.0866 240.913 23.2872 240.913 23.5206C240.913 23.8426 240.836 24.1086 240.682 24.3186C240.533 24.5286 240.325 24.6849 240.059 24.7876C239.798 24.8856 239.495 24.9346 239.149 24.9346H237.588V20.0346H239.065C239.373 20.0346 239.644 20.0789 239.877 20.1676C240.115 20.2562 240.3 20.3916 240.43 20.5736C240.566 20.7556 240.633 20.9866 240.633 21.2666C240.633 21.5092 240.566 21.7169 240.43 21.8896C240.3 22.0576 240.115 22.1859 239.877 22.2746C239.644 22.3632 239.373 22.4076 239.065 22.4076H238.218ZM242.381 22.4846C242.381 22.8206 242.451 23.1216 242.591 23.3876C242.735 23.6489 242.934 23.8542 243.186 24.0036C243.438 24.1529 243.725 24.2276 244.047 24.2276C244.373 24.2276 244.66 24.1529 244.908 24.0036C245.16 23.8542 245.356 23.6489 245.496 23.3876C245.64 23.1216 245.713 22.8206 245.713 22.4846C245.713 22.1486 245.643 21.8499 245.503 21.5886C245.363 21.3226 245.167 21.1149 244.915 20.9656C244.667 20.8162 244.378 20.7416 244.047 20.7416C243.725 20.7416 243.438 20.8162 243.186 20.9656C242.934 21.1149 242.735 21.3226 242.591 21.5886C242.451 21.8499 242.381 22.1486 242.381 22.4846ZM241.506 22.4846C241.506 22.1159 241.569 21.7776 241.695 21.4696C241.821 21.1616 241.998 20.8956 242.227 20.6716C242.46 20.4429 242.731 20.2656 243.039 20.1396C243.351 20.0136 243.687 19.9506 244.047 19.9506C244.415 19.9506 244.754 20.0136 245.062 20.1396C245.37 20.2656 245.638 20.4429 245.867 20.6716C246.1 20.8956 246.28 21.1616 246.406 21.4696C246.532 21.7776 246.595 22.1159 246.595 22.4846C246.595 22.8486 246.532 23.1869 246.406 23.4996C246.28 23.8122 246.102 24.0829 245.874 24.3116C245.645 24.5402 245.374 24.7199 245.062 24.8506C244.754 24.9766 244.415 25.0396 244.047 25.0396C243.683 25.0396 243.344 24.9766 243.032 24.8506C242.719 24.7199 242.448 24.5402 242.22 24.3116C241.996 24.0829 241.821 23.8122 241.695 23.4996C241.569 23.1869 241.506 22.8486 241.506 22.4846ZM247.363 20.0346H248.189V23.2896C248.189 23.5929 248.268 23.8379 248.427 24.0246C248.59 24.2066 248.831 24.2976 249.148 24.2976C249.461 24.2976 249.699 24.2066 249.862 24.0246C250.025 23.8379 250.107 23.5929 250.107 23.2896V20.0346H250.933V23.3246C250.933 23.5952 250.889 23.8379 250.8 24.0526C250.716 24.2626 250.595 24.4422 250.436 24.5916C250.277 24.7409 250.088 24.8552 249.869 24.9346C249.65 25.0139 249.409 25.0536 249.148 25.0536C248.887 25.0536 248.646 25.0139 248.427 24.9346C248.208 24.8552 248.016 24.7409 247.853 24.5916C247.694 24.4422 247.573 24.2626 247.489 24.0526C247.405 23.8379 247.363 23.5952 247.363 23.3246V20.0346ZM251.502 20.7976V20.0346H254.918V20.7976H253.623V24.9346H252.79V20.7976H251.502Z" fill="black"/>
<defs>
<clipPath id="clip0_559_170">
<rect width="11.8269" height="11.8269" fill="white" transform="translate(304.734 15.7662)"/>
</clipPath>
</defs>
</svg>
