<svg width="400" height="44" viewBox="0 0 400 44" fill="none" xmlns="http://www.w3.org/2000/svg">
<rect width="400" height="43.7207" fill="#181C24"/>
<g clip-path="url(#clip0_558_138)">
<path d="M20.5 17.75C20.0055 17.75 19.5222 17.8966 19.1111 18.1713C18.7 18.446 18.3795 18.8365 18.1903 19.2933C18.0011 19.7501 17.9516 20.2528 18.048 20.7377C18.1445 21.2227 18.3826 21.6681 18.7322 22.0178C19.0819 22.3674 19.5273 22.6055 20.0123 22.702C20.4972 22.7984 20.9999 22.7489 21.4567 22.5597C21.9135 22.3705 22.304 22.05 22.5787 21.6389C22.8534 21.2278 23 20.7445 23 20.25C23 19.587 22.7366 18.9511 22.2678 18.4822C21.7989 18.0134 21.163 17.75 20.5 17.75ZM20.5 21.5C20.2528 21.5 20.0111 21.4267 19.8055 21.2893C19.6 21.152 19.4398 20.9568 19.3452 20.7284C19.2505 20.4999 19.2258 20.2486 19.274 20.0061C19.3223 19.7637 19.4413 19.5409 19.6161 19.3661C19.7909 19.1913 20.0137 19.0722 20.2561 19.024C20.4986 18.9758 20.7499 19.0005 20.9784 19.0952C21.2068 19.1898 21.402 19.35 21.5393 19.5555C21.6767 19.7611 21.75 20.0028 21.75 20.25C21.75 20.5815 21.6183 20.8995 21.3839 21.1339C21.1495 21.3683 20.8315 21.5 20.5 21.5Z" fill="#CDD3E0"/>
<path d="M20.5002 29C19.9739 29.0027 19.4546 28.8793 18.9859 28.6401C18.5171 28.4008 18.1124 28.0528 17.8058 27.625C15.4239 24.3394 14.2158 21.8694 14.2158 20.2832C14.2158 18.6164 14.8779 17.018 16.0565 15.8394C17.235 14.6609 18.8335 13.9988 20.5002 13.9988C22.1669 13.9988 23.7654 14.6609 24.9439 15.8394C26.1225 17.018 26.7846 18.6164 26.7846 20.2832C26.7846 21.8694 25.5764 24.3394 23.1946 27.625C22.8879 28.0528 22.4833 28.4008 22.0145 28.6401C21.5458 28.8793 21.0265 29.0027 20.5002 29ZM20.5002 15.3632C19.1955 15.3646 17.9446 15.8836 17.022 16.8062C16.0994 17.7288 15.5804 18.9797 15.5789 20.2844C15.5789 21.5407 16.7621 23.8638 18.9096 26.8257C19.0919 27.0768 19.3311 27.2811 19.6075 27.4221C19.884 27.563 20.1899 27.6365 20.5002 27.6365C20.8105 27.6365 21.1164 27.563 21.3929 27.4221C21.6693 27.2811 21.9085 27.0768 22.0908 26.8257C24.2383 23.8638 25.4214 21.5407 25.4214 20.2844C25.42 18.9797 24.901 17.7288 23.9784 16.8062C23.0558 15.8836 21.8049 15.3646 20.5002 15.3632Z" fill="#CDD3E0"/>
</g>
<path d="M141.745 16.4505L142.339 15.9358C143.023 15.2515 144.132 15.2515 144.816 15.9358C144.833 15.9528 145.879 17.3158 145.879 17.3158C146.524 17.9945 146.524 19.0634 145.879 19.7364L145.223 20.5621C146.049 22.4341 147.333 23.7235 149.143 24.4927L149.968 23.831C150.641 23.1806 151.716 23.1806 152.389 23.831C152.389 23.831 153.752 24.8772 153.769 24.8942C154.453 25.5785 154.453 26.687 153.797 27.3431L153.232 27.9934C152.581 28.6438 151.705 29.0001 150.754 29.0001C146.434 29.0001 140.71 23.2711 140.71 18.9559C140.71 18.0114 141.066 17.1292 141.745 16.4562V16.4505ZM150.754 27.8634C151.399 27.8634 151.993 27.6258 152.4 27.213L152.966 26.5626C153.198 26.3307 153.209 25.9518 152.988 25.7086C152.988 25.7086 151.637 24.668 151.62 24.651C151.388 24.4191 150.981 24.4191 150.743 24.651C150.726 24.668 149.589 25.5785 149.589 25.5785C149.431 25.7029 149.222 25.7369 149.035 25.6634C146.694 24.7698 145.014 23.0957 144.047 20.6808C143.973 20.4942 144.002 20.2793 144.132 20.1153C144.132 20.1153 145.042 18.9729 145.054 18.9616C145.297 18.7184 145.297 18.3281 145.054 18.0849C145.037 18.068 143.996 16.7163 143.996 16.7163C143.753 16.4957 143.374 16.5014 143.114 16.7616L142.52 17.2762C142.084 17.7117 141.841 18.3055 141.841 18.9502C141.841 22.8865 147.367 27.8634 150.754 27.8634Z" fill="#CDD3E0"/>
<path d="M35.3762 20.176V19.168L37.8872 18.601V25H36.8342V19.771L35.3762 20.176ZM43.9679 22.948C43.9679 23.314 43.9049 23.632 43.7789 23.902C43.6529 24.172 43.4789 24.397 43.2569 24.577C43.0349 24.751 42.7829 24.883 42.5009 24.973C42.2249 25.057 41.9339 25.099 41.6279 25.099C41.2439 25.099 40.9049 25.048 40.6109 24.946C40.3169 24.844 40.0619 24.709 39.8459 24.541C39.6299 24.367 39.4409 24.181 39.2789 23.983L39.8999 23.218C40.0259 23.38 40.1729 23.53 40.3409 23.668C40.5149 23.8 40.7009 23.908 40.8989 23.992C41.0969 24.07 41.2949 24.109 41.4929 24.109C41.7809 24.109 42.0239 24.061 42.2219 23.965C42.4199 23.869 42.5699 23.728 42.6719 23.542C42.7799 23.356 42.8339 23.137 42.8339 22.885C42.8339 22.627 42.7739 22.408 42.6539 22.228C42.5339 22.048 42.3719 21.91 42.1679 21.814C41.9639 21.718 41.7389 21.67 41.4929 21.67C41.3129 21.67 41.1329 21.685 40.9529 21.715C40.7789 21.739 40.5989 21.787 40.4129 21.859C40.2329 21.931 40.0349 22.033 39.8189 22.165L40.6739 18.7H43.9049V19.636H41.4749L41.0789 21.076C41.2349 20.998 41.3969 20.941 41.5649 20.905C41.7329 20.869 41.9039 20.851 42.0779 20.851C42.4259 20.851 42.7439 20.938 43.0319 21.112C43.3199 21.286 43.5479 21.529 43.7159 21.841C43.8839 22.153 43.9679 22.522 43.9679 22.948ZM48.2042 18.7H49.1582L45.4412 26.35H44.4602L48.2042 18.7ZM49.8525 23.38L50.0505 22.48H52.9755L53.1825 23.38H49.8525ZM51.4995 20.482L50.5095 22.795L50.4915 23.029L49.6185 25H48.4215L51.4995 18.349L54.5775 25H53.3805L52.5255 23.083L52.4985 22.822L51.4995 20.482ZM56.1139 24.01L57.0859 24.289L56.0419 26.539L55.3219 26.341L56.1139 24.01ZM65.7102 18.7H66.7542V25.315L62.1552 20.77V25H61.1112V18.385L65.7102 22.93V18.7ZM69.8702 25.09C69.4502 25.09 69.0782 25 68.7542 24.82C68.4362 24.64 68.1902 24.388 68.0162 24.064C67.8422 23.74 67.7552 23.362 67.7552 22.93C67.7552 22.492 67.8422 22.111 68.0162 21.787C68.1962 21.463 68.4482 21.214 68.7722 21.04C69.0962 20.86 69.4772 20.77 69.9152 20.77C70.3532 20.77 70.7252 20.854 71.0312 21.022C71.3372 21.19 71.5712 21.433 71.7332 21.751C71.9012 22.063 71.9852 22.441 71.9852 22.885C71.9852 22.933 71.9822 22.984 71.9762 23.038C71.9762 23.092 71.9732 23.131 71.9672 23.155H68.3312V22.489H71.1392L70.8422 22.903C70.8602 22.867 70.8782 22.819 70.8962 22.759C70.9202 22.693 70.9322 22.639 70.9322 22.597C70.9322 22.375 70.8872 22.183 70.7972 22.021C70.7132 21.859 70.5932 21.733 70.4372 21.643C70.2872 21.553 70.1102 21.508 69.9062 21.508C69.6602 21.508 69.4502 21.562 69.2762 21.67C69.1022 21.778 68.9702 21.934 68.8802 22.138C68.7902 22.342 68.7422 22.594 68.7362 22.894C68.7362 23.194 68.7812 23.449 68.8712 23.659C68.9612 23.863 69.0932 24.019 69.2672 24.127C69.4472 24.235 69.6632 24.289 69.9152 24.289C70.1792 24.289 70.4102 24.235 70.6082 24.127C70.8062 24.019 70.9712 23.854 71.1032 23.632L71.9402 23.974C71.7242 24.346 71.4452 24.625 71.1032 24.811C70.7612 24.997 70.3502 25.09 69.8702 25.09ZM72.1602 20.86H73.2132L74.1852 23.326L75.3282 20.545L76.5432 23.335L77.5152 20.86H78.5682L76.6332 25.297L75.3372 22.498L74.0952 25.297L72.1602 20.86ZM85.4326 18.7H86.6476L84.5056 22.345V25H83.4256V22.354L81.2926 18.7H82.4986L83.9656 21.4L85.4326 18.7ZM86.0804 22.93C86.0804 22.504 86.1764 22.129 86.3684 21.805C86.5664 21.481 86.8334 21.229 87.1694 21.049C87.5054 20.863 87.8864 20.77 88.3124 20.77C88.7384 20.77 89.1164 20.863 89.4464 21.049C89.7824 21.229 90.0494 21.481 90.2474 21.805C90.4454 22.129 90.5444 22.504 90.5444 22.93C90.5444 23.35 90.4454 23.725 90.2474 24.055C90.0494 24.379 89.7824 24.634 89.4464 24.82C89.1164 25 88.7384 25.09 88.3124 25.09C87.8864 25.09 87.5054 25 87.1694 24.82C86.8334 24.634 86.5664 24.379 86.3684 24.055C86.1764 23.725 86.0804 23.35 86.0804 22.93ZM87.0794 22.93C87.0794 23.188 87.1334 23.416 87.2414 23.614C87.3494 23.806 87.4964 23.959 87.6824 24.073C87.8684 24.181 88.0784 24.235 88.3124 24.235C88.5404 24.235 88.7474 24.181 88.9334 24.073C89.1254 23.959 89.2754 23.806 89.3834 23.614C89.4914 23.416 89.5454 23.188 89.5454 22.93C89.5454 22.672 89.4914 22.444 89.3834 22.246C89.2754 22.048 89.1254 21.895 88.9334 21.787C88.7474 21.679 88.5404 21.625 88.3124 21.625C88.0784 21.625 87.8684 21.679 87.6824 21.787C87.4964 21.895 87.3494 22.048 87.2414 22.246C87.1334 22.444 87.0794 22.672 87.0794 22.93ZM92.4297 20.86V25H91.4667V20.86H92.4297ZM93.6627 21.895C93.5727 21.823 93.4887 21.769 93.4107 21.733C93.3327 21.697 93.2337 21.679 93.1137 21.679C92.9517 21.679 92.8197 21.721 92.7177 21.805C92.6157 21.889 92.5407 22.006 92.4927 22.156C92.4507 22.3 92.4297 22.471 92.4297 22.669L92.1057 22.48C92.1057 22.15 92.1657 21.859 92.2857 21.607C92.4117 21.349 92.5707 21.145 92.7627 20.995C92.9607 20.845 93.1647 20.77 93.3747 20.77C93.5247 20.77 93.6657 20.794 93.7977 20.842C93.9297 20.884 94.0407 20.962 94.1307 21.076L93.6627 21.895ZM94.7618 17.98H95.7158V25H94.7618V17.98ZM97.2368 20.86H98.4248L96.6428 22.57L98.6048 25H97.4258L95.4458 22.57L97.2368 20.86ZM100.138 24.01L101.11 24.289L100.066 26.539L99.3463 26.341L100.138 24.01ZM105.091 18.7H106.153V22.885C106.153 23.275 106.255 23.59 106.459 23.83C106.669 24.064 106.978 24.181 107.386 24.181C107.788 24.181 108.094 24.064 108.304 23.83C108.514 23.59 108.619 23.275 108.619 22.885V18.7H109.681V22.93C109.681 23.278 109.624 23.59 109.51 23.866C109.402 24.136 109.246 24.367 109.042 24.559C108.838 24.751 108.595 24.898 108.313 25C108.031 25.102 107.722 25.153 107.386 25.153C107.05 25.153 106.741 25.102 106.459 25C106.177 24.898 105.931 24.751 105.721 24.559C105.517 24.367 105.361 24.136 105.253 23.866C105.145 23.59 105.091 23.278 105.091 22.93V18.7ZM111.456 22.975C111.594 23.215 111.741 23.428 111.897 23.614C112.059 23.794 112.236 23.935 112.428 24.037C112.62 24.133 112.836 24.181 113.076 24.181C113.364 24.181 113.598 24.103 113.778 23.947C113.958 23.791 114.048 23.59 114.048 23.344C114.048 23.11 113.991 22.924 113.877 22.786C113.763 22.642 113.604 22.522 113.4 22.426C113.202 22.324 112.971 22.225 112.707 22.129C112.551 22.075 112.377 22.003 112.185 21.913C111.993 21.817 111.81 21.7 111.636 21.562C111.462 21.418 111.318 21.244 111.204 21.04C111.09 20.83 111.033 20.578 111.033 20.284C111.033 19.948 111.12 19.654 111.294 19.402C111.468 19.144 111.702 18.946 111.996 18.808C112.296 18.664 112.635 18.592 113.013 18.592C113.385 18.592 113.709 18.658 113.985 18.79C114.261 18.922 114.492 19.09 114.678 19.294C114.87 19.498 115.02 19.711 115.128 19.933L114.264 20.419C114.186 20.263 114.087 20.119 113.967 19.987C113.847 19.849 113.706 19.741 113.544 19.663C113.388 19.579 113.205 19.537 112.995 19.537C112.701 19.537 112.485 19.606 112.347 19.744C112.209 19.876 112.14 20.032 112.14 20.212C112.14 20.374 112.188 20.521 112.284 20.653C112.386 20.779 112.542 20.899 112.752 21.013C112.962 21.127 113.235 21.244 113.571 21.364C113.757 21.43 113.943 21.514 114.129 21.616C114.321 21.718 114.495 21.847 114.651 22.003C114.807 22.153 114.93 22.33 115.02 22.534C115.116 22.738 115.164 22.978 115.164 23.254C115.164 23.548 115.107 23.812 114.993 24.046C114.879 24.28 114.723 24.478 114.525 24.64C114.327 24.796 114.102 24.916 113.85 25C113.604 25.09 113.346 25.135 113.076 25.135C112.704 25.135 112.359 25.063 112.041 24.919C111.729 24.769 111.456 24.571 111.222 24.325C110.988 24.079 110.802 23.812 110.664 23.524L111.456 22.975ZM117.01 23.38L117.208 22.48H120.133L120.34 23.38H117.01ZM118.657 20.482L117.667 22.795L117.649 23.029L116.776 25H115.579L118.657 18.349L121.735 25H120.538L119.683 23.083L119.656 22.822L118.657 20.482Z" fill="white"/>
<path d="M164.55 17.9794H165.45C165.138 18.6514 164.904 19.3624 164.748 20.1124C164.592 20.8624 164.514 21.6214 164.514 22.3894C164.514 23.1514 164.592 23.9074 164.748 24.6574C164.904 25.4074 165.138 26.1214 165.45 26.7994H164.55C164.19 26.1214 163.923 25.4074 163.749 24.6574C163.575 23.9074 163.488 23.1514 163.488 22.3894C163.488 21.6214 163.575 20.8624 163.749 20.1124C163.923 19.3624 164.19 18.6514 164.55 17.9794ZM170.664 22.9474C170.664 23.3134 170.601 23.6314 170.475 23.9014C170.349 24.1714 170.175 24.3964 169.953 24.5764C169.731 24.7504 169.479 24.8824 169.197 24.9724C168.921 25.0564 168.63 25.0984 168.324 25.0984C167.94 25.0984 167.601 25.0474 167.307 24.9454C167.013 24.8434 166.758 24.7084 166.542 24.5404C166.326 24.3664 166.137 24.1804 165.975 23.9824L166.596 23.2174C166.722 23.3794 166.869 23.5294 167.037 23.6674C167.211 23.7994 167.397 23.9074 167.595 23.9914C167.793 24.0694 167.991 24.1084 168.189 24.1084C168.477 24.1084 168.72 24.0604 168.918 23.9644C169.116 23.8684 169.266 23.7274 169.368 23.5414C169.476 23.3554 169.53 23.1364 169.53 22.8844C169.53 22.6264 169.47 22.4074 169.35 22.2274C169.23 22.0474 169.068 21.9094 168.864 21.8134C168.66 21.7174 168.435 21.6694 168.189 21.6694C168.009 21.6694 167.829 21.6844 167.649 21.7144C167.475 21.7384 167.295 21.7864 167.109 21.8584C166.929 21.9304 166.731 22.0324 166.515 22.1644L167.37 18.6994H170.601V19.6354H168.171L167.775 21.0754C167.931 20.9974 168.093 20.9404 168.261 20.9044C168.429 20.8684 168.6 20.8504 168.774 20.8504C169.122 20.8504 169.44 20.9374 169.728 21.1114C170.016 21.2854 170.244 21.5284 170.412 21.8404C170.58 22.1524 170.664 22.5214 170.664 22.9474ZM176.025 22.9474C176.025 23.3134 175.962 23.6314 175.836 23.9014C175.71 24.1714 175.536 24.3964 175.314 24.5764C175.092 24.7504 174.84 24.8824 174.558 24.9724C174.282 25.0564 173.991 25.0984 173.685 25.0984C173.301 25.0984 172.962 25.0474 172.668 24.9454C172.374 24.8434 172.119 24.7084 171.903 24.5404C171.687 24.3664 171.498 24.1804 171.336 23.9824L171.957 23.2174C172.083 23.3794 172.23 23.5294 172.398 23.6674C172.572 23.7994 172.758 23.9074 172.956 23.9914C173.154 24.0694 173.352 24.1084 173.55 24.1084C173.838 24.1084 174.081 24.0604 174.279 23.9644C174.477 23.8684 174.627 23.7274 174.729 23.5414C174.837 23.3554 174.891 23.1364 174.891 22.8844C174.891 22.6264 174.831 22.4074 174.711 22.2274C174.591 22.0474 174.429 21.9094 174.225 21.8134C174.021 21.7174 173.796 21.6694 173.55 21.6694C173.37 21.6694 173.19 21.6844 173.01 21.7144C172.836 21.7384 172.656 21.7864 172.47 21.8584C172.29 21.9304 172.092 22.0324 171.876 22.1644L172.731 18.6994H175.962V19.6354H173.532L173.136 21.0754C173.292 20.9974 173.454 20.9404 173.622 20.9044C173.79 20.8684 173.961 20.8504 174.135 20.8504C174.483 20.8504 174.801 20.9374 175.089 21.1114C175.377 21.2854 175.605 21.5284 175.773 21.8404C175.941 22.1524 176.025 22.5214 176.025 22.9474ZM181.386 22.9474C181.386 23.3134 181.323 23.6314 181.197 23.9014C181.071 24.1714 180.897 24.3964 180.675 24.5764C180.453 24.7504 180.201 24.8824 179.919 24.9724C179.643 25.0564 179.352 25.0984 179.046 25.0984C178.662 25.0984 178.323 25.0474 178.029 24.9454C177.735 24.8434 177.48 24.7084 177.264 24.5404C177.048 24.3664 176.859 24.1804 176.697 23.9824L177.318 23.2174C177.444 23.3794 177.591 23.5294 177.759 23.6674C177.933 23.7994 178.119 23.9074 178.317 23.9914C178.515 24.0694 178.713 24.1084 178.911 24.1084C179.199 24.1084 179.442 24.0604 179.64 23.9644C179.838 23.8684 179.988 23.7274 180.09 23.5414C180.198 23.3554 180.252 23.1364 180.252 22.8844C180.252 22.6264 180.192 22.4074 180.072 22.2274C179.952 22.0474 179.79 21.9094 179.586 21.8134C179.382 21.7174 179.157 21.6694 178.911 21.6694C178.731 21.6694 178.551 21.6844 178.371 21.7144C178.197 21.7384 178.017 21.7864 177.831 21.8584C177.651 21.9304 177.453 22.0324 177.237 22.1644L178.092 18.6994H181.323V19.6354H178.893L178.497 21.0754C178.653 20.9974 178.815 20.9404 178.983 20.9044C179.151 20.8684 179.322 20.8504 179.496 20.8504C179.844 20.8504 180.162 20.9374 180.45 21.1114C180.738 21.2854 180.966 21.5284 181.134 21.8404C181.302 22.1524 181.386 22.5214 181.386 22.9474ZM182.86 26.7994H181.96C182.278 26.1214 182.512 25.4074 182.662 24.6574C182.818 23.9074 182.896 23.1514 182.896 22.3894C182.896 21.6214 182.818 20.8624 182.662 20.1124C182.512 19.3624 182.278 18.6514 181.96 17.9794H182.86C183.22 18.6514 183.484 19.3624 183.652 20.1124C183.826 20.8624 183.913 21.6214 183.913 22.3894C183.913 23.1514 183.826 23.9074 183.652 24.6574C183.484 25.4074 183.22 26.1214 182.86 26.7994ZM192.346 22.9474C192.346 23.3134 192.283 23.6314 192.157 23.9014C192.031 24.1714 191.857 24.3964 191.635 24.5764C191.413 24.7504 191.161 24.8824 190.879 24.9724C190.603 25.0564 190.312 25.0984 190.006 25.0984C189.622 25.0984 189.283 25.0474 188.989 24.9454C188.695 24.8434 188.44 24.7084 188.224 24.5404C188.008 24.3664 187.819 24.1804 187.657 23.9824L188.278 23.2174C188.404 23.3794 188.551 23.5294 188.719 23.6674C188.893 23.7994 189.079 23.9074 189.277 23.9914C189.475 24.0694 189.673 24.1084 189.871 24.1084C190.159 24.1084 190.402 24.0604 190.6 23.9644C190.798 23.8684 190.948 23.7274 191.05 23.5414C191.158 23.3554 191.212 23.1364 191.212 22.8844C191.212 22.6264 191.152 22.4074 191.032 22.2274C190.912 22.0474 190.75 21.9094 190.546 21.8134C190.342 21.7174 190.117 21.6694 189.871 21.6694C189.691 21.6694 189.511 21.6844 189.331 21.7144C189.157 21.7384 188.977 21.7864 188.791 21.8584C188.611 21.9304 188.413 22.0324 188.197 22.1644L189.052 18.6994H192.283V19.6354H189.853L189.457 21.0754C189.613 20.9974 189.775 20.9404 189.943 20.9044C190.111 20.8684 190.282 20.8504 190.456 20.8504C190.804 20.8504 191.122 20.9374 191.41 21.1114C191.698 21.2854 191.926 21.5284 192.094 21.8404C192.262 22.1524 192.346 22.5214 192.346 22.9474ZM197.708 22.9474C197.708 23.3134 197.645 23.6314 197.519 23.9014C197.393 24.1714 197.219 24.3964 196.997 24.5764C196.775 24.7504 196.523 24.8824 196.241 24.9724C195.965 25.0564 195.674 25.0984 195.368 25.0984C194.984 25.0984 194.645 25.0474 194.351 24.9454C194.057 24.8434 193.802 24.7084 193.586 24.5404C193.37 24.3664 193.181 24.1804 193.019 23.9824L193.64 23.2174C193.766 23.3794 193.913 23.5294 194.081 23.6674C194.255 23.7994 194.441 23.9074 194.639 23.9914C194.837 24.0694 195.035 24.1084 195.233 24.1084C195.521 24.1084 195.764 24.0604 195.962 23.9644C196.16 23.8684 196.31 23.7274 196.412 23.5414C196.52 23.3554 196.574 23.1364 196.574 22.8844C196.574 22.6264 196.514 22.4074 196.394 22.2274C196.274 22.0474 196.112 21.9094 195.908 21.8134C195.704 21.7174 195.479 21.6694 195.233 21.6694C195.053 21.6694 194.873 21.6844 194.693 21.7144C194.519 21.7384 194.339 21.7864 194.153 21.8584C193.973 21.9304 193.775 22.0324 193.559 22.1644L194.414 18.6994H197.645V19.6354H195.215L194.819 21.0754C194.975 20.9974 195.137 20.9404 195.305 20.9044C195.473 20.8684 195.644 20.8504 195.818 20.8504C196.166 20.8504 196.484 20.9374 196.772 21.1114C197.06 21.2854 197.288 21.5284 197.456 21.8404C197.624 22.1524 197.708 22.5214 197.708 22.9474ZM203.069 22.9474C203.069 23.3134 203.006 23.6314 202.88 23.9014C202.754 24.1714 202.58 24.3964 202.358 24.5764C202.136 24.7504 201.884 24.8824 201.602 24.9724C201.326 25.0564 201.035 25.0984 200.729 25.0984C200.345 25.0984 200.006 25.0474 199.712 24.9454C199.418 24.8434 199.163 24.7084 198.947 24.5404C198.731 24.3664 198.542 24.1804 198.38 23.9824L199.001 23.2174C199.127 23.3794 199.274 23.5294 199.442 23.6674C199.616 23.7994 199.802 23.9074 200 23.9914C200.198 24.0694 200.396 24.1084 200.594 24.1084C200.882 24.1084 201.125 24.0604 201.323 23.9644C201.521 23.8684 201.671 23.7274 201.773 23.5414C201.881 23.3554 201.935 23.1364 201.935 22.8844C201.935 22.6264 201.875 22.4074 201.755 22.2274C201.635 22.0474 201.473 21.9094 201.269 21.8134C201.065 21.7174 200.84 21.6694 200.594 21.6694C200.414 21.6694 200.234 21.6844 200.054 21.7144C199.88 21.7384 199.7 21.7864 199.514 21.8584C199.334 21.9304 199.136 22.0324 198.92 22.1644L199.775 18.6994H203.006V19.6354H200.576L200.18 21.0754C200.336 20.9974 200.498 20.9404 200.666 20.9044C200.834 20.8684 201.005 20.8504 201.179 20.8504C201.527 20.8504 201.845 20.9374 202.133 21.1114C202.421 21.2854 202.649 21.5284 202.817 21.8404C202.985 22.1524 203.069 22.5214 203.069 22.9474ZM203.471 23.2984V22.4254H205.316V23.2984H203.471ZM206.035 20.1754V19.1674L208.546 18.6004V24.9994H207.493V19.7704L206.035 20.1754ZM209.803 24.9994L212.719 21.9304C212.869 21.7684 212.998 21.6124 213.106 21.4624C213.214 21.3124 213.295 21.1624 213.349 21.0124C213.403 20.8624 213.43 20.7034 213.43 20.5354C213.43 20.4154 213.406 20.2984 213.358 20.1844C213.316 20.0644 213.247 19.9564 213.151 19.8604C213.061 19.7644 212.95 19.6894 212.818 19.6354C212.686 19.5754 212.533 19.5454 212.359 19.5454C212.119 19.5454 211.912 19.6024 211.738 19.7164C211.564 19.8244 211.429 19.9834 211.333 20.1934C211.243 20.4034 211.198 20.6464 211.198 20.9224H210.145C210.145 20.4724 210.229 20.0734 210.397 19.7254C210.571 19.3714 210.823 19.0954 211.153 18.8974C211.489 18.6934 211.897 18.5914 212.377 18.5914C212.743 18.5914 213.061 18.6514 213.331 18.7714C213.601 18.8854 213.823 19.0354 213.997 19.2214C214.177 19.4074 214.309 19.6114 214.393 19.8334C214.483 20.0554 214.528 20.2714 214.528 20.4814C214.528 20.8114 214.447 21.1294 214.285 21.4354C214.129 21.7414 213.922 22.0144 213.664 22.2544L211.873 24.0094H214.609V24.9994H209.803ZM217.412 21.9124V21.3454C217.604 21.3454 217.775 21.3214 217.925 21.2734C218.075 21.2194 218.201 21.1474 218.303 21.0574C218.411 20.9674 218.492 20.8624 218.546 20.7424C218.606 20.6164 218.636 20.4874 218.636 20.3554C218.636 20.1874 218.603 20.0404 218.537 19.9144C218.471 19.7824 218.375 19.6804 218.249 19.6084C218.123 19.5364 217.967 19.5004 217.781 19.5004C217.505 19.5004 217.274 19.5844 217.088 19.7524C216.908 19.9144 216.818 20.1214 216.818 20.3734H215.819C215.819 20.0254 215.9 19.7194 216.062 19.4554C216.23 19.1914 216.461 18.9844 216.755 18.8344C217.049 18.6784 217.388 18.6004 217.772 18.6004C218.18 18.6004 218.528 18.6784 218.816 18.8344C219.104 18.9904 219.323 19.1974 219.473 19.4554C219.629 19.7074 219.707 19.9894 219.707 20.3014C219.707 20.6194 219.608 20.9014 219.41 21.1474C219.212 21.3934 218.939 21.5824 218.591 21.7144C218.249 21.8464 217.856 21.9124 217.412 21.9124ZM217.727 25.1074C217.391 25.1074 217.088 25.0594 216.818 24.9634C216.548 24.8614 216.32 24.7234 216.134 24.5494C215.948 24.3694 215.804 24.1654 215.702 23.9374C215.6 23.7034 215.549 23.4574 215.549 23.1994H216.611C216.611 23.4034 216.659 23.5804 216.755 23.7304C216.857 23.8744 216.995 23.9884 217.169 24.0724C217.343 24.1504 217.535 24.1894 217.745 24.1894C217.961 24.1894 218.147 24.1504 218.303 24.0724C218.465 23.9944 218.591 23.8834 218.681 23.7394C218.771 23.5894 218.816 23.4094 218.816 23.1994C218.816 23.0314 218.783 22.8814 218.717 22.7494C218.651 22.6174 218.555 22.5064 218.429 22.4164C218.309 22.3264 218.162 22.2574 217.988 22.2094C217.814 22.1614 217.622 22.1374 217.412 22.1374V21.5344C217.76 21.5344 218.084 21.5704 218.384 21.6424C218.684 21.7084 218.945 21.8134 219.167 21.9574C219.395 22.0954 219.572 22.2784 219.698 22.5064C219.824 22.7284 219.887 22.9984 219.887 23.3164C219.887 23.6704 219.797 23.9824 219.617 24.2524C219.437 24.5224 219.185 24.7324 218.861 24.8824C218.537 25.0324 218.159 25.1074 217.727 25.1074ZM220.402 23.7934L223.957 18.6994H224.596V24.9994H223.507V23.4154L223.57 23.3164V20.5984L221.959 22.9564H224.146L224.299 22.8754H225.586V23.7934H220.402Z" fill="white"/>
<path d="M360.327 15.9543H362.332L357.954 20.9574L363.104 27.7663H359.072L355.912 23.6377L352.3 27.7663H350.292L354.975 22.4138L350.037 15.9543H354.171L357.025 19.728L360.327 15.9543ZM359.623 26.568H360.734L353.566 17.0901H352.374L359.623 26.568Z" fill="#C8D1E3"/>
<path d="M333.484 22.6217H332.021C331.784 22.6217 331.71 22.533 331.71 22.3112V20.5224C331.71 20.2859 331.799 20.212 332.021 20.212H333.484V18.911C333.484 18.3197 333.588 17.7579 333.884 17.2405C334.194 16.7083 334.638 16.3535 335.199 16.1465C335.569 16.0135 335.939 15.9543 336.338 15.9543H337.786C337.993 15.9543 338.082 16.043 338.082 16.25V17.9353C338.082 18.1423 337.993 18.231 337.786 18.231C337.387 18.231 336.988 18.231 336.589 18.2458C336.19 18.2458 335.983 18.438 335.983 18.8519C335.968 19.2954 335.983 19.7241 335.983 20.1824H337.698C337.934 20.1824 338.023 20.2711 338.023 20.5077V22.2965C338.023 22.533 337.949 22.6069 337.698 22.6069H335.983V27.4263C335.983 27.6776 335.909 27.7663 335.643 27.7663H333.795C333.573 27.7663 333.484 27.6776 333.484 27.4559V22.6217Z" fill="#C8D1E3"/>
<path d="M381.595 20.8103C380.543 20.8103 379.567 20.4736 378.77 19.9017V24.0287C378.77 26.09 377.093 27.7663 375.033 27.7663C374.236 27.7663 373.497 27.5153 372.891 27.0891C371.927 26.4123 371.295 25.2931 371.295 24.0287C371.295 21.9674 372.972 20.2905 375.033 20.2905C375.204 20.2905 375.372 20.3048 375.537 20.3269V20.8078V22.4C375.377 22.3503 375.209 22.3213 375.033 22.3213C374.092 22.3213 373.326 23.0871 373.326 24.0287C373.326 24.6843 373.698 25.2537 374.242 25.5397C374.478 25.6642 374.748 25.7356 375.034 25.7356C375.953 25.7356 376.703 25.0042 376.738 24.0927L376.739 15.9543H378.77C378.77 16.1305 378.787 16.3023 378.818 16.4697C378.961 17.2434 379.42 17.9073 380.056 18.3223C380.499 18.6112 381.028 18.78 381.595 18.78L381.595 20.8103Z" fill="#C8D1E3"/>
<defs>
<clipPath id="clip0_558_138">
<rect width="15" height="15" fill="white" transform="translate(13 14)"/>
</clipPath>
</defs>
</svg>
