<svg width="400" height="44" viewBox="0 0 400 44" fill="none" xmlns="http://www.w3.org/2000/svg">
<rect y="0.121948" width="400" height="43.7207" fill="#181C24"/>
<path d="M360.327 17.3763H362.332L357.954 22.3794L363.104 29.1883H359.072L355.912 25.0597L352.3 29.1883H350.292L354.975 23.8358L350.037 17.3763H354.171L357.025 21.15L360.327 17.3763ZM359.623 27.99H360.734L353.566 18.5121H352.374L359.623 27.99Z" fill="#C8D1E3"/>
<path d="M333.484 24.0437H332.021C331.784 24.0437 331.71 23.955 331.71 23.7332V21.9444C331.71 21.7079 331.799 21.634 332.021 21.634H333.484V20.333C333.484 19.7417 333.588 19.1799 333.884 18.6625C334.194 18.1303 334.638 17.7755 335.199 17.5685C335.569 17.4355 335.939 17.3763 336.338 17.3763H337.786C337.993 17.3763 338.082 17.465 338.082 17.672V19.3573C338.082 19.5643 337.993 19.653 337.786 19.653C337.387 19.653 336.988 19.653 336.589 19.6678C336.19 19.6678 335.983 19.86 335.983 20.2739C335.968 20.7174 335.983 21.1461 335.983 21.6044H337.698C337.934 21.6044 338.023 21.6931 338.023 21.9297V23.7185C338.023 23.955 337.949 24.0289 337.698 24.0289H335.983V28.8483C335.983 29.0996 335.909 29.1883 335.643 29.1883H333.795C333.573 29.1883 333.484 29.0996 333.484 28.8779V24.0437Z" fill="#C8D1E3"/>
<path d="M381.595 22.2323C380.543 22.2323 379.567 21.8956 378.77 21.3237V25.4507C378.77 27.5119 377.093 29.1883 375.033 29.1883C374.236 29.1883 373.497 28.9373 372.891 28.5111C371.927 27.8343 371.295 26.7151 371.295 25.4507C371.295 23.3894 372.972 21.7125 375.033 21.7125C375.204 21.7125 375.372 21.7268 375.537 21.7489V22.2298V23.822C375.377 23.7723 375.209 23.7433 375.033 23.7433C374.092 23.7433 373.326 24.5091 373.326 25.4507C373.326 26.1063 373.698 26.6757 374.242 26.9617C374.478 27.0862 374.748 27.1576 375.034 27.1576C375.953 27.1576 376.703 26.4262 376.738 25.5147L376.739 17.3763H378.77C378.77 17.5525 378.787 17.7243 378.818 17.8917C378.961 18.6654 379.42 19.3293 380.056 19.7443C380.499 20.0332 381.028 20.202 381.595 20.202L381.595 22.2323Z" fill="#C8D1E3"/>
<path d="M64.9786 20.4926C64.9308 20.4443 64.8738 20.406 64.811 20.3798C64.7483 20.3537 64.6809 20.3402 64.6129 20.3402C64.5449 20.3402 64.4776 20.3537 64.4148 20.3798C64.3521 20.406 64.2951 20.4443 64.2472 20.4926L61.8882 22.8516C61.8403 22.8999 61.7833 22.9382 61.7205 22.9644C61.6578 22.9905 61.5905 23.004 61.5225 23.004C61.4545 23.004 61.3871 22.9905 61.3244 22.9644C61.2616 22.9382 61.2046 22.8999 61.1568 22.8516L58.7977 20.4926C58.7498 20.4443 58.6928 20.406 58.6301 20.3798C58.5673 20.3537 58.5 20.3402 58.432 20.3402C58.364 20.3402 58.2967 20.3537 58.2339 20.3798C58.1711 20.406 58.1142 20.4443 58.0663 20.4926C57.9704 20.5891 57.9165 20.7196 57.9165 20.8557C57.9165 20.9918 57.9704 21.1223 58.0663 21.2188L60.4305 23.583C60.7202 23.8724 61.113 24.0349 61.5225 24.0349C61.9319 24.0349 62.3247 23.8724 62.6144 23.583L64.9786 21.2188C65.0746 21.1223 65.1284 20.9918 65.1284 20.8557C65.1284 20.7196 65.0746 20.5891 64.9786 20.4926Z" fill="#8D8D8D"/>
<path d="M18.9697 23.3149L19.1677 22.4149H22.0927L22.2997 23.3149H18.9697ZM20.6167 20.4169L19.6267 22.7299L19.6087 22.9639L18.7357 24.9349H17.5387L20.6167 18.2839L23.6947 24.9349H22.4977L21.6427 23.0179L21.6157 22.7569L20.6167 20.4169ZM25.2916 17.9149V24.9349H24.3106V17.9149H25.2916ZM28.7206 22.8649C28.7206 23.3149 28.6276 23.7019 28.4416 24.0259C28.2556 24.3499 28.0096 24.5989 27.7036 24.7729C27.3976 24.9409 27.0646 25.0249 26.7046 25.0249C26.3626 25.0249 26.0566 24.9379 25.7866 24.7639C25.5226 24.5899 25.3156 24.3409 25.1656 24.0169C25.0156 23.6929 24.9406 23.3089 24.9406 22.8649C24.9406 22.4149 25.0156 22.0309 25.1656 21.7129C25.3156 21.3889 25.5226 21.1399 25.7866 20.9659C26.0566 20.7919 26.3626 20.7049 26.7046 20.7049C27.0646 20.7049 27.3976 20.7919 27.7036 20.9659C28.0096 21.1339 28.2556 21.3799 28.4416 21.7039C28.6276 22.0219 28.7206 22.4089 28.7206 22.8649ZM27.7126 22.8649C27.7126 22.5889 27.6556 22.3519 27.5416 22.1539C27.4276 21.9559 27.2746 21.8059 27.0826 21.7039C26.8966 21.6019 26.6896 21.5509 26.4616 21.5509C26.2756 21.5509 26.0926 21.6019 25.9126 21.7039C25.7326 21.8059 25.5826 21.9559 25.4626 22.1539C25.3486 22.3459 25.2916 22.5829 25.2916 22.8649C25.2916 23.1469 25.3486 23.3869 25.4626 23.5849C25.5826 23.7769 25.7326 23.9239 25.9126 24.0259C26.0926 24.1279 26.2756 24.1789 26.4616 24.1789C26.6896 24.1789 26.8966 24.1279 27.0826 24.0259C27.2746 23.9239 27.4276 23.7739 27.5416 23.5759C27.6556 23.3779 27.7126 23.1409 27.7126 22.8649ZM29.3314 22.8649C29.3314 22.4389 29.4274 22.0639 29.6194 21.7399C29.8174 21.4159 30.0844 21.1639 30.4204 20.9839C30.7564 20.7979 31.1374 20.7049 31.5634 20.7049C31.9894 20.7049 32.3674 20.7979 32.6974 20.9839C33.0334 21.1639 33.3004 21.4159 33.4984 21.7399C33.6964 22.0639 33.7954 22.4389 33.7954 22.8649C33.7954 23.2849 33.6964 23.6599 33.4984 23.9899C33.3004 24.3139 33.0334 24.5689 32.6974 24.7549C32.3674 24.9349 31.9894 25.0249 31.5634 25.0249C31.1374 25.0249 30.7564 24.9349 30.4204 24.7549C30.0844 24.5689 29.8174 24.3139 29.6194 23.9899C29.4274 23.6599 29.3314 23.2849 29.3314 22.8649ZM30.3304 22.8649C30.3304 23.1229 30.3844 23.3509 30.4924 23.5489C30.6004 23.7409 30.7474 23.8939 30.9334 24.0079C31.1194 24.1159 31.3294 24.1699 31.5634 24.1699C31.7914 24.1699 31.9984 24.1159 32.1844 24.0079C32.3764 23.8939 32.5264 23.7409 32.6344 23.5489C32.7424 23.3509 32.7964 23.1229 32.7964 22.8649C32.7964 22.6069 32.7424 22.3789 32.6344 22.1809C32.5264 21.9829 32.3764 21.8299 32.1844 21.7219C31.9984 21.6139 31.7914 21.5599 31.5634 21.5599C31.3294 21.5599 31.1194 21.6139 30.9334 21.7219C30.7474 21.8299 30.6004 21.9829 30.4924 22.1809C30.3844 22.3789 30.3304 22.6069 30.3304 22.8649ZM35.7167 23.3149C35.7167 23.6089 35.7797 23.8369 35.9057 23.9989C36.0317 24.1609 36.2237 24.2419 36.4817 24.2419C36.6677 24.2419 36.8297 24.2059 36.9677 24.1339C37.1057 24.0559 37.2137 23.9479 37.2917 23.8099C37.3697 23.6659 37.4087 23.5009 37.4087 23.3149V20.7949H38.3807V24.9349H37.4087V24.2959C37.2767 24.5359 37.1057 24.7189 36.8957 24.8449C36.6917 24.9649 36.4457 25.0249 36.1577 25.0249C35.6957 25.0249 35.3387 24.8809 35.0867 24.5929C34.8407 24.3049 34.7177 23.9149 34.7177 23.4229V20.7949H35.7167V23.3149ZM39.046 20.7949H41.395V21.6499H39.046V20.7949ZM39.739 19.3549H40.702V24.9349H39.739V19.3549ZM44.7996 18.6349H45.8616V22.8199C45.8616 23.2099 45.9636 23.5249 46.1676 23.7649C46.3776 23.9989 46.6866 24.1159 47.0946 24.1159C47.4966 24.1159 47.8026 23.9989 48.0126 23.7649C48.2226 23.5249 48.3276 23.2099 48.3276 22.8199V18.6349H49.3896V22.8649C49.3896 23.2129 49.3326 23.5249 49.2186 23.8009C49.1106 24.0709 48.9546 24.3019 48.7506 24.4939C48.5466 24.6859 48.3036 24.8329 48.0216 24.9349C47.7396 25.0369 47.4306 25.0879 47.0946 25.0879C46.7586 25.0879 46.4496 25.0369 46.1676 24.9349C45.8856 24.8329 45.6396 24.6859 45.4296 24.4939C45.2256 24.3019 45.0696 24.0709 44.9616 23.8009C44.8536 23.5249 44.7996 23.2129 44.7996 22.8649V18.6349ZM50.8588 23.5759C50.9908 23.7199 51.1228 23.8459 51.2548 23.9539C51.3928 24.0559 51.5308 24.1339 51.6688 24.1879C51.8068 24.2359 51.9448 24.2599 52.0828 24.2599C52.2568 24.2599 52.3918 24.2209 52.4878 24.1429C52.5898 24.0649 52.6408 23.9569 52.6408 23.8189C52.6408 23.6989 52.6018 23.5969 52.5238 23.5129C52.4458 23.4229 52.3378 23.3479 52.1998 23.2879C52.0618 23.2219 51.8998 23.1559 51.7138 23.0899C51.5278 23.0179 51.3418 22.9339 51.1558 22.8379C50.9758 22.7359 50.8258 22.6039 50.7058 22.4419C50.5918 22.2799 50.5348 22.0759 50.5348 21.8299C50.5348 21.5779 50.5978 21.3679 50.7238 21.1999C50.8558 21.0319 51.0298 20.9089 51.2458 20.8309C51.4678 20.7469 51.7048 20.7049 51.9568 20.7049C52.1848 20.7049 52.3978 20.7379 52.5958 20.8039C52.7998 20.8699 52.9828 20.9569 53.1448 21.0649C53.3068 21.1729 53.4448 21.2959 53.5588 21.4339L53.0188 22.0099C52.8808 21.8479 52.7158 21.7159 52.5238 21.6139C52.3318 21.5119 52.1338 21.4609 51.9298 21.4609C51.7918 21.4609 51.6778 21.4909 51.5878 21.5509C51.4978 21.6109 51.4528 21.6979 51.4528 21.8119C51.4528 21.9079 51.4918 21.9949 51.5698 22.0729C51.6538 22.1449 51.7618 22.2109 51.8938 22.2709C52.0318 22.3309 52.1848 22.3939 52.3528 22.4599C52.5808 22.5499 52.7908 22.6489 52.9828 22.7569C53.1748 22.8649 53.3278 22.9969 53.4418 23.1529C53.5618 23.3089 53.6218 23.5129 53.6218 23.7649C53.6218 24.1549 53.4868 24.4699 53.2168 24.7099C52.9528 24.9439 52.5928 25.0609 52.1368 25.0609C51.8548 25.0609 51.5938 25.0189 51.3538 24.9349C51.1198 24.8449 50.9128 24.7309 50.7328 24.5929C50.5588 24.4489 50.4118 24.2989 50.2918 24.1429L50.8588 23.5759Z" fill="white"/>
<path d="M124.387 21.5873C124.339 21.539 124.282 21.5007 124.22 21.4745C124.157 21.4484 124.09 21.4349 124.022 21.4349C123.954 21.4349 123.886 21.4484 123.824 21.4745C123.761 21.5007 123.704 21.539 123.656 21.5873L121.297 23.9464C121.249 23.9946 121.192 24.033 121.129 24.0591C121.066 24.0853 120.999 24.0987 120.931 24.0987C120.863 24.0987 120.796 24.0853 120.733 24.0591C120.67 24.033 120.613 23.9946 120.565 23.9464L118.206 21.5873C118.159 21.539 118.102 21.5007 118.039 21.4745C117.976 21.4484 117.909 21.4349 117.841 21.4349C117.773 21.4349 117.705 21.4484 117.643 21.4745C117.58 21.5007 117.523 21.539 117.475 21.5873C117.379 21.6838 117.325 21.8143 117.325 21.9504C117.325 22.0865 117.379 22.217 117.475 22.3136L119.839 24.6778C120.129 24.9671 120.522 25.1297 120.931 25.1297C121.341 25.1297 121.733 24.9671 122.023 24.6778L124.387 22.3136C124.483 22.217 124.537 22.0865 124.537 21.9504C124.537 21.8143 124.483 21.6838 124.387 21.5873Z" fill="#8D8D8D"/>
<path d="M81.2268 22.9099C81.3648 23.1499 81.5118 23.3629 81.6678 23.5489C81.8298 23.7289 82.0068 23.8699 82.1988 23.9719C82.3908 24.0679 82.6068 24.1159 82.8468 24.1159C83.1348 24.1159 83.3688 24.0379 83.5488 23.8819C83.7288 23.7259 83.8188 23.5249 83.8188 23.2789C83.8188 23.0449 83.7618 22.8589 83.6478 22.7209C83.5338 22.5769 83.3748 22.4569 83.1708 22.3609C82.9728 22.2589 82.7418 22.1599 82.4778 22.0639C82.3218 22.0099 82.1478 21.9379 81.9558 21.8479C81.7638 21.7519 81.5808 21.6349 81.4068 21.4969C81.2328 21.3529 81.0888 21.1789 80.9748 20.9749C80.8608 20.7649 80.8038 20.5129 80.8038 20.2189C80.8038 19.8829 80.8908 19.5889 81.0648 19.3369C81.2388 19.0789 81.4728 18.8809 81.7668 18.7429C82.0668 18.5989 82.4058 18.5269 82.7838 18.5269C83.1558 18.5269 83.4798 18.5929 83.7558 18.7249C84.0318 18.8569 84.2628 19.0249 84.4488 19.2289C84.6408 19.4329 84.7908 19.6459 84.8988 19.8679L84.0348 20.3539C83.9568 20.1979 83.8578 20.0539 83.7378 19.9219C83.6178 19.7839 83.4768 19.6759 83.3148 19.5979C83.1588 19.5139 82.9758 19.4719 82.7658 19.4719C82.4718 19.4719 82.2558 19.5409 82.1178 19.6789C81.9798 19.8109 81.9108 19.9669 81.9108 20.1469C81.9108 20.3089 81.9588 20.4559 82.0548 20.5879C82.1568 20.7139 82.3128 20.8339 82.5228 20.9479C82.7328 21.0619 83.0058 21.1789 83.3418 21.2989C83.5278 21.3649 83.7138 21.4489 83.8998 21.5509C84.0918 21.6529 84.2658 21.7819 84.4218 21.9379C84.5778 22.0879 84.7008 22.2649 84.7908 22.4689C84.8868 22.6729 84.9348 22.9129 84.9348 23.1889C84.9348 23.4829 84.8778 23.7469 84.7638 23.9809C84.6498 24.2149 84.4938 24.4129 84.2958 24.5749C84.0978 24.7309 83.8728 24.8509 83.6208 24.9349C83.3748 25.0249 83.1168 25.0699 82.8468 25.0699C82.4748 25.0699 82.1298 24.9979 81.8118 24.8539C81.4998 24.7039 81.2268 24.5059 80.9928 24.2599C80.7588 24.0139 80.5728 23.7469 80.4348 23.4589L81.2268 22.9099ZM87.7438 25.0249C87.3238 25.0249 86.9518 24.9349 86.6278 24.7549C86.3098 24.5749 86.0638 24.3229 85.8898 23.9989C85.7158 23.6749 85.6288 23.2969 85.6288 22.8649C85.6288 22.4269 85.7158 22.0459 85.8898 21.7219C86.0698 21.3979 86.3218 21.1489 86.6458 20.9749C86.9698 20.7949 87.3508 20.7049 87.7888 20.7049C88.2268 20.7049 88.5988 20.7889 88.9048 20.9569C89.2108 21.1249 89.4448 21.3679 89.6068 21.6859C89.7748 21.9979 89.8588 22.3759 89.8588 22.8199C89.8588 22.8679 89.8558 22.9189 89.8498 22.9729C89.8498 23.0269 89.8468 23.0659 89.8408 23.0899H86.2048V22.4239H89.0128L88.7158 22.8379C88.7338 22.8019 88.7518 22.7539 88.7698 22.6939C88.7938 22.6279 88.8058 22.5739 88.8058 22.5319C88.8058 22.3099 88.7608 22.1179 88.6708 21.9559C88.5868 21.7939 88.4668 21.6679 88.3108 21.5779C88.1608 21.4879 87.9838 21.4429 87.7798 21.4429C87.5338 21.4429 87.3238 21.4969 87.1498 21.6049C86.9758 21.7129 86.8438 21.8689 86.7538 22.0729C86.6638 22.2769 86.6158 22.5289 86.6098 22.8289C86.6098 23.1289 86.6548 23.3839 86.7448 23.5939C86.8348 23.7979 86.9668 23.9539 87.1408 24.0619C87.3208 24.1699 87.5368 24.2239 87.7888 24.2239C88.0528 24.2239 88.2838 24.1699 88.4818 24.0619C88.6798 23.9539 88.8448 23.7889 88.9768 23.5669L89.8138 23.9089C89.5978 24.2809 89.3188 24.5599 88.9768 24.7459C88.6348 24.9319 88.2238 25.0249 87.7438 25.0249ZM91.7495 20.7949V24.9349H90.7865V20.7949H91.7495ZM92.9825 21.8299C92.8925 21.7579 92.8085 21.7039 92.7305 21.6679C92.6525 21.6319 92.5535 21.6139 92.4335 21.6139C92.2715 21.6139 92.1395 21.6559 92.0375 21.7399C91.9355 21.8239 91.8605 21.9409 91.8125 22.0909C91.7705 22.2349 91.7495 22.4059 91.7495 22.6039L91.4255 22.4149C91.4255 22.0849 91.4855 21.7939 91.6055 21.5419C91.7315 21.2839 91.8905 21.0799 92.0825 20.9299C92.2805 20.7799 92.4845 20.7049 92.6945 20.7049C92.8445 20.7049 92.9855 20.7289 93.1175 20.7769C93.2495 20.8189 93.3605 20.8969 93.4505 21.0109L92.9825 21.8299ZM93.76 20.7949H94.822L95.902 23.4679L96.982 20.7949H98.053L95.902 25.3129L93.76 20.7949ZM98.6255 19.1479C98.6255 18.9799 98.6855 18.8389 98.8055 18.7249C98.9315 18.6109 99.0755 18.5539 99.2375 18.5539C99.4115 18.5539 99.5555 18.6109 99.6695 18.7249C99.7895 18.8389 99.8495 18.9799 99.8495 19.1479C99.8495 19.3099 99.7895 19.4509 99.6695 19.5709C99.5555 19.6849 99.4115 19.7419 99.2375 19.7419C99.0755 19.7419 98.9315 19.6849 98.8055 19.5709C98.6855 19.4509 98.6255 19.3099 98.6255 19.1479ZM98.7605 20.7949H99.7145V24.9349H98.7605V20.7949ZM101.7 22.8649C101.7 23.1289 101.757 23.3599 101.871 23.5579C101.985 23.7499 102.138 23.9029 102.33 24.0169C102.528 24.1309 102.747 24.1879 102.987 24.1879C103.185 24.1879 103.374 24.1579 103.554 24.0979C103.734 24.0379 103.893 23.9539 104.031 23.8459C104.169 23.7379 104.271 23.6179 104.337 23.4859V24.5569C104.193 24.7009 103.998 24.8149 103.752 24.8989C103.506 24.9829 103.236 25.0249 102.942 25.0249C102.516 25.0249 102.132 24.9349 101.79 24.7549C101.454 24.5689 101.187 24.3139 100.989 23.9899C100.797 23.6599 100.701 23.2849 100.701 22.8649C100.701 22.4389 100.797 22.0639 100.989 21.7399C101.187 21.4159 101.454 21.1639 101.79 20.9839C102.132 20.7979 102.516 20.7049 102.942 20.7049C103.236 20.7049 103.506 20.7469 103.752 20.8309C103.998 20.9149 104.193 21.0289 104.337 21.1729V22.2439C104.271 22.1059 104.166 21.9859 104.022 21.8839C103.884 21.7759 103.725 21.6919 103.545 21.6319C103.365 21.5719 103.179 21.5419 102.987 21.5419C102.747 21.5419 102.528 21.5989 102.33 21.7129C102.138 21.8269 101.985 21.9829 101.871 22.1809C101.757 22.3789 101.7 22.6069 101.7 22.8649ZM107.212 25.0249C106.792 25.0249 106.42 24.9349 106.096 24.7549C105.778 24.5749 105.532 24.3229 105.358 23.9989C105.184 23.6749 105.097 23.2969 105.097 22.8649C105.097 22.4269 105.184 22.0459 105.358 21.7219C105.538 21.3979 105.79 21.1489 106.114 20.9749C106.438 20.7949 106.819 20.7049 107.257 20.7049C107.695 20.7049 108.067 20.7889 108.373 20.9569C108.679 21.1249 108.913 21.3679 109.075 21.6859C109.243 21.9979 109.327 22.3759 109.327 22.8199C109.327 22.8679 109.324 22.9189 109.318 22.9729C109.318 23.0269 109.315 23.0659 109.309 23.0899H105.673V22.4239H108.481L108.184 22.8379C108.202 22.8019 108.22 22.7539 108.238 22.6939C108.262 22.6279 108.274 22.5739 108.274 22.5319C108.274 22.3099 108.229 22.1179 108.139 21.9559C108.055 21.7939 107.935 21.6679 107.779 21.5779C107.629 21.4879 107.452 21.4429 107.248 21.4429C107.002 21.4429 106.792 21.4969 106.618 21.6049C106.444 21.7129 106.312 21.8689 106.222 22.0729C106.132 22.2769 106.084 22.5289 106.078 22.8289C106.078 23.1289 106.123 23.3839 106.213 23.5939C106.303 23.7979 106.435 23.9539 106.609 24.0619C106.789 24.1699 107.005 24.2239 107.257 24.2239C107.521 24.2239 107.752 24.1699 107.95 24.0619C108.148 23.9539 108.313 23.7889 108.445 23.5669L109.282 23.9089C109.066 24.2809 108.787 24.5599 108.445 24.7459C108.103 24.9319 107.692 25.0249 107.212 25.0249ZM110.443 23.5759C110.575 23.7199 110.707 23.8459 110.839 23.9539C110.977 24.0559 111.115 24.1339 111.253 24.1879C111.391 24.2359 111.529 24.2599 111.667 24.2599C111.841 24.2599 111.976 24.2209 112.072 24.1429C112.174 24.0649 112.225 23.9569 112.225 23.8189C112.225 23.6989 112.186 23.5969 112.108 23.5129C112.03 23.4229 111.922 23.3479 111.784 23.2879C111.646 23.2219 111.484 23.1559 111.298 23.0899C111.112 23.0179 110.926 22.9339 110.74 22.8379C110.56 22.7359 110.41 22.6039 110.29 22.4419C110.176 22.2799 110.119 22.0759 110.119 21.8299C110.119 21.5779 110.182 21.3679 110.308 21.1999C110.44 21.0319 110.614 20.9089 110.83 20.8309C111.052 20.7469 111.289 20.7049 111.541 20.7049C111.769 20.7049 111.982 20.7379 112.18 20.8039C112.384 20.8699 112.567 20.9569 112.729 21.0649C112.891 21.1729 113.029 21.2959 113.143 21.4339L112.603 22.0099C112.465 21.8479 112.3 21.7159 112.108 21.6139C111.916 21.5119 111.718 21.4609 111.514 21.4609C111.376 21.4609 111.262 21.4909 111.172 21.5509C111.082 21.6109 111.037 21.6979 111.037 21.8119C111.037 21.9079 111.076 21.9949 111.154 22.0729C111.238 22.1449 111.346 22.2109 111.478 22.2709C111.616 22.3309 111.769 22.3939 111.937 22.4599C112.165 22.5499 112.375 22.6489 112.567 22.7569C112.759 22.8649 112.912 22.9969 113.026 23.1529C113.146 23.3089 113.206 23.5129 113.206 23.7649C113.206 24.1549 113.071 24.4699 112.801 24.7099C112.537 24.9439 112.177 25.0609 111.721 25.0609C111.439 25.0609 111.178 25.0189 110.938 24.9349C110.704 24.8449 110.497 24.7309 110.317 24.5929C110.143 24.4489 109.996 24.2989 109.876 24.1429L110.443 23.5759Z" fill="white"/>
<path d="M176.796 21.5873C176.748 21.539 176.691 21.5007 176.628 21.4745C176.565 21.4484 176.498 21.4349 176.43 21.4349C176.362 21.4349 176.295 21.4484 176.232 21.4745C176.169 21.5007 176.112 21.539 176.064 21.5873L173.705 23.9464C173.657 23.9946 173.6 24.033 173.537 24.0591C173.475 24.0853 173.407 24.0987 173.339 24.0987C173.271 24.0987 173.204 24.0853 173.141 24.0591C173.079 24.033 173.022 23.9946 172.974 23.9464L170.615 21.5873C170.567 21.539 170.51 21.5007 170.447 21.4745C170.384 21.4484 170.317 21.4349 170.249 21.4349C170.181 21.4349 170.114 21.4484 170.051 21.4745C169.988 21.5007 169.931 21.539 169.883 21.5873C169.787 21.6838 169.733 21.8143 169.733 21.9504C169.733 22.0865 169.787 22.217 169.883 22.3136L172.247 24.6778C172.537 24.9671 172.93 25.1297 173.339 25.1297C173.749 25.1297 174.142 24.9671 174.431 24.6778L176.796 22.3136C176.891 22.217 176.945 22.0865 176.945 21.9504C176.945 21.8143 176.891 21.6838 176.796 21.5873Z" fill="#8D8D8D"/>
<path d="M139.221 18.6349H140.283V24.9349H139.221V18.6349ZM139.851 19.5709V18.6349H141.12C141.576 18.6349 141.972 18.7159 142.308 18.8779C142.65 19.0339 142.914 19.2589 143.1 19.5529C143.286 19.8409 143.379 20.1859 143.379 20.5879C143.379 20.9899 143.286 21.3379 143.1 21.6319C142.914 21.9259 142.65 22.1539 142.308 22.3159C141.972 22.4719 141.576 22.5499 141.12 22.5499H139.851V21.6139H141.12C141.486 21.6139 141.78 21.5269 142.002 21.3529C142.224 21.1789 142.335 20.9239 142.335 20.5879C142.335 20.2519 142.224 19.9999 142.002 19.8319C141.78 19.6579 141.486 19.5709 141.12 19.5709H139.851ZM145.13 20.7949V24.9349H144.167V20.7949H145.13ZM146.363 21.8299C146.273 21.7579 146.189 21.7039 146.111 21.6679C146.033 21.6319 145.934 21.6139 145.814 21.6139C145.652 21.6139 145.52 21.6559 145.418 21.7399C145.316 21.8239 145.241 21.9409 145.193 22.0909C145.151 22.2349 145.13 22.4059 145.13 22.6039L144.806 22.4149C144.806 22.0849 144.866 21.7939 144.986 21.5419C145.112 21.2839 145.271 21.0799 145.463 20.9299C145.661 20.7799 145.865 20.7049 146.075 20.7049C146.225 20.7049 146.366 20.7289 146.498 20.7769C146.63 20.8189 146.741 20.8969 146.831 21.0109L146.363 21.8299ZM147.462 19.1479C147.462 18.9799 147.522 18.8389 147.642 18.7249C147.768 18.6109 147.912 18.5539 148.074 18.5539C148.248 18.5539 148.392 18.6109 148.506 18.7249C148.626 18.8389 148.686 18.9799 148.686 19.1479C148.686 19.3099 148.626 19.4509 148.506 19.5709C148.392 19.6849 148.248 19.7419 148.074 19.7419C147.912 19.7419 147.768 19.6849 147.642 19.5709C147.522 19.4509 147.462 19.3099 147.462 19.1479ZM147.597 20.7949H148.551V24.9349H147.597V20.7949ZM150.537 22.8649C150.537 23.1289 150.594 23.3599 150.708 23.5579C150.822 23.7499 150.975 23.9029 151.167 24.0169C151.365 24.1309 151.584 24.1879 151.824 24.1879C152.022 24.1879 152.211 24.1579 152.391 24.0979C152.571 24.0379 152.73 23.9539 152.868 23.8459C153.006 23.7379 153.108 23.6179 153.174 23.4859V24.5569C153.03 24.7009 152.835 24.8149 152.589 24.8989C152.343 24.9829 152.073 25.0249 151.779 25.0249C151.353 25.0249 150.969 24.9349 150.627 24.7549C150.291 24.5689 150.024 24.3139 149.826 23.9899C149.634 23.6599 149.538 23.2849 149.538 22.8649C149.538 22.4389 149.634 22.0639 149.826 21.7399C150.024 21.4159 150.291 21.1639 150.627 20.9839C150.969 20.7979 151.353 20.7049 151.779 20.7049C152.073 20.7049 152.343 20.7469 152.589 20.8309C152.835 20.9149 153.03 21.0289 153.174 21.1729V22.2439C153.108 22.1059 153.003 21.9859 152.859 21.8839C152.721 21.7759 152.562 21.6919 152.382 21.6319C152.202 21.5719 152.016 21.5419 151.824 21.5419C151.584 21.5419 151.365 21.5989 151.167 21.7129C150.975 21.8269 150.822 21.9829 150.708 22.1809C150.594 22.3789 150.537 22.6069 150.537 22.8649ZM154.212 19.1479C154.212 18.9799 154.272 18.8389 154.392 18.7249C154.518 18.6109 154.662 18.5539 154.824 18.5539C154.998 18.5539 155.142 18.6109 155.256 18.7249C155.376 18.8389 155.436 18.9799 155.436 19.1479C155.436 19.3099 155.376 19.4509 155.256 19.5709C155.142 19.6849 154.998 19.7419 154.824 19.7419C154.662 19.7419 154.518 19.6849 154.392 19.5709C154.272 19.4509 154.212 19.3099 154.212 19.1479ZM154.347 20.7949H155.301V24.9349H154.347V20.7949ZM159.303 22.4149C159.303 22.1089 159.24 21.8779 159.114 21.7219C158.988 21.5659 158.793 21.4879 158.529 21.4879C158.349 21.4879 158.19 21.5269 158.052 21.6049C157.914 21.6769 157.806 21.7849 157.728 21.9289C157.65 22.0669 157.611 22.2289 157.611 22.4149V24.9349H156.639V20.7949H157.611V21.4339C157.743 21.1879 157.911 21.0049 158.115 20.8849C158.325 20.7649 158.574 20.7049 158.862 20.7049C159.33 20.7049 159.687 20.8489 159.933 21.1369C160.179 21.4189 160.302 21.8089 160.302 22.3069V24.9349H159.303V22.4149ZM161.309 25.2139H162.272C162.278 25.3999 162.329 25.5679 162.425 25.7179C162.527 25.8679 162.665 25.9849 162.839 26.0689C163.013 26.1529 163.214 26.1949 163.442 26.1949C163.646 26.1949 163.841 26.1469 164.027 26.0509C164.213 25.9549 164.363 25.8079 164.477 25.6099C164.597 25.4119 164.657 25.1569 164.657 24.8449V20.7949H165.611V24.8449C165.611 25.3429 165.509 25.7539 165.305 26.0779C165.107 26.4019 164.846 26.6419 164.522 26.7979C164.198 26.9599 163.847 27.0409 163.469 27.0409C163.019 27.0409 162.635 26.9629 162.317 26.8069C161.999 26.6569 161.753 26.4439 161.579 26.1679C161.411 25.8919 161.321 25.5739 161.309 25.2139ZM161.228 22.8469C161.228 22.3849 161.321 21.9979 161.507 21.6859C161.693 21.3679 161.939 21.1249 162.245 20.9569C162.557 20.7889 162.89 20.7049 163.244 20.7049C163.592 20.7049 163.895 20.7919 164.153 20.9659C164.417 21.1339 164.624 21.3769 164.774 21.6949C164.93 22.0129 165.008 22.3969 165.008 22.8469C165.008 23.2909 164.93 23.6719 164.774 23.9899C164.624 24.3079 164.417 24.5539 164.153 24.7279C163.895 24.8959 163.592 24.9799 163.244 24.9799C162.89 24.9799 162.557 24.8959 162.245 24.7279C161.939 24.5599 161.693 24.3169 161.507 23.9989C161.321 23.6809 161.228 23.2969 161.228 22.8469ZM162.236 22.8469C162.236 23.1229 162.293 23.3569 162.407 23.5489C162.521 23.7409 162.671 23.8879 162.857 23.9899C163.049 24.0859 163.256 24.1339 163.478 24.1339C163.664 24.1339 163.847 24.0859 164.027 23.9899C164.213 23.8939 164.363 23.7499 164.477 23.5579C164.597 23.3599 164.657 23.1229 164.657 22.8469C164.657 22.6309 164.621 22.4449 164.549 22.2889C164.483 22.1269 164.393 21.9919 164.279 21.8839C164.165 21.7699 164.036 21.6859 163.892 21.6319C163.754 21.5779 163.616 21.5509 163.478 21.5509C163.256 21.5509 163.049 21.6019 162.857 21.7039C162.671 21.7999 162.521 21.9439 162.407 22.1359C162.293 22.3279 162.236 22.5649 162.236 22.8469Z" fill="white"/>
</svg>
